<?xml version="1.0" standalone="no"?>
<!DOCTYPE svg PUBLIC "-//W3C//DTD SVG 1.1//EN" "http://www.w3.org/Graphics/SVG/1.1/DTD/svg11.dtd" >
<svg xmlns="http://www.w3.org/2000/svg" xmlns:xlink="http://www.w3.org/1999/xlink" version="1.1">
<metadata>
Created by FontForge 20170731 at Mon Feb 14 16:37:47 2011
 By Aleksey,,,
Copyright (c) 2011 Linotype Corp., www.linotype.com. All rights reserved. This font software may not be reproduced, modified, disclosed or transferred without the express written approval of Linotype Corp. Neue Haas Grotesk is a trademark of Linotype Corp. registered in the U.S. Patent and Trademark Office and may be registered in certain other jurisdictions in the name of Linotype Corp. or its licensee Linotype GmbH. This typeface is original artwork of Christian Schwartz. The design may be protected in certain jurisdictions.
</metadata>
<defs>
<font id="NHaasGroteskTXPro-65Md" horiz-adv-x="500" >
  <font-face 
    font-family="NeueHaasGroteskText Medium"
    font-weight="500"
    font-stretch="normal"
    units-per-em="1000"
    panose-1="2 11 6 4 2 2 2 2 2 4"
    ascent="781"
    descent="-219"
    x-height="534"
    cap-height="744"
    bbox="-276 -255 1341 988"
    underline-thickness="50"
    underline-position="-200"
    unicode-range="U+0013-FB04"
  />
<missing-glyph 
 />
    <glyph glyph-name="f_f" unicode="ff" horiz-adv-x="688" 
d="M421 0v446h-187v-446h-127v446h-82v88h82v54q0 110 97 132q41 27 139 19v-96q-64 3 -86.5 -9t-22.5 -54v-46h187v59q0 110 97 132q45 29 141 18v-95q-65 3 -88 -9t-23 -54v-51h110v-88h-110v-446h-127z" />
    <glyph glyph-name="fi" unicode="fi" horiz-adv-x="605" 
d="M25 446v88h82v59q0 85 50 119q41 34 131 34q27 0 57 -3v-95q-65 3 -88 -9t-23 -54v-51h110v-88h-110v-446h-127v446h-82zM421 0v534h126v-534h-126zM419 621v123h130v-123h-130z" />
    <glyph glyph-name="fl" unicode="fl" horiz-adv-x="608" 
d="M25 446v88h82v59q0 85 50 119q43 36 131 34q27 0 57 -3v-95q-65 3 -88 -9t-23 -54v-51h110v-88h-110v-446h-127v446h-82zM421 0v744h127v-744h-127z" />
    <glyph glyph-name="f_f_i" unicode="ffi" horiz-adv-x="919" 
d="M421 0v446h-187v-446h-127v446h-82v88h82v54q0 110 97 132q41 27 139 19v-96q-64 3 -86.5 -9t-22.5 -54v-46h187v59q0 110 97 132q45 29 141 18v-95q-65 3 -88 -9t-23 -54v-51h110v-88h-110v-446h-127zM735 0v534h126v-534h-126zM733 621v123h130v-123h-130z" />
    <glyph glyph-name="f_f_l" unicode="ffl" horiz-adv-x="922" 
d="M421 0v446h-187v-446h-127v446h-82v88h82v54q0 110 97 132q41 27 139 19v-96q-64 3 -86.5 -9t-22.5 -54v-46h187v59q0 110 97 132q45 29 141 18v-95q-65 3 -88 -9t-23 -54v-51h110v-88h-110v-446h-127zM735 0v744h127v-744h-127z" />
    <glyph glyph-name=".notdef" 
 />
    <glyph glyph-name=".null" horiz-adv-x="0" 
 />
    <glyph glyph-name="nonmarkingreturn" horiz-adv-x="333" 
 />
    <glyph glyph-name="tcommaaccent" horiz-adv-x="371" 
d="M26 447v87h82v170h125v-170h107v-87h-107v-299q0 -28 14 -39t43 -11q21 0 41 4h6v-99q-42 -8 -84 -8q-145 0 -145 125v327h-82zM279 -51v-80q0 -59 -36 -89.5t-97 -34.5v49q63 11 63 55h-61v100h131z" />
    <glyph glyph-name="space" unicode=" " horiz-adv-x="253" 
 />
    <glyph glyph-name="exclam" unicode="!" horiz-adv-x="277" 
d="M105 239l-34 297v208h134v-208l-33 -297h-67zM69 0v139h140v-139h-140z" />
    <glyph glyph-name="quotedbl" unicode="&#x22;" horiz-adv-x="405" 
d="M242 476v268h111v-268h-111zM52 476v268h113v-268h-113z" />
    <glyph glyph-name="numbersign" unicode="#" horiz-adv-x="631" 
d="M73 430l17 100h100l28 183h88l-28 -183h126l28 183h87l-28 -183h103l-17 -100h-101l-21 -136h102l-17 -101h-100l-29 -193h-88l29 193h-125l-29 -193h-88l29 193h-102l17 101h100l21 136h-102zM263 430l-21 -136h126l21 136h-126z" />
    <glyph glyph-name="dollar" unicode="$" horiz-adv-x="652" 
d="M299 -117v110q-128 9 -196.5 72.5t-72.5 161.5h131q14 -117 138 -131v219l-2 1q-48 11 -78 20t-64.5 25.5t-53.5 36.5t-32 52t-13 73q0 90 67 142t176 57v77h62v-78q107 -8 167 -59t68 -138h-126q-12 83 -109 98v-202q48 -11 80.5 -20.5t67.5 -26.5t55.5 -38t34 -53.5
t13.5 -74.5q0 -95 -70 -152t-181 -62v-110h-62zM481 200q0 41 -28 62t-92 38v-205q52 6 86 33.5t34 71.5zM185 529q0 -37 26.5 -58t87.5 -37v190q-53 -5 -83.5 -30t-30.5 -65z" />
    <glyph glyph-name="percent" unicode="%" horiz-adv-x="915" 
d="M213 314q-79 0 -129 57t-50 150t50.5 150t128.5 57q79 0 128.5 -56t49.5 -151q0 -94 -49.5 -150.5t-128.5 -56.5zM217 0l396 712h85l-397 -712h-84zM701 -17q-79 0 -129 57t-50 151q0 93 50.5 150t128.5 57q80 0 130 -56.5t50 -150.5t-50 -151t-130 -57zM213 391
q38 0 57.5 35.5t19.5 94.5t-20 95.5t-57 36.5t-56 -36t-19 -96q0 -59 19 -94.5t56 -35.5zM702 61q38 0 57 35.5t19 94.5q0 58 -20 95t-56 37q-37 0 -56.5 -36.5t-19.5 -95.5t19.5 -94.5t56.5 -35.5z" />
    <glyph glyph-name="ampersand" unicode="&#x26;" horiz-adv-x="694" 
d="M288 -14q-111 0 -182 58t-71 154q0 79 43.5 128.5t125.5 93.5l-2 3q-68 79 -68 163q0 72 53 119.5t136 47.5q80 0 133.5 -45t53.5 -123q0 -64 -37 -106.5t-103 -78.5l12 -14q5 -7 25 -33.5t47 -61.5t39 -50q23 55 29 127h111q-6 -120 -66 -214l123 -154h-155l-34 43
l-13 17q-91 -74 -200 -74zM291 92q74 0 132 49l-160 204q-97 -60 -97 -145q0 -47 36.5 -77.5t88.5 -30.5zM252 588q0 -51 57 -110l6 -8q78 47 78 115q0 33 -19 53.5t-50 20.5t-51.5 -20t-20.5 -51z" />
    <glyph glyph-name="quotesingle" unicode="'" horiz-adv-x="217" 
d="M52 476v268h113v-268h-113z" />
    <glyph glyph-name="parenleft" unicode="(" horiz-adv-x="353" 
d="M230 -134q-160 210 -160 461q0 134 44.5 252.5t115.5 204.5h104q-128 -206 -128 -457q0 -242 128 -461h-104z" />
    <glyph glyph-name="parenright" unicode=")" horiz-adv-x="353" 
d="M19 -134q130 219 130 461q0 253 -130 457h105q71 -86 115.5 -204.5t44.5 -252.5q0 -251 -160 -461h-105z" />
    <glyph glyph-name="asterisk" unicode="*" horiz-adv-x="443" 
d="M147 398l-62 44l74 104l-117 38l28 69l112 -37v128h80v-128l111 37l26 -69l-115 -38l75 -104l-62 -44l-74 110z" />
    <glyph glyph-name="plus" unicode="+" horiz-adv-x="604" 
d="M58 290v101h190v200h108v-200h190v-101h-190v-200h-108v200h-190z" />
    <glyph glyph-name="comma" unicode="," horiz-adv-x="236" 
d="M50 -169v62q64 19 64 101v6h-65v139h139v-138q0 -79 -37 -121t-101 -49z" />
    <glyph glyph-name="hyphen" unicode="-" horiz-adv-x="368" 
d="M44 218v112h280v-112h-280z" />
    <glyph glyph-name="period" unicode="." horiz-adv-x="236" 
d="M49 0v139h139v-139h-139z" />
    <glyph glyph-name="slash" unicode="/" horiz-adv-x="453" 
d="M-21 -134l347 918h120l-347 -918h-120z" />
    <glyph glyph-name="zero" unicode="0" horiz-adv-x="680" 
d="M339 -17q-134 0 -214.5 101.5t-80.5 271.5t81 271t215 101q136 0 216 -100t80 -272q0 -171 -80 -272t-217 -101zM340 91q160 0 160 265q0 125 -39.5 195.5t-120.5 70.5q-80 0 -120 -70.5t-40 -195.5q0 -124 40 -194.5t120 -70.5z" />
    <glyph glyph-name="one" unicode="1" horiz-adv-x="417" 
d="M202 0v487h-165v88q172 5 194 143h103v-718h-132z" />
    <glyph glyph-name="two" unicode="2" horiz-adv-x="604" 
d="M35 0q4 115 76 197q17 19 36.5 37t47 37.5t41 29t49 32.5t41.5 27q55 35 80 65.5t25 75.5q0 54 -33 86.5t-89 32.5q-62 0 -95 -38q-36 -39 -36 -116h-129q0 106 56 176q69 85 211 85q115 0 182 -62.5t67 -160.5q0 -72 -34 -116.5t-104 -90.5q-22 -17 -75.5 -52
t-89.5 -64.5t-55 -61.5v-5h352v-114h-524z" />
    <glyph glyph-name="three" unicode="3" horiz-adv-x="625" 
d="M319 -17q-128 0 -208 63q-83 68 -85 187h126q3 -67 44.5 -106t117.5 -39q65 0 102.5 32t37.5 92q0 56 -40 85.5t-114 29.5h-44v95h41q66 0 102 27t36 76q0 47 -34.5 75t-88.5 28q-65 0 -101 -37t-38 -93h-125q2 102 73 166t194 64q110 0 180 -53.5t70 -144.5
q0 -106 -120 -146v-2q143 -40 143 -180q0 -104 -76.5 -161.5t-192.5 -57.5z" />
    <glyph glyph-name="four" unicode="4" horiz-adv-x="640" 
d="M387 0v167h-339v117l347 436h120v-454h110v-99h-110v-167h-128zM142 261q64 5 104 5h141v204l5 107h-2q-37 -59 -66 -96l-102 -129l-80 -89v-2z" />
    <glyph glyph-name="five" unicode="5" horiz-adv-x="611" 
d="M303 -16q-117 0 -192.5 59t-83.5 154h130q10 -48 46 -76t96 -28q64 0 103 39.5t39 104.5t-39 103.5t-98 38.5q-87 0 -132 -56h-125l76 389h408v-109h-314l-39 -183h2q58 61 156 61t168.5 -67t70.5 -178q0 -114 -76.5 -183t-195.5 -69z" />
    <glyph glyph-name="six" unicode="6" horiz-adv-x="640" 
d="M339 -17q-129 0 -205 84q-89 95 -89 289q-2 177 77 276q77 96 216 96q104 0 166.5 -52.5t76.5 -131.5h-128q-7 35 -35.5 60t-77.5 25q-161 0 -170 -250h2q65 100 184 100q101 0 172.5 -70.5t72.5 -175.5q1 -107 -74.5 -178.5t-187.5 -71.5zM335 84q61 0 101.5 41.5
t40.5 104.5q0 65 -41 106t-102 41q-67 0 -108.5 -40.5t-41.5 -105.5q0 -64 43.5 -105.5t107.5 -41.5z" />
    <glyph glyph-name="seven" unicode="7" horiz-adv-x="566" 
d="M129 0q9 181 91.5 344.5t193.5 257.5v2q-74 -5 -152 -5h-232v113h513v-103q-112 -105 -189.5 -264t-85.5 -345h-139z" />
    <glyph glyph-name="eight" unicode="8" horiz-adv-x="638" 
d="M321 -17q-122 0 -204 57.5t-82 162.5q0 68 39.5 115t108.5 67v3q-115 38 -115 148q0 87 69.5 139.5t181.5 52.5q113 0 182 -51.5t69 -138.5q0 -52 -29 -90.5t-85 -57.5v-3q69 -18 108 -66t39 -115q0 -108 -80 -165.5t-202 -57.5zM319 429q59 0 92 27t33 74t-33 74.5
t-92 27.5t-92.5 -27.5t-33.5 -74.5t33.5 -74t92.5 -27zM321 85q68 0 108.5 33.5t40.5 90.5q0 60 -40 94.5t-110 34.5t-110.5 -35t-40.5 -94q0 -58 40.5 -91t111.5 -33z" />
    <glyph glyph-name="nine" unicode="9" horiz-adv-x="641" 
d="M313 -17q-107 0 -177 54.5t-80 135.5h129q7 -37 39.5 -63.5t85.5 -26.5q75 0 114 54q43 54 49 188h-2q-71 -92 -182 -92q-105 0 -177 70.5t-72 176.5q0 107 76 177.5t192 70.5q112 0 186 -63q103 -85 103 -308q0 -210 -90 -300q-71 -74 -194 -74zM310 334q67 0 108.5 41
t41.5 106q0 64 -42.5 105t-106.5 41q-65 0 -106 -41t-41 -105t41 -105.5t105 -41.5z" />
    <glyph glyph-name="colon" unicode=":" horiz-adv-x="243" 
d="M52 319v138h139v-138h-139zM52 0v139h139v-139h-139z" />
    <glyph glyph-name="semicolon" unicode=";" horiz-adv-x="243" 
d="M52 319v138h139v-138h-139zM53 -169v62q64 19 64 101v6h-65v139h139v-138q0 -79 -37 -121t-101 -49z" />
    <glyph glyph-name="less" unicode="&#x3c;" horiz-adv-x="544" 
d="M482 83l-425 180v119l425 180v-113l-197 -78l-139 -48v-2q85 -25 139 -45l197 -77v-116z" />
    <glyph glyph-name="equal" unicode="=" horiz-adv-x="602" 
d="M62 375v99h480v-99h-480zM62 174v99h480v-99h-480z" />
    <glyph glyph-name="greater" unicode="&#x3e;" horiz-adv-x="544" 
d="M62 562l425 -180v-119l-425 -180v112l198 79l139 48v2q-85 25 -139 45l-198 77v116z" />
    <glyph glyph-name="question" unicode="?" horiz-adv-x="565" 
d="M196 0v139h139v-139h-139zM209 239q1 67 20.5 106.5t69.5 82.5q7 6 27 22t28.5 23.5t20.5 22t17 29t5 32.5q0 41 -30.5 66.5t-81.5 25.5q-62 0 -97.5 -36.5t-37.5 -95.5h-127q3 102 72.5 171t193.5 69q110 0 176 -55t66 -142q0 -92 -83 -160q-15 -12 -41 -31.5
t-38.5 -30.5t-21.5 -21q-22 -27 -23 -78h-115z" />
    <glyph glyph-name="at" unicode="@" horiz-adv-x="942" 
d="M424 97q-75 0 -119.5 51.5t-44.5 137.5q0 107 55.5 174.5t141.5 67.5q84 0 115 -74h2l7 64h112l-33 -270q-9 -75 46 -75q45 0 77.5 42t32.5 137q0 152 -90 232t-239 80q-151 0 -253.5 -100t-102.5 -269q0 -147 87 -239t243 -92q99 0 192 38l28 -69q-96 -46 -218 -46
q-185 0 -303.5 112.5t-118.5 295.5q0 138 65 242t165 155t217 51q112 0 204.5 -43.5t151 -134t58.5 -212.5q0 -123 -56.5 -190.5t-146.5 -67.5q-52 0 -88 22t-48 63h-2q-45 -83 -137 -83zM453 183q51 0 79 43t28 112q0 48 -21 75.5t-61 27.5q-49 0 -75 -42.5t-26 -110.5
q0 -48 19 -76.5t57 -28.5z" />
    <glyph glyph-name="A" unicode="A" horiz-adv-x="718" 
d="M14 0l270 744h148l271 -744h-148l-59 177h-282l-60 -177h-140zM307 451l-59 -172h214l-57 172q-13 39 -24.5 84t-16.5 70l-6 25h-2q-25 -108 -49 -179z" />
    <glyph glyph-name="B" unicode="B" horiz-adv-x="701" 
d="M70 0v744h337q117 0 175 -57q57 -52 57 -136q0 -115 -122 -152v-3q71 -17 111.5 -64t40.5 -116q0 -97 -66 -154q-67 -62 -185 -62h-348zM207 437h180q55 0 86 26t31 73q0 46 -29.5 71.5t-80.5 25.5h-187v-196zM207 113h199q62 0 94 32q30 28 30 76q0 55 -35 84t-93 29
h-195v-221z" />
    <glyph glyph-name="C" unicode="C" horiz-adv-x="752" 
d="M398 -16q-160 0 -259 108.5t-99 277.5t98 278.5t261 109.5q126 0 206 -61q91 -71 105 -192h-138q-10 61 -56 98.5t-118 37.5q-103 0 -160 -75.5t-57 -195.5t59.5 -194.5t158.5 -74.5q80 0 127 46.5t53 117.5h139q-2 -55 -26.5 -108t-63.5 -91q-82 -82 -230 -82z" />
    <glyph glyph-name="D" unicode="D" horiz-adv-x="741" 
d="M71 0v744h293q159 0 248.5 -102t89.5 -274q0 -170 -90 -269t-256 -99h-285zM210 118h137q108 0 160.5 65t52.5 185q0 121 -51.5 189.5t-157.5 68.5h-141v-508z" />
    <glyph glyph-name="E" unicode="E" horiz-adv-x="668" 
d="M70 0v744h544v-118h-406v-184h359v-111h-359v-210h415v-121h-553z" />
    <glyph glyph-name="F" unicode="F" horiz-adv-x="632" 
d="M70 0v744h528v-119h-390v-191h325v-115h-325v-319h-138z" />
    <glyph glyph-name="G" unicode="G" horiz-adv-x="783" 
d="M636 0l-19 102h-4q-71 -119 -221 -119q-155 0 -253 106t-98 280q0 187 113 295q96 94 248 94q132 0 213 -64t102 -173h-140q-16 55 -59 88t-114 33q-109 0 -165.5 -75.5t-56.5 -197.5q0 -120 61 -195t161 -75q90 0 140.5 52t51.5 128v9h-180v108h313v-396h-93z" />
    <glyph glyph-name="H" unicode="H" horiz-adv-x="745" 
d="M70 0v744h138v-299h329v299h139v-744h-139v330h-329v-330h-138z" />
    <glyph glyph-name="I" unicode="I" horiz-adv-x="280" 
d="M70 0v744h139v-744h-139z" />
    <glyph glyph-name="J" unicode="J" horiz-adv-x="560" 
d="M268 -14q-117 0 -178.5 61.5t-61.5 179.5v38h130v-34q0 -71 25.5 -101t79.5 -30q98 0 98 110v534h139v-539q0 -94 -50 -148q-61 -71 -182 -71z" />
    <glyph glyph-name="K" unicode="K" horiz-adv-x="713" 
d="M70 0v744h138v-172q0 -60 -5 -158l316 330h168l-292 -298l313 -446h-162l-250 357l-88 -89v-268h-138z" />
    <glyph glyph-name="L" unicode="L" horiz-adv-x="600" 
d="M70 0v744h138v-623h362v-121h-500z" />
    <glyph glyph-name="M" unicode="M" horiz-adv-x="883" 
d="M70 0v744h183l122 -354q13 -39 29 -101.5t26 -105.5l10 -43h3q36 162 64 250l120 354h187v-744h-129v388l9 232h-2q-31 -137 -55 -211l-141 -409h-112l-142 409q-11 33 -24.5 85.5t-21.5 89.5l-9 36h-2q9 -151 9 -232v-388h-124z" />
    <glyph glyph-name="N" unicode="N" horiz-adv-x="747" 
d="M70 0v744h142l247 -390q18 -29 41 -72t38 -72l14 -29h3q-8 116 -8 190v373h131v-744h-142l-246 388q-18 29 -41.5 72.5t-38.5 72.5l-14 29h-2q7 -116 7 -190v-372h-131z" />
    <glyph glyph-name="O" unicode="O" horiz-adv-x="812" 
d="M406 -17q-166 0 -266 109t-100 278q0 170 100 279t266 109t266 -109t100 -279q0 -169 -100 -278t-266 -109zM407 100q107 0 165 75t58 195q0 121 -58 197.5t-165 76.5t-166.5 -76.5t-59.5 -197.5q0 -120 59 -195t167 -75z" />
    <glyph glyph-name="P" unicode="P" horiz-adv-x="668" 
d="M70 0v744h322q125 0 189 -70q63 -68 63 -163q0 -106 -65 -168.5t-181 -62.5h-188v-280h-140zM210 625v-234h166q63 0 96 31.5t33 86.5q0 56 -33 86t-94 30h-168z" />
    <glyph glyph-name="Q" unicode="Q" horiz-adv-x="811" 
d="M706 -64l-110 95q-82 -48 -190 -48q-167 0 -266.5 108.5t-99.5 278.5t99.5 279t266.5 109q166 0 265.5 -109t99.5 -279t-99 -278l98 -85zM406 97q52 0 93 18l-92 81l63 72l105 -92q54 74 54 194q0 121 -58 197.5t-165 76.5t-166 -76.5t-59 -197.5q0 -120 59 -196.5
t166 -76.5z" />
    <glyph glyph-name="R" unicode="R" horiz-adv-x="708" 
d="M70 0v744h351q106 0 172.5 -56.5t66.5 -152.5q0 -140 -137 -184v-3q58 -18 84 -54.5t32 -106.5q2 -19 4.5 -43.5t4 -38.5t3.5 -31t3.5 -26.5t4 -19t6 -14.5t7.5 -7v-7h-140q-4 3 -7 8t-5.5 14t-4 18t-2.5 25t-2 29t-3 36t-3 40q-6 66 -38.5 96t-99.5 30h-159v-296h-138z
M208 631v-229h180q64 0 98.5 30t34.5 83q0 116 -128 116h-185z" />
    <glyph glyph-name="S" unicode="S" horiz-adv-x="682" 
d="M353 -17q-150 0 -235 69.5t-90 185.5h139q15 -144 187 -144q64 0 106 28t42 81q0 23 -9.5 41t-23 29.5t-42.5 22t-51 16.5t-66 16q-49 11 -81 20.5t-68 26.5t-57 38.5t-35 55t-14 76.5q0 103 75.5 157.5t199.5 54.5q128 0 202 -58t85 -162h-135q-8 55 -48 84.5t-106 29.5
q-63 0 -100.5 -25t-37.5 -69q0 -47 42.5 -68.5t144.5 -42.5q48 -11 81 -20.5t71 -27.5t60.5 -41t37.5 -59.5t15 -83.5q0 -108 -81 -169.5t-208 -61.5z" />
    <glyph glyph-name="T" unicode="T" horiz-adv-x="661" 
d="M29 625v119h604v-119h-233v-625h-139v625h-232z" />
    <glyph glyph-name="U" unicode="U" horiz-adv-x="715" 
d="M358 -13q-142 0 -220 67t-78 197v493h138v-491q0 -151 161 -151q76 0 117 39t41 114v489h139v-493q0 -129 -79 -196.5t-219 -67.5z" />
    <glyph glyph-name="V" unicode="V" horiz-adv-x="678" 
d="M264 0l-251 744h146l135 -422q9 -31 21 -78.5t19 -79.5l7 -33h2q26 123 47 191l133 422h142l-253 -744h-148z" />
    <glyph glyph-name="W" unicode="W" horiz-adv-x="983" 
d="M211 0l-198 744h142l88 -360q10 -40 19.5 -101t14.5 -101l5 -41h2q24 158 45 247l91 356h136l90 -355q9 -40 20 -102t17 -104l6 -42h2q20 153 43 244l88 359h142l-206 -744h-135l-95 389q-9 35 -18.5 91t-15.5 94l-5 38h-2q-20 -144 -38 -223l-100 -389h-138z" />
    <glyph glyph-name="X" unicode="X" horiz-adv-x="701" 
d="M19 0l253 386l-233 358h159l84 -137q14 -24 31.5 -58t28.5 -57l11 -22h2q41 84 74 137l84 137h152l-233 -358l249 -386h-164l-95 160q-14 24 -32 59t-28 57l-11 23h-2q-42 -85 -75 -139l-98 -160h-157z" />
    <glyph glyph-name="Y" unicode="Y" horiz-adv-x="692" 
d="M275 0v294l-261 450h153l105 -188q15 -27 33.5 -66.5t29.5 -65.5l11 -27h2q42 98 75 159l106 188h147l-262 -452v-292h-139z" />
    <glyph glyph-name="Z" unicode="Z" horiz-adv-x="679" 
d="M37 0v118l316 394q17 21 44 50t45 48l19 18v3q-91 -4 -146 -4h-251v117h557v-109l-308 -389q-19 -23 -48.5 -55t-49.5 -53l-20 -20v-3q95 5 153 5h288v-120h-599z" />
    <glyph glyph-name="bracketleft" unicode="[" horiz-adv-x="394" 
d="M78 -134v918h273v-100h-149v-717h149v-101h-273z" />
    <glyph glyph-name="backslash" unicode="\" horiz-adv-x="453" 
d="M474 -134h-120l-346 918h120z" />
    <glyph glyph-name="bracketright" unicode="]" horiz-adv-x="394" 
d="M42 -134v101h148v717h-148v100h273v-918h-273z" />
    <glyph glyph-name="asciicircum" unicode="^" horiz-adv-x="497" 
d="M17 441l175 303h113l175 -303h-124l-106 189h-2l-108 -189h-123z" />
    <glyph glyph-name="underscore" unicode="_" horiz-adv-x="437" 
d="M-2 -175v85h441v-85h-441z" />
    <glyph glyph-name="grave" unicode="`" horiz-adv-x="538" 
d="M231 618l-106 154h151l53 -154h-98z" />
    <glyph glyph-name="a" unicode="a" horiz-adv-x="566" 
d="M404 0q-15 20 -18 69h-2q-61 -82 -168 -82q-81 0 -131.5 41t-50.5 117q0 44 15.5 74.5t47.5 48t67.5 27t88.5 15.5q71 9 101.5 24t30.5 49q0 35 -24.5 56t-71.5 21q-104 0 -109 -86h-120q3 74 61.5 124t166.5 50q94 0 143 -31q76 -46 76 -152v-281q0 -62 20 -75v-9h-123z
M253 74q62 0 98.5 36t36.5 84v79q-31 -20 -104 -35q-66 -13 -94.5 -31t-28.5 -59q0 -74 92 -74z" />
    <glyph glyph-name="b" unicode="b" horiz-adv-x="608" 
d="M348 -17q-116 0 -164 94h-3v-77h-123v744h127v-176q0 -57 -4 -113h3q58 93 165 93q103 0 166 -77.5t63 -204.5q0 -131 -62 -207t-168 -76zM321 87q62 0 95 48.5t33 131.5q0 82 -33 132t-95 50q-70 0 -105.5 -51t-35.5 -132q0 -80 37 -129.5t104 -49.5z" />
    <glyph glyph-name="c" unicode="c" horiz-adv-x="569" 
d="M302 -16q-121 0 -196 80.5t-75 201.5q0 122 74 202t195 80q100 0 163 -52t78 -140h-124q-9 44 -39 69.5t-77 25.5q-68 0 -104.5 -50.5t-36.5 -134.5q0 -82 36.5 -132.5t104.5 -50.5q52 0 83 29t36 82h124q-6 -94 -71 -152t-171 -58z" />
    <glyph glyph-name="d" unicode="d" horiz-adv-x="610" 
d="M263 -17q-106 0 -169 76.5t-63 206.5q0 127 64.5 204.5t167.5 77.5q107 0 164 -91h2q-4 58 -4 111v176h127v-744h-123v78h-2q-51 -95 -164 -95zM289 87q69 0 105 49t36 130q0 83 -36.5 133t-104.5 50q-62 0 -95.5 -50t-33.5 -132q0 -83 33 -131.5t96 -48.5z" />
    <glyph glyph-name="e" unicode="e" horiz-adv-x="587" 
d="M303 -16q-124 0 -198 80t-74 202q0 121 74 201.5t191 80.5q114 0 184 -75q78 -82 76 -238h-399q7 -71 44.5 -112.5t102.5 -41.5q91 0 118 70h124q-20 -75 -84 -121t-159 -46zM296 456q-60 0 -94 -37.5t-43 -103.5h266q-4 66 -38 103.5t-91 37.5z" />
    <glyph glyph-name="f" unicode="f" horiz-adv-x="374" 
d="M25 446v88h82v59q0 79 41 116q44 39 140 37q27 0 57 -3v-95q-65 3 -88 -9t-23 -54v-51h110v-88h-110v-446h-127v446h-82z" />
    <glyph glyph-name="g" unicode="g" horiz-adv-x="605" 
d="M295 -186q-107 0 -170.5 41.5t-73.5 117.5h122q13 -66 120 -66q129 0 129 117v13q0 38 2 74h-3q-51 -82 -151 -82t-166.5 70t-66.5 187q0 118 64 190t162 72q111 0 158 -83h2v69h123v-499q0 -108 -67 -167q-64 -54 -184 -54zM293 127q69 0 101.5 44t32.5 119
q0 74 -34.5 116.5t-100.5 42.5q-61 0 -95 -43t-34 -118q0 -74 34 -117.5t96 -43.5z" />
    <glyph glyph-name="h" unicode="h" horiz-adv-x="589" 
d="M185 544q0 -25 -2 -87h3q57 91 165 91q86 0 135 -50t49 -136v-362h-127v341q0 48 -27 75t-75 27q-53 0 -87 -36.5t-34 -93.5v-313h-127v744h127v-200z" />
    <glyph glyph-name="i" unicode="i" horiz-adv-x="242" 
d="M56 621v123h130v-123h-130zM58 0v534h127v-534h-127z" />
    <glyph glyph-name="j" unicode="j" horiz-adv-x="243" 
d="M42 -176q-39 0 -72 7v93h5h33q26 2 38 13.5t12 39.5v557h127v-562q0 -80 -38 -115q-37 -33 -105 -33zM56 621v123h130v-123h-130z" />
    <glyph glyph-name="k" unicode="k" horiz-adv-x="568" 
d="M407 0l-160 256l-63 -63v-193h-126v744h126v-288q0 -7 -4 -131l201 209h151l-196 -195l219 -339h-148z" />
    <glyph glyph-name="l" unicode="l" horiz-adv-x="247" 
d="M60 0v744h128v-744h-128z" />
    <glyph glyph-name="m" unicode="m" horiz-adv-x="883" 
d="M58 0v534h123v-81h3q54 95 160 95t142 -100h2q61 100 168 100q81 0 127 -49.5t46 -136.5v-362h-127v345q0 45 -24 71.5t-63 26.5q-47 0 -77.5 -35.5t-30.5 -91.5v-316h-127v345q0 46 -22 72t-62 26q-45 0 -78 -36t-33 -91v-316h-127z" />
    <glyph glyph-name="n" unicode="n" horiz-adv-x="589" 
d="M182 534v-78h3q55 92 166 92q86 0 135 -50t49 -136v-362h-127v341q0 48 -27 75t-75 27q-53 0 -87 -36.5t-34 -93.5v-313h-127v534h124z" />
    <glyph glyph-name="o" unicode="o" horiz-adv-x="606" 
d="M304 -16q-122 0 -197.5 80.5t-75.5 201.5t75.5 201.5t197.5 80.5t196.5 -80t74.5 -202q0 -121 -74.5 -201.5t-196.5 -80.5zM303 80q68 0 105.5 51.5t37.5 134.5q0 84 -37.5 136t-105.5 52t-105.5 -52t-37.5 -136q0 -83 37.5 -134.5t105.5 -51.5z" />
    <glyph glyph-name="p" unicode="p" horiz-adv-x="611" 
d="M58 -179v713h123v-79h3q58 93 166 93q104 0 167 -77t63 -205q0 -129 -63 -206t-171 -77q-110 0 -162 85h-3q4 -40 4 -104v-143h-127zM322 84q62 0 95.5 49t33.5 130q0 82 -33.5 132t-96.5 50q-69 0 -105 -51t-36 -131t36 -129.5t106 -49.5z" />
    <glyph glyph-name="q" unicode="q" horiz-adv-x="611" 
d="M427 -179v143q0 26 3 104h-2q-57 -85 -161 -85q-108 0 -171 77t-63 206q0 127 63.5 204.5t167.5 77.5q110 0 163 -91h3v77h123v-713h-126zM290 84q71 0 106.5 49t35.5 130q0 82 -36 132t-105 50q-64 0 -97 -49.5t-33 -132.5q0 -81 33.5 -130t95.5 -49z" />
    <glyph glyph-name="r" unicode="r" horiz-adv-x="396" 
d="M181 534v-96h3q51 104 153 104q23 0 34 -5v-114h-4q-16 4 -35 4q-65 1 -106 -41.5t-41 -117.5v-268h-127v534h123z" />
    <glyph glyph-name="s" unicode="s" horiz-adv-x="531" 
d="M272 -17q-112 0 -177 49t-71 132h122q14 -91 127 -91q51 0 77 19.5t26 53.5q0 16 -7 27.5t-16 18.5t-31 13.5t-36.5 10t-47.5 9.5q-47 9 -74 17.5t-59 26t-47 47.5t-15 73q0 75 58 117t153 42q103 0 159.5 -42t66.5 -115h-121q-14 71 -106 71q-43 0 -66.5 -17.5
t-23.5 -46.5q0 -31 29.5 -44t100.5 -26q4 -1 6 -1q37 -7 60.5 -13t53 -19t46.5 -29.5t29 -45t12 -66.5q0 -82 -63 -126.5t-165 -44.5z" />
    <glyph glyph-name="t" unicode="t" horiz-adv-x="371" 
d="M26 447v87h82v170h125v-170h107v-87h-107v-299q0 -28 14 -39t43 -11q21 0 41 4h6v-99q-42 -8 -84 -8q-145 0 -145 125v327h-82z" />
    <glyph glyph-name="u" unicode="u" horiz-adv-x="583" 
d="M525 0h-123v76h-2q-61 -90 -161 -90q-87 0 -136 50.5t-49 137.5v360h127v-342q0 -47 26 -73.5t74 -26.5q53 0 85.5 36.5t32.5 92.5v313h126v-534z" />
    <glyph glyph-name="v" unicode="v" horiz-adv-x="523" 
d="M190 0l-185 534h133l78 -249q10 -32 21.5 -76.5t17.5 -73.5l6 -29h3q21 107 44 179l81 249h129l-189 -534h-139z" />
    <glyph glyph-name="w" unicode="w" horiz-adv-x="803" 
d="M175 0l-167 534h132l69 -249q8 -28 16 -68t13 -67l4 -26h2q17 97 35 161l66 249h112l68 -249l34 -162h2q15 97 34 162l71 249h128l-170 -534h-122l-67 254l-33 157h-2q-20 -101 -34 -157l-69 -254h-122z" />
    <glyph glyph-name="x" unicode="x" horiz-adv-x="576" 
d="M18 0l194 280l-173 254h146l53 -84l50 -95h2q29 60 50 95l54 84h136l-169 -248l196 -286h-147l-70 107l-54 101h-2q-32 -63 -55 -101l-71 -107h-140z" />
    <glyph glyph-name="y" unicode="y" horiz-adv-x="539" 
d="M150 -182q-75 0 -93 6v103h7q8 -5 53 -5q63 0 78 59q0 1 0.5 14t0.5 24t-1.5 26t-5.5 25l-184 464h135l88 -248q10 -29 21.5 -70.5t17.5 -68.5l6 -27h2q24 101 46 166l85 248h128l-207 -564q-32 -87 -71 -119.5t-106 -32.5z" />
    <glyph glyph-name="z" unicode="z" horiz-adv-x="526" 
d="M40 0v96l213 261q12 14 31 33.5t32 31.5l14 13v3q-67 -6 -108 -6h-162v102h419v-87l-212 -260q-13 -15 -34.5 -36.5t-36.5 -34.5l-14 -14v-3q72 5 116 5h194v-104h-452z" />
    <glyph glyph-name="braceleft" unicode="{" horiz-adv-x="384" 
d="M322 -134q-104 0 -152.5 41.5t-48.5 143.5v154q0 37 -20.5 55t-69.5 19v98q49 1 69.5 19t20.5 55v151q0 102 48.5 142t152.5 40h29v-100h-25q-45 0 -63 -17t-18 -66v-164q0 -87 -73 -107v-3q38 -12 55.5 -37t17.5 -70v-169q0 -48 18.5 -66t62.5 -18h25v-101h-29z" />
    <glyph glyph-name="bar" unicode="|" horiz-adv-x="246" 
d="M78 -134v918h89v-918h-89z" />
    <glyph glyph-name="braceright" unicode="}" horiz-adv-x="384" 
d="M42 -134v101h19q45 0 63 17t18 66v168q0 45 17.5 70t56.5 37v3q-39 11 -56.5 36.5t-17.5 70.5v165q0 49 -18.5 66.5t-62.5 17.5h-19v100h23q105 0 153 -41t48 -143v-151q0 -37 19.5 -55t66.5 -19v-97q-46 -2 -66 -19.5t-20 -54.5v-154q0 -102 -48 -143t-153 -41h-23z" />
    <glyph glyph-name="asciitilde" unicode="~" horiz-adv-x="453" 
d="M308 268q-30 0 -80 21q-53 23 -66 23q-32 0 -35 -45h-87q1 73 31.5 112.5t80.5 39.5q36 0 82 -23q41 -22 59 -22q34 0 36 44h87q-1 -70 -28 -110t-80 -40z" />
    <glyph glyph-name="uni00A0" unicode="&#xa0;" horiz-adv-x="241" 
 />
    <glyph glyph-name="exclamdown" unicode="&#xa1;" horiz-adv-x="277" 
d="M172 373l34 -297v-208h-134v208l33 297h67zM209 612v-139h-140v139h140z" />
    <glyph glyph-name="cent" unicode="&#xa2;" horiz-adv-x="571" 
d="M269 -124v110q-109 12 -173.5 90t-64.5 190q0 113 64.5 191.5t173.5 89.5v88h61v-88q89 -7 145 -59.5t69 -134.5h-123q-16 82 -91 96v-365q41 8 65.5 36.5t28.5 74.5h121q-5 -89 -62.5 -146t-152.5 -64v-109h-61zM158 266q0 -71 28.5 -120t82.5 -61v363
q-54 -12 -82.5 -61t-28.5 -121z" />
    <glyph glyph-name="sterling" unicode="&#xa3;" horiz-adv-x="612" 
d="M44 307v81h54q-33 74 -33 127q0 93 68.5 152.5t187.5 59.5q112 0 178 -56q77 -64 78 -187h-128q-1 70 -35.5 104t-92.5 34q-57 0 -87.5 -29.5t-30.5 -80.5q0 -39 33 -124h145v-81h-122q3 -19 3 -39q0 -45 -22 -81.5t-71 -74.5l2 -3q53 27 98 27q38 0 84 -16.5t73 -16.5
q54 0 102 46l62 -99q-73 -64 -164 -64q-51 0 -114 26.5t-102 26.5q-43 0 -106 -45l-68 98q51 35 78 71t27 85q0 27 -10 59h-87z" />
    <glyph glyph-name="currency" unicode="&#xa4;" horiz-adv-x="524" 
d="M262 227q49 0 77 36t28 94t-28 94.5t-77 36.5q-50 0 -79 -36.5t-29 -94.5t29 -94t79 -36zM82 107l-63 62l68 69q-33 53 -33 119q0 65 33 118l-68 70l63 61l68 -70q50 32 112 32q61 0 111 -32l68 70l64 -61l-70 -70q33 -51 33 -118q0 -66 -33 -118l70 -70l-64 -62l-69 70
q-45 -30 -110 -30q-64 0 -111 30z" />
    <glyph glyph-name="yen" unicode="&#xa5;" horiz-adv-x="646" 
d="M79 274v61h158l-221 378h147l79 -148q16 -29 36.5 -73.5t33.5 -74.5l12 -30h2q48 113 83 178l79 148h143l-221 -378h160v-61h-181v-76h181v-61h-181v-137h-129v137h-181v61h181v76h-181z" />
    <glyph glyph-name="brokenbar" unicode="&#xa6;" horiz-adv-x="246" 
d="M78 386v398h89v-398h-89zM78 -134v415h89v-415h-89z" />
    <glyph glyph-name="section" unicode="&#xa7;" horiz-adv-x="646" 
d="M332 -190q-108 0 -173 56.5t-68 141.5h121q2 -43 32.5 -70t85.5 -27q44 0 68 19.5t24 49.5q0 9 -2 16.5t-7 15t-10.5 13t-16.5 13t-19.5 12.5t-25 13.5t-28.5 14t-34 16t-38 18.5q-107 51 -154.5 95t-47.5 114q0 54 33.5 90.5t92.5 51.5q-53 47 -53 108q0 74 59 119.5
t154 45.5q100 0 158.5 -50t63.5 -134h-117q-9 84 -103 84q-44 0 -67 -17.5t-23 -46.5q0 -16 7 -28.5t31 -27.5t39.5 -23t63.5 -30q11 -5 17 -8q55 -26 83 -41.5t64 -42.5t51.5 -58t15.5 -70q0 -113 -123 -145q62 -52 62 -118q0 -79 -58.5 -124.5t-157.5 -45.5zM335 353
q-70 32 -109 54q-33 -7 -51 -26t-18 -45q0 -32 27.5 -54t114.5 -68q10 -5 54 -27.5t65 -34.5q69 20 69 76q0 34 -31 57.5t-121 67.5z" />
    <glyph glyph-name="dieresis" unicode="&#xa8;" 
d="M300 621v123h122v-123h-122zM78 621v123h122v-123h-122z" />
    <glyph glyph-name="copyright" unicode="&#xa9;" horiz-adv-x="865" 
d="M433 -18q-161 0 -271.5 110.5t-110.5 276.5t110.5 277t271.5 111t271.5 -111t110.5 -277t-110.5 -276.5t-271.5 -110.5zM433 28q140 0 233 97.5t93 243.5q0 147 -93 244.5t-233 97.5t-234 -97.5t-94 -244.5q0 -146 94 -243.5t234 -97.5zM438 145q-95 0 -154.5 63.5
t-59.5 162.5q0 100 59 164.5t155 64.5q74 0 121 -38q57 -40 65 -116h-101q-5 30 -27.5 49t-58.5 19q-52 0 -80 -40t-28 -103q0 -62 30 -101t80 -39q39 0 62 22t27 56h99q-3 -72 -51 -115q-54 -49 -138 -49z" />
    <glyph glyph-name="ordfeminine" unicode="&#xaa;" horiz-adv-x="532" 
d="M368 245q-13 18 -16 62h-1q-50 -72 -144 -72q-71 0 -117.5 37t-46.5 102q0 74 50.5 106t145.5 42q64 7 89 19.5t25 41.5q0 65 -81 65q-88 0 -98 -74h-110q5 66 58 110t148 44q85 0 132 -30q64 -41 64 -131v-250q0 -53 17 -65v-7h-115zM238 314q54 0 85.5 30.5t31.5 72.5
v64q-28 -16 -92 -27q-56 -9 -80 -25t-24 -51q0 -64 79 -64z" />
    <glyph glyph-name="guillemotleft" unicode="&#xab;" horiz-adv-x="513" 
d="M445 60l-160 151v123l160 151v-119l-98 -94v-2l98 -94v-116zM227 60l-159 151v123l159 151v-119l-97 -94v-2l97 -94v-116z" />
    <glyph glyph-name="logicalnot" unicode="&#xac;" horiz-adv-x="555" 
d="M58 337v103h426v-274h-109v171h-317z" />
    <glyph glyph-name="uni00AD" unicode="&#xad;" horiz-adv-x="368" 
d="M44 218v112h280v-112h-280z" />
    <glyph glyph-name="registered" unicode="&#xae;" horiz-adv-x="657" 
d="M329 172q-121 0 -205 84t-84 208q0 126 83.5 209.5t205.5 83.5t205 -83.5t83 -209.5q0 -125 -83.5 -208.5t-204.5 -83.5zM329 213q103 0 171.5 71.5t68.5 179.5q0 109 -68 180.5t-172 71.5t-172 -71.5t-68 -180.5q0 -108 68.5 -179.5t171.5 -71.5zM212 315v304h145
q45 0 75 -23.5t30 -63.5q0 -56 -60 -73v-2q26 -7 36.5 -19.5t13.5 -39.5q1 -9 2.5 -21t2 -20.5t2 -16.5t3.5 -13t5 -6v-6h-70q-4 2 -6 10t-4 31.5t-3 29.5q-3 45 -51 45h-49v-116h-72zM284 562v-77h59q48 0 48 39q0 38 -47 38h-60z" />
    <glyph glyph-name="macron" unicode="&#xaf;" 
d="M104 636v94h294v-94h-294z" />
    <glyph glyph-name="degree" unicode="&#xb0;" horiz-adv-x="412" 
d="M206 410q-67 0 -115.5 46t-48.5 112t48.5 113t115.5 47q68 0 116.5 -47t48.5 -113t-48.5 -112t-116.5 -46zM206 479q37 0 60 25.5t23 63.5q0 39 -23 65t-60 26t-60 -26t-23 -65q0 -38 23 -63.5t60 -25.5z" />
    <glyph glyph-name="plusminus" unicode="&#xb1;" horiz-adv-x="604" 
d="M58 342v100h190v170h108v-170h190v-100h-190v-171h-108v171h-190zM58 0v98h488v-98h-488z" />
    <glyph glyph-name="twosuperior" unicode="&#xb2;" horiz-adv-x="416" 
d="M28 287q1 65 33 108.5t88 82.5q15 10 48.5 31t45.5 30.5t24.5 27.5t12.5 38q0 30 -18 48t-50 18q-35 0 -55.5 -23.5t-20.5 -62.5h-100q0 79 48.5 123.5t131.5 44.5q77 0 122.5 -41.5t45.5 -102.5q0 -35 -15 -63.5t-32 -43.5t-49 -37q-13 -9 -45 -28.5t-52 -35t-30 -30.5
h223v-84h-356z" />
    <glyph glyph-name="threesuperior" unicode="&#xb3;" horiz-adv-x="425" 
d="M216 276q-91 0 -142.5 44.5t-52.5 114.5h100q2 -35 24 -57t65 -22q38 0 59 18t21 51q0 65 -87 65h-28v73h25q79 0 79 58q0 27 -19 42.5t-49 15.5q-36 0 -55.5 -20t-21.5 -51h-99q2 64 50 105t129 41q74 0 120 -34.5t46 -93.5q0 -66 -81 -93v-1q97 -24 97 -113
q0 -69 -51 -106t-129 -37z" />
    <glyph glyph-name="acute" unicode="&#xb4;" 
d="M190 618l53 154h150l-105 -154h-98z" />
    <glyph glyph-name="mu" unicode="&#xb5;" horiz-adv-x="587" 
d="M58 -179v713h127v-342q0 -47 26 -73.5t74 -26.5q53 0 85.5 36.5t32.5 92.5v313h126v-534h-123v76h-2q-54 -86 -149 -86q-49 0 -71 24h-2q3 -46 3 -100v-93h-127z" />
    <glyph glyph-name="paragraph" unicode="&#xb6;" horiz-adv-x="589" 
d="M278 358h-37q-95 0 -149.5 52t-54.5 140q0 85 57 142q52 52 154 52h272v-884h-81v794h-81v-794h-80v498z" />
    <glyph glyph-name="periodcentered" unicode="&#xb7;" horiz-adv-x="246" 
d="M53 258v140h140v-140h-140z" />
    <glyph glyph-name="cedilla" unicode="&#xb8;" 
d="M227 -209q-66 0 -112 30l18 36q34 -16 72 -16q55 0 55 34q0 30 -38 30q-19 0 -38 -7l-17 26l72 76h64l-63 -55v-2q42 6 75 -12t33 -59q0 -38 -33.5 -59.5t-87.5 -21.5z" />
    <glyph glyph-name="onesuperior" unicode="&#xb9;" horiz-adv-x="314" 
d="M143 287v298h-114v71q118 3 133 93h87v-462h-106z" />
    <glyph glyph-name="ordmasculine" unicode="&#xba;" horiz-adv-x="553" 
d="M277 232q-108 0 -174 70.5t-66 176.5q0 107 66 178t174 71t173.5 -71t65.5 -178t-65.5 -177t-173.5 -70zM277 318q57 0 88 44.5t31 116.5q0 73 -31 118t-88 45q-59 0 -89.5 -44.5t-30.5 -118.5q0 -73 30.5 -117t89.5 -44z" />
    <glyph glyph-name="guillemotright" unicode="&#xbb;" horiz-adv-x="513" 
d="M68 485l159 -152v-123l-159 -150v118l98 94v2l-98 94v117zM285 485l160 -152v-123l-160 -150v118l98 94v2l-98 94v117z" />
    <glyph glyph-name="onequarter" unicode="&#xbc;" horiz-adv-x="874" 
d="M678 -110v100h-222v92l223 270h104v-286h69v-76h-69v-100h-105zM56 -130l637 874h96l-638 -874h-95zM146 287v298h-114v71q118 3 133 93h87v-462h-106zM524 61q46 5 75 5h79v111l7 76h-2q-27 -42 -47 -65l-55 -68q-9 -11 -23.5 -25.5t-23.5 -22.5l-10 -9v-2z" />
    <glyph glyph-name="onehalf" unicode="&#xbd;" horiz-adv-x="920" 
d="M528 -110q1 65 33 108.5t88 81.5q15 11 48 31.5t45.5 30.5t25 28t12.5 38q0 30 -18 48t-50 18q-35 0 -55.5 -23.5t-20.5 -62.5h-100q0 78 49 123t131 45q77 0 122.5 -41.5t45.5 -102.5q0 -35 -15 -63.5t-32 -43.5t-49 -37q-13 -9 -45 -28.5t-52 -35t-30 -30.5h223v-84
h-356zM146 287v298h-114v71q118 3 133 93h87v-462h-106zM52 -130l637 874h96l-638 -874h-95z" />
    <glyph glyph-name="threequarters" unicode="&#xbe;" horiz-adv-x="962" 
d="M766 -110v100h-222v92l223 270h104v-286h69v-76h-69v-100h-105zM219 276q-91 0 -142.5 44.5t-52.5 114.5h100q2 -35 24 -57t65 -22q38 0 59 18t21 51q0 65 -87 65h-28v73h25q79 0 79 58q0 27 -19 42.5t-49 15.5q-36 0 -55.5 -20t-21.5 -51h-99q2 64 50 105t129 41
q74 0 120 -34.5t46 -93.5q0 -66 -81 -93v-1q97 -24 97 -113q0 -69 -51 -106t-129 -37zM140 -130l637 874h96l-638 -874h-95zM612 61q46 5 75 5h79v111l7 76h-2q-27 -42 -47 -65l-55 -68q-9 -11 -23.5 -25.5t-23.5 -22.5l-10 -9v-2z" />
    <glyph glyph-name="questiondown" unicode="&#xbf;" horiz-adv-x="565" 
d="M369 612v-139h-140v139h140zM355 373q0 -66 -19.5 -105.5t-70.5 -83.5q-8 -7 -27 -22t-28 -23.5t-21 -22.5t-17 -29t-5 -32q0 -41 31 -66.5t82 -25.5q61 0 97 36.5t38 95.5h126q-3 -102 -72 -171t-193 -69q-110 0 -176 55t-66 142q0 94 83 160q14 11 33 25.5t29 22.5
t20.5 17.5t17.5 17.5q23 28 23 78h115z" />
    <glyph glyph-name="Agrave" unicode="&#xc0;" horiz-adv-x="718" 
d="M14 0l270 744h148l271 -744h-148l-59 177h-282l-60 -177h-140zM307 451l-59 -172h214l-57 172q-13 39 -24.5 84t-16.5 70l-6 25h-2q-25 -108 -49 -179zM306 785l-100 128h154l47 -128h-101z" />
    <glyph glyph-name="Aacute" unicode="&#xc1;" horiz-adv-x="718" 
d="M14 0l270 744h148l271 -744h-148l-59 177h-282l-60 -177h-140zM307 451l-59 -172h214l-57 172q-13 39 -24.5 84t-16.5 70l-6 25h-2q-25 -108 -49 -179zM301 785l48 128h154l-100 -128h-102z" />
    <glyph glyph-name="Acircumflex" unicode="&#xc2;" horiz-adv-x="718" 
d="M14 0l270 744h148l271 -744h-148l-59 177h-282l-60 -177h-140zM307 451l-59 -172h214l-57 172q-13 39 -24.5 84t-16.5 70l-6 25h-2q-25 -108 -49 -179zM188 785l105 123h129l104 -123h-117l-50 59h-2l-52 -59h-117z" />
    <glyph glyph-name="Atilde" unicode="&#xc3;" horiz-adv-x="718" 
d="M14 0l270 744h148l271 -744h-148l-59 177h-282l-60 -177h-140zM307 451l-59 -172h214l-57 172q-13 39 -24.5 84t-16.5 70l-6 25h-2q-25 -108 -49 -179zM428 786q-32 0 -74 20t-53 20q-12 0 -21.5 -11t-10.5 -29h-75q1 60 27.5 92.5t69.5 32.5q33 0 71.5 -19.5t53.5 -19.5
q26 0 31 37h76q-2 -58 -26 -90.5t-69 -32.5z" />
    <glyph glyph-name="Adieresis" unicode="&#xc4;" horiz-adv-x="718" 
d="M14 0l270 744h148l271 -744h-148l-59 177h-282l-60 -177h-140zM307 451l-59 -172h214l-57 172q-13 39 -24.5 84t-16.5 70l-6 25h-2q-25 -108 -49 -179zM409 785v122h125v-122h-125zM184 785v122h125v-122h-125z" />
    <glyph glyph-name="Aring" unicode="&#xc5;" horiz-adv-x="718" 
d="M14 0l270 744h148l271 -744h-148l-59 177h-282l-60 -177h-140zM360 777q-46 0 -78 30.5t-32 75.5q0 44 32 74.5t78 30.5q44 0 76 -31t32 -74q0 -45 -31.5 -75.5t-76.5 -30.5zM307 451l-59 -172h214l-57 172q-13 39 -24.5 84t-16.5 70l-6 25h-2q-25 -108 -49 -179z
M360 827q23 0 38 16t15 40t-15 40t-38 16q-24 0 -39.5 -16t-15.5 -40t15.5 -40t39.5 -16z" />
    <glyph glyph-name="AE" unicode="&#xc6;" horiz-adv-x="1029" 
d="M972 744v-118h-372v-185h326v-111h-326v-206h384v-124h-524v179h-244l-61 -179h-138l261 744h694zM368 626l-117 -345h209v345h-92z" />
    <glyph glyph-name="Ccedilla" unicode="&#xc7;" horiz-adv-x="752" 
d="M359 -209q-66 0 -112 30l18 36q34 -16 72 -16q55 0 55 34q0 30 -38 30q-19 0 -38 -7l-17 26l58 62q-143 14 -230 120t-87 264q0 169 98 278.5t261 109.5q126 0 206 -61q91 -71 105 -192h-138q-10 61 -56 98.5t-118 37.5q-103 0 -160 -75.5t-57 -195.5t59.5 -194.5
t158.5 -74.5q80 0 127 46.5t53 117.5h139q-2 -55 -26.5 -108t-63.5 -91q-77 -77 -211 -81l-45 -40v-2q42 6 75 -12t33 -59q0 -38 -33.5 -59.5t-87.5 -21.5z" />
    <glyph glyph-name="Egrave" unicode="&#xc8;" horiz-adv-x="668" 
d="M70 0v744h544v-118h-406v-184h359v-111h-359v-210h415v-121h-553zM300 785l-100 128h154l47 -128h-101z" />
    <glyph glyph-name="Eacute" unicode="&#xc9;" horiz-adv-x="668" 
d="M70 0v744h544v-118h-406v-184h359v-111h-359v-210h415v-121h-553zM295 785l48 128h154l-100 -128h-102z" />
    <glyph glyph-name="Ecircumflex" unicode="&#xca;" horiz-adv-x="668" 
d="M70 0v744h544v-118h-406v-184h359v-111h-359v-210h415v-121h-553zM181 785l105 123h129l104 -123h-117l-50 59h-2l-52 -59h-117z" />
    <glyph glyph-name="Edieresis" unicode="&#xcb;" horiz-adv-x="668" 
d="M70 0v744h544v-118h-406v-184h359v-111h-359v-210h415v-121h-553zM178 785v122h125v-122h-125zM403 785v122h125v-122h-125z" />
    <glyph glyph-name="Igrave" unicode="&#xcc;" horiz-adv-x="280" 
d="M70 0v744h139v-744h-139zM88 785l-100 128h154l47 -128h-101z" />
    <glyph glyph-name="Iacute" unicode="&#xcd;" horiz-adv-x="280" 
d="M70 0v744h139v-744h-139zM83 785l48 128h154l-100 -128h-102z" />
    <glyph glyph-name="Icircumflex" unicode="&#xce;" horiz-adv-x="280" 
d="M70 0v744h139v-744h-139zM-31 785l105 123h129l104 -123h-117l-50 59h-2l-52 -59h-117z" />
    <glyph glyph-name="Idieresis" unicode="&#xcf;" horiz-adv-x="280" 
d="M70 0v744h139v-744h-139zM180 785v122h119v-122h-119zM-20 785v122h120v-122h-120z" />
    <glyph glyph-name="Eth" unicode="&#xd0;" horiz-adv-x="747" 
d="M11 320v111h66v313h294q160 0 249 -102t89 -274q0 -170 -90 -269t-257 -99h-285v320h-66zM216 118h138q108 0 160.5 65t52.5 185q0 121 -51.5 189.5t-157.5 68.5h-142v-195h189v-111h-189v-202z" />
    <glyph glyph-name="Ntilde" unicode="&#xd1;" horiz-adv-x="747" 
d="M451 786q-32 0 -74 20t-53 20q-12 0 -21.5 -11t-10.5 -29h-75q1 60 27.5 92.5t69.5 32.5q33 0 71.5 -19.5t53.5 -19.5q26 0 31 37h76q-2 -58 -26 -90.5t-69 -32.5zM70 0v744h142l247 -390q18 -29 41 -72t38 -72l14 -29h3q-8 116 -8 190v373h131v-744h-142l-246 388
q-18 29 -41.5 72.5t-38.5 72.5l-14 29h-2q7 -116 7 -190v-372h-131z" />
    <glyph glyph-name="Ograve" unicode="&#xd2;" horiz-adv-x="812" 
d="M353 785l-100 128h154l47 -128h-101zM406 -17q-166 0 -266 109t-100 278q0 170 100 279t266 109t266 -109t100 -279q0 -169 -100 -278t-266 -109zM407 100q107 0 165 75t58 195q0 121 -58 197.5t-165 76.5t-166.5 -76.5t-59.5 -197.5q0 -120 59 -195t167 -75z" />
    <glyph glyph-name="Oacute" unicode="&#xd3;" horiz-adv-x="812" 
d="M348 785l48 128h154l-100 -128h-102zM406 -17q-166 0 -266 109t-100 278q0 170 100 279t266 109t266 -109t100 -279q0 -169 -100 -278t-266 -109zM407 100q107 0 165 75t58 195q0 121 -58 197.5t-165 76.5t-166.5 -76.5t-59.5 -197.5q0 -120 59 -195t167 -75z" />
    <glyph glyph-name="Ocircumflex" unicode="&#xd4;" horiz-adv-x="812" 
d="M406 -17q-166 0 -266 109t-100 278q0 170 100 279t266 109t266 -109t100 -279q0 -169 -100 -278t-266 -109zM407 100q107 0 165 75t58 195q0 121 -58 197.5t-165 76.5t-166.5 -76.5t-59.5 -197.5q0 -120 59 -195t167 -75zM234 785l105 123h129l104 -123h-117l-50 59h-2
l-52 -59h-117z" />
    <glyph glyph-name="Otilde" unicode="&#xd5;" horiz-adv-x="812" 
d="M475 786q-32 0 -74 20t-53 20q-12 0 -21.5 -11t-10.5 -29h-75q1 60 27.5 92.5t69.5 32.5q33 0 71.5 -19.5t53.5 -19.5q26 0 31 37h76q-2 -58 -26 -90.5t-69 -32.5zM406 -17q-166 0 -266 109t-100 278q0 170 100 279t266 109t266 -109t100 -279q0 -169 -100 -278
t-266 -109zM407 100q107 0 165 75t58 195q0 121 -58 197.5t-165 76.5t-166.5 -76.5t-59.5 -197.5q0 -120 59 -195t167 -75z" />
    <glyph glyph-name="Odieresis" unicode="&#xd6;" horiz-adv-x="812" 
d="M456 785v122h125v-122h-125zM231 785v122h125v-122h-125zM406 -17q-166 0 -266 109t-100 278q0 170 100 279t266 109t266 -109t100 -279q0 -169 -100 -278t-266 -109zM407 100q107 0 165 75t58 195q0 121 -58 197.5t-165 76.5t-166.5 -76.5t-59.5 -197.5q0 -120 59 -195
t167 -75z" />
    <glyph glyph-name="multiply" unicode="&#xd7;" horiz-adv-x="603" 
d="M137 104l-70 69l165 166l-164 165l70 70l163 -165l164 165l71 -70l-165 -165l165 -165l-71 -70l-164 165z" />
    <glyph glyph-name="Oslash" unicode="&#xd8;" horiz-adv-x="812" 
d="M77 -42l-51 46l97 107q-83 103 -83 259q0 170 100 279t266 109q139 0 235 -80l88 97l52 -45l-92 -101q83 -106 83 -259q0 -169 -100 -278t-266 -109q-139 0 -235 79zM181 370q0 -94 34 -159l342 375q-56 58 -150 58q-107 0 -166.5 -76.5t-59.5 -197.5zM407 100
q107 0 165 75t58 195q0 92 -33 159l-341 -374q58 -55 151 -55z" />
    <glyph glyph-name="Ugrave" unicode="&#xd9;" horiz-adv-x="715" 
d="M309 785l-100 128h154l47 -128h-101zM358 -13q-142 0 -220 67t-78 197v493h138v-491q0 -151 161 -151q76 0 117 39t41 114v489h139v-493q0 -129 -79 -196.5t-219 -67.5z" />
    <glyph glyph-name="Uacute" unicode="&#xda;" horiz-adv-x="715" 
d="M303 785l48 128h154l-100 -128h-102zM358 -13q-142 0 -220 67t-78 197v493h138v-491q0 -151 161 -151q76 0 117 39t41 114v489h139v-493q0 -129 -79 -196.5t-219 -67.5z" />
    <glyph glyph-name="Ucircumflex" unicode="&#xdb;" horiz-adv-x="715" 
d="M358 -13q-142 0 -220 67t-78 197v493h138v-491q0 -151 161 -151q76 0 117 39t41 114v489h139v-493q0 -129 -79 -196.5t-219 -67.5zM186 785l105 123h129l104 -123h-117l-50 59h-2l-52 -59h-117z" />
    <glyph glyph-name="Udieresis" unicode="&#xdc;" horiz-adv-x="715" 
d="M407 785v122h125v-122h-125zM182 785v122h125v-122h-125zM358 -13q-142 0 -220 67t-78 197v493h138v-491q0 -151 161 -151q76 0 117 39t41 114v489h139v-493q0 -129 -79 -196.5t-219 -67.5z" />
    <glyph glyph-name="Yacute" unicode="&#xdd;" horiz-adv-x="692" 
d="M275 0v294l-261 450h153l105 -188q15 -27 33.5 -66.5t29.5 -65.5l11 -27h2q42 98 75 159l106 188h147l-262 -452v-292h-139zM289 785l48 128h154l-100 -128h-102z" />
    <glyph glyph-name="Thorn" unicode="&#xde;" horiz-adv-x="668" 
d="M70 0v744h140v-117h182q125 0 189 -72q63 -65 63 -162q0 -106 -65 -168.5t-181 -62.5h-188v-162h-140zM378 507h-168v-234h166q62 0 95.5 31.5t33.5 86.5q0 56 -33 86t-94 30z" />
    <glyph glyph-name="germandbls" unicode="&#xdf;" horiz-adv-x="579" 
d="M313 -10q-33 0 -61 7v96h3q77 -11 122 25.5t45 114.5q0 68 -36 105t-105 37h-25v81h19q53 0 85.5 27.5t32.5 76.5q0 43 -26.5 69.5t-73.5 26.5q-51 0 -79.5 -29.5t-28.5 -81.5v-545h-127v550q0 94 63 149.5t172 55.5q97 0 158.5 -51.5t61.5 -134.5q0 -109 -114 -145v-3
q72 -18 110.5 -67.5t38.5 -126.5q0 -111 -64.5 -174t-170.5 -63z" />
    <glyph glyph-name="agrave" unicode="&#xe0;" horiz-adv-x="566" 
d="M404 0q-15 20 -18 69h-2q-61 -82 -168 -82q-81 0 -131.5 41t-50.5 117q0 44 15.5 74.5t47.5 48t67.5 27t88.5 15.5q71 9 101.5 24t30.5 49q0 35 -24.5 56t-71.5 21q-104 0 -109 -86h-120q3 74 61.5 124t166.5 50q94 0 143 -31q76 -46 76 -152v-281q0 -62 20 -75v-9h-123z
M253 74q62 0 98.5 36t36.5 84v79q-31 -20 -104 -35q-66 -13 -94.5 -31t-28.5 -59q0 -74 92 -74zM243 618l-106 154h151l53 -154h-98z" />
    <glyph glyph-name="aacute" unicode="&#xe1;" horiz-adv-x="566" 
d="M404 0q-15 20 -18 69h-2q-61 -82 -168 -82q-81 0 -131.5 41t-50.5 117q0 44 15.5 74.5t47.5 48t67.5 27t88.5 15.5q71 9 101.5 24t30.5 49q0 35 -24.5 56t-71.5 21q-104 0 -109 -86h-120q3 74 61.5 124t166.5 50q94 0 143 -31q76 -46 76 -152v-281q0 -62 20 -75v-9h-123z
M253 74q62 0 98.5 36t36.5 84v79q-31 -20 -104 -35q-66 -13 -94.5 -31t-28.5 -59q0 -74 92 -74zM233 618l53 154h150l-105 -154h-98z" />
    <glyph glyph-name="acircumflex" unicode="&#xe2;" horiz-adv-x="566" 
d="M404 0q-15 20 -18 69h-2q-61 -82 -168 -82q-81 0 -131.5 41t-50.5 117q0 44 15.5 74.5t47.5 48t67.5 27t88.5 15.5q71 9 101.5 24t30.5 49q0 35 -24.5 56t-71.5 21q-104 0 -109 -86h-120q3 74 61.5 124t166.5 50q94 0 143 -31q76 -46 76 -152v-281q0 -62 20 -75v-9h-123z
M253 74q62 0 98.5 36t36.5 84v79q-31 -20 -104 -35q-66 -13 -94.5 -31t-28.5 -59q0 -74 92 -74zM117 621l103 136h129l102 -136h-116l-49 77h-2l-51 -77h-116z" />
    <glyph glyph-name="atilde" unicode="&#xe3;" horiz-adv-x="566" 
d="M404 0q-15 20 -18 69h-2q-61 -82 -168 -82q-81 0 -131.5 41t-50.5 117q0 44 15.5 74.5t47.5 48t67.5 27t88.5 15.5q71 9 101.5 24t30.5 49q0 35 -24.5 56t-71.5 21q-104 0 -109 -86h-120q3 74 61.5 124t166.5 50q94 0 143 -31q76 -46 76 -152v-281q0 -62 20 -75v-9h-123z
M253 74q62 0 98.5 36t36.5 84v79q-31 -20 -104 -35q-66 -13 -94.5 -31t-28.5 -59q0 -74 92 -74zM356 621q-32 0 -74 20t-53 20q-13 0 -22.5 -11t-10.5 -29h-74q1 60 27.5 92.5t69.5 32.5q33 0 72 -20t54 -20q26 0 31 38h75q-2 -58 -26 -90.5t-69 -32.5z" />
    <glyph glyph-name="adieresis" unicode="&#xe4;" horiz-adv-x="566" 
d="M404 0q-15 20 -18 69h-2q-61 -82 -168 -82q-81 0 -131.5 41t-50.5 117q0 44 15.5 74.5t47.5 48t67.5 27t88.5 15.5q71 9 101.5 24t30.5 49q0 35 -24.5 56t-71.5 21q-104 0 -109 -86h-120q3 74 61.5 124t166.5 50q94 0 143 -31q76 -46 76 -152v-281q0 -62 20 -75v-9h-123z
M253 74q62 0 98.5 36t36.5 84v79q-31 -20 -104 -35q-66 -13 -94.5 -31t-28.5 -59q0 -74 92 -74zM336 621v123h122v-123h-122zM114 621v123h122v-123h-122z" />
    <glyph glyph-name="aring" unicode="&#xe5;" horiz-adv-x="566" 
d="M404 0q-15 20 -18 69h-2q-61 -82 -168 -82q-81 0 -131.5 41t-50.5 117q0 44 15.5 74.5t47.5 48t67.5 27t88.5 15.5q71 9 101.5 24t30.5 49q0 35 -24.5 56t-71.5 21q-104 0 -109 -86h-120q3 74 61.5 124t166.5 50q94 0 143 -31q76 -46 76 -152v-281q0 -62 20 -75v-9h-123z
M287 597q-46 0 -78 30.5t-32 75.5q0 44 32 75t78 31q44 0 76 -31.5t32 -74.5q0 -45 -31.5 -75.5t-76.5 -30.5zM253 74q62 0 98.5 36t36.5 84v79q-31 -20 -104 -35q-66 -13 -94.5 -31t-28.5 -59q0 -74 92 -74zM287 647q23 0 38 16t15 40t-15 40.5t-38 16.5q-24 0 -39.5 -16.5
t-15.5 -40.5t15.5 -40t39.5 -16z" />
    <glyph glyph-name="ae" unicode="&#xe6;" horiz-adv-x="926" 
d="M234 -14q-93 0 -145.5 41t-52.5 118q0 44 15.5 74.5t47.5 48t67.5 27t88.5 15.5q71 9 101.5 24t30.5 48q0 36 -24.5 57t-71.5 21q-104 0 -110 -86h-119q3 74 61.5 124t166.5 50q133 0 180 -76q65 76 173 76q110 0 178 -74q76 -80 74 -239h-385q6 -72 42 -113t101 -41
q84 0 110 70h124q-19 -76 -80.5 -121.5t-154.5 -45.5q-143 0 -207 111q-40 -57 -90 -83t-121 -26zM254 74q63 0 99.5 36t36.5 84v78q-32 -20 -105 -34q-65 -13 -93.5 -31t-28.5 -59q0 -74 91 -74zM642 456q-113 0 -131 -141h253q-3 66 -36 103.5t-86 37.5z" />
    <glyph glyph-name="ccedilla" unicode="&#xe7;" horiz-adv-x="569" 
d="M265 -209q-66 0 -112 30l18 36q34 -16 72 -16q55 0 55 34q0 30 -38 30q-19 0 -38 -7l-17 26l59 63q-106 13 -169.5 90.5t-63.5 188.5q0 122 74 202t195 80q100 0 163 -52t78 -140h-124q-9 44 -39 69.5t-77 25.5q-68 0 -104.5 -50.5t-36.5 -134.5q0 -82 36.5 -132.5
t104.5 -50.5q52 0 83 29t36 82h124q-6 -90 -65 -146.5t-156 -62.5l-45 -40v-2q42 6 75 -12t33 -59q0 -38 -33.5 -59.5t-87.5 -21.5z" />
    <glyph glyph-name="egrave" unicode="&#xe8;" horiz-adv-x="587" 
d="M303 -16q-124 0 -198 80t-74 202q0 121 74 201.5t191 80.5q114 0 184 -75q78 -82 76 -238h-399q7 -71 44.5 -112.5t102.5 -41.5q91 0 118 70h124q-20 -75 -84 -121t-159 -46zM296 456q-60 0 -94 -37.5t-43 -103.5h266q-4 66 -38 103.5t-91 37.5zM254 618l-106 154h151
l53 -154h-98z" />
    <glyph glyph-name="eacute" unicode="&#xe9;" horiz-adv-x="587" 
d="M303 -16q-124 0 -198 80t-74 202q0 121 74 201.5t191 80.5q114 0 184 -75q78 -82 76 -238h-399q7 -71 44.5 -112.5t102.5 -41.5q91 0 118 70h124q-20 -75 -84 -121t-159 -46zM296 456q-60 0 -94 -37.5t-43 -103.5h266q-4 66 -38 103.5t-91 37.5zM244 618l53 154h150
l-105 -154h-98z" />
    <glyph glyph-name="ecircumflex" unicode="&#xea;" horiz-adv-x="587" 
d="M303 -16q-124 0 -198 80t-74 202q0 121 74 201.5t191 80.5q114 0 184 -75q78 -82 76 -238h-399q7 -71 44.5 -112.5t102.5 -41.5q91 0 118 70h124q-20 -75 -84 -121t-159 -46zM296 456q-60 0 -94 -37.5t-43 -103.5h266q-4 66 -38 103.5t-91 37.5zM128 621l103 136h129
l102 -136h-116l-49 77h-2l-51 -77h-116z" />
    <glyph glyph-name="edieresis" unicode="&#xeb;" horiz-adv-x="587" 
d="M303 -16q-124 0 -198 80t-74 202q0 121 74 201.5t191 80.5q114 0 184 -75q78 -82 76 -238h-399q7 -71 44.5 -112.5t102.5 -41.5q91 0 118 70h124q-20 -75 -84 -121t-159 -46zM296 456q-60 0 -94 -37.5t-43 -103.5h266q-4 66 -38 103.5t-91 37.5zM125 621v123h122v-123
h-122zM347 621v123h122v-123h-122z" />
    <glyph glyph-name="igrave" unicode="&#xec;" horiz-adv-x="242" 
d="M58 0v534h127v-534h-127zM79 618l-106 154h151l53 -154h-98z" />
    <glyph glyph-name="iacute" unicode="&#xed;" horiz-adv-x="242" 
d="M69 618l53 154h150l-105 -154h-98zM58 0v534h127v-534h-127z" />
    <glyph glyph-name="icircumflex" unicode="&#xee;" horiz-adv-x="242" 
d="M-47 621l103 136h129l102 -136h-116l-49 77h-2l-51 -77h-116zM58 0v534h127v-534h-127z" />
    <glyph glyph-name="idieresis" unicode="&#xef;" horiz-adv-x="242" 
d="M58 0v534h127v-534h-127zM151 621v123h111v-123h-111zM-20 621v123h111v-123h-111z" />
    <glyph glyph-name="eth" unicode="&#xf0;" horiz-adv-x="607" 
d="M182 571l-23 56l115 35q-34 28 -97 75v7h157q31 -21 59 -45l105 32l24 -55l-81 -25q134 -151 134 -349q0 -142 -69 -230t-202 -88q-122 0 -197.5 81t-75.5 201t67 197.5t177 77.5q89 0 138 -58h3q-31 70 -91 132zM303 80q68 0 105 52t37 136q0 83 -37.5 133t-106.5 50
q-68 0 -104.5 -50.5t-36.5 -134.5t37 -135t106 -51z" />
    <glyph glyph-name="ntilde" unicode="&#xf1;" horiz-adv-x="589" 
d="M182 534v-78h3q55 92 166 92q86 0 135 -50t49 -136v-362h-127v341q0 48 -27 75t-75 27q-53 0 -87 -36.5t-34 -93.5v-313h-127v534h124zM368 621q-32 0 -74 20t-53 20q-13 0 -22.5 -11t-10.5 -29h-74q1 60 27.5 92.5t69.5 32.5q33 0 72 -20t54 -20q26 0 31 38h75
q-2 -58 -26 -90.5t-69 -32.5z" />
    <glyph glyph-name="ograve" unicode="&#xf2;" horiz-adv-x="606" 
d="M304 -16q-122 0 -197.5 80.5t-75.5 201.5t75.5 201.5t197.5 80.5t196.5 -80t74.5 -202q0 -121 -74.5 -201.5t-196.5 -80.5zM303 80q68 0 105.5 51.5t37.5 134.5q0 84 -37.5 136t-105.5 52t-105.5 -52t-37.5 -136q0 -83 37.5 -134.5t105.5 -51.5zM260 618l-106 154h151
l53 -154h-98z" />
    <glyph glyph-name="oacute" unicode="&#xf3;" horiz-adv-x="606" 
d="M250 618l53 154h150l-105 -154h-98zM304 -16q-122 0 -197.5 80.5t-75.5 201.5t75.5 201.5t197.5 80.5t196.5 -80t74.5 -202q0 -121 -74.5 -201.5t-196.5 -80.5zM303 80q68 0 105.5 51.5t37.5 134.5q0 84 -37.5 136t-105.5 52t-105.5 -52t-37.5 -136q0 -83 37.5 -134.5
t105.5 -51.5z" />
    <glyph glyph-name="ocircumflex" unicode="&#xf4;" horiz-adv-x="606" 
d="M134 621l103 136h129l102 -136h-116l-49 77h-2l-51 -77h-116zM304 -16q-122 0 -197.5 80.5t-75.5 201.5t75.5 201.5t197.5 80.5t196.5 -80t74.5 -202q0 -121 -74.5 -201.5t-196.5 -80.5zM303 80q68 0 105.5 51.5t37.5 134.5q0 84 -37.5 136t-105.5 52t-105.5 -52
t-37.5 -136q0 -83 37.5 -134.5t105.5 -51.5z" />
    <glyph glyph-name="otilde" unicode="&#xf5;" horiz-adv-x="606" 
d="M304 -16q-122 0 -197.5 80.5t-75.5 201.5t75.5 201.5t197.5 80.5t196.5 -80t74.5 -202q0 -121 -74.5 -201.5t-196.5 -80.5zM303 80q68 0 105.5 51.5t37.5 134.5q0 84 -37.5 136t-105.5 52t-105.5 -52t-37.5 -136q0 -83 37.5 -134.5t105.5 -51.5zM373 621q-32 0 -74 20
t-53 20q-13 0 -22.5 -11t-10.5 -29h-74q1 60 27.5 92.5t69.5 32.5q33 0 72 -20t54 -20q26 0 31 38h75q-2 -58 -26 -90.5t-69 -32.5z" />
    <glyph glyph-name="odieresis" unicode="&#xf6;" horiz-adv-x="606" 
d="M353 621v123h122v-123h-122zM131 621v123h122v-123h-122zM304 -16q-122 0 -197.5 80.5t-75.5 201.5t75.5 201.5t197.5 80.5t196.5 -80t74.5 -202q0 -121 -74.5 -201.5t-196.5 -80.5zM303 80q68 0 105.5 51.5t37.5 134.5q0 84 -37.5 136t-105.5 52t-105.5 -52t-37.5 -136
q0 -83 37.5 -134.5t105.5 -51.5z" />
    <glyph glyph-name="divide" unicode="&#xf7;" horiz-adv-x="602" 
d="M232 472v130h139v-130h-139zM61 290v102h480v-102h-480zM232 80v129h139v-129h-139z" />
    <glyph glyph-name="oslash" unicode="&#xf8;" horiz-adv-x="606" 
d="M62 -44l-43 38l76 83q-64 78 -64 189q0 121 75.5 201.5t197.5 80.5q99 0 169 -56l70 77l43 -38l-72 -79q61 -77 61 -186q0 -121 -74.5 -201.5t-196.5 -80.5q-96 0 -168 53zM158 266q0 -57 17 -100l226 248q-36 41 -98 41q-69 0 -107 -52.5t-38 -136.5zM303 80
q68 0 106 51.5t38 134.5q0 54 -15 96l-224 -246q36 -36 95 -36z" />
    <glyph glyph-name="ugrave" unicode="&#xf9;" horiz-adv-x="583" 
d="M525 0h-123v76h-2q-61 -90 -161 -90q-87 0 -136 50.5t-49 137.5v360h127v-342q0 -47 26 -73.5t74 -26.5q53 0 85.5 36.5t32.5 92.5v313h126v-534zM246 618l-106 154h151l53 -154h-98z" />
    <glyph glyph-name="uacute" unicode="&#xfa;" horiz-adv-x="583" 
d="M525 0h-123v76h-2q-61 -90 -161 -90q-87 0 -136 50.5t-49 137.5v360h127v-342q0 -47 26 -73.5t74 -26.5q53 0 85.5 36.5t32.5 92.5v313h126v-534zM236 618l53 154h150l-105 -154h-98z" />
    <glyph glyph-name="ucircumflex" unicode="&#xfb;" horiz-adv-x="583" 
d="M525 0h-123v76h-2q-61 -90 -161 -90q-87 0 -136 50.5t-49 137.5v360h127v-342q0 -47 26 -73.5t74 -26.5q53 0 85.5 36.5t32.5 92.5v313h126v-534zM120 621l103 136h129l102 -136h-116l-49 77h-2l-51 -77h-116z" />
    <glyph glyph-name="udieresis" unicode="&#xfc;" horiz-adv-x="583" 
d="M525 0h-123v76h-2q-61 -90 -161 -90q-87 0 -136 50.5t-49 137.5v360h127v-342q0 -47 26 -73.5t74 -26.5q53 0 85.5 36.5t32.5 92.5v313h126v-534zM117 621v123h122v-123h-122zM339 621v123h122v-123h-122z" />
    <glyph glyph-name="yacute" unicode="&#xfd;" horiz-adv-x="539" 
d="M150 -182q-75 0 -93 6v103h7q8 -5 53 -5q63 0 78 59q0 1 0.5 14t0.5 24t-1.5 26t-5.5 25l-184 464h135l88 -248q10 -29 21.5 -70.5t17.5 -68.5l6 -27h2q24 101 46 166l85 248h128l-207 -564q-32 -87 -71 -119.5t-106 -32.5zM220 618l53 154h150l-105 -154h-98z" />
    <glyph glyph-name="thorn" unicode="&#xfe;" horiz-adv-x="610" 
d="M348 -17q-112 0 -164 85h-3q4 -40 4 -104v-139h-127v919h127v-176q0 -57 -4 -113h3q58 93 166 93q104 0 167 -77t63 -205q0 -129 -63 -206t-169 -77zM322 84q62 0 95.5 49t33.5 130q0 82 -33.5 132t-96.5 50q-69 0 -105 -51t-36 -131t36 -129.5t106 -49.5z" />
    <glyph glyph-name="ydieresis" unicode="&#xff;" horiz-adv-x="539" 
d="M150 -182q-75 0 -93 6v103h7q8 -5 53 -5q63 0 78 59q0 1 0.5 14t0.5 24t-1.5 26t-5.5 25l-184 464h135l88 -248q10 -29 21.5 -70.5t17.5 -68.5l6 -27h2q24 101 46 166l85 248h128l-207 -564q-32 -87 -71 -119.5t-106 -32.5zM323 621v123h122v-123h-122zM101 621v123h122
v-123h-122z" />
    <glyph glyph-name="Amacron" unicode="&#x100;" horiz-adv-x="718" 
d="M14 0l270 744h148l271 -744h-148l-59 177h-282l-60 -177h-140zM307 451l-59 -172h214l-57 172q-13 39 -24.5 84t-16.5 70l-6 25h-2q-25 -108 -49 -179zM209 792v94h299v-94h-299z" />
    <glyph glyph-name="amacron" unicode="&#x101;" horiz-adv-x="566" 
d="M404 0q-15 20 -18 69h-2q-61 -82 -168 -82q-81 0 -131.5 41t-50.5 117q0 44 15.5 74.5t47.5 48t67.5 27t88.5 15.5q71 9 101.5 24t30.5 49q0 35 -24.5 56t-71.5 21q-104 0 -109 -86h-120q3 74 61.5 124t166.5 50q94 0 143 -31q76 -46 76 -152v-281q0 -62 20 -75v-9h-123z
M253 74q62 0 98.5 36t36.5 84v79q-31 -20 -104 -35q-66 -13 -94.5 -31t-28.5 -59q0 -74 92 -74zM138 636v94h294v-94h-294z" />
    <glyph glyph-name="Abreve" unicode="&#x102;" horiz-adv-x="718" 
d="M14 0l270 744h148l271 -744h-148l-59 177h-282l-60 -177h-140zM307 451l-59 -172h214l-57 172q-13 39 -24.5 84t-16.5 70l-6 25h-2q-25 -108 -49 -179zM360 779q-64 0 -106 37.5t-45 98.5h79q12 -52 71 -52q58 0 71 52h77q-2 -59 -42.5 -97.5t-104.5 -38.5z" />
    <glyph glyph-name="abreve" unicode="&#x103;" horiz-adv-x="566" 
d="M404 0q-15 20 -18 69h-2q-61 -82 -168 -82q-81 0 -131.5 41t-50.5 117q0 44 15.5 74.5t47.5 48t67.5 27t88.5 15.5q71 9 101.5 24t30.5 49q0 35 -24.5 56t-71.5 21q-104 0 -109 -86h-120q3 74 61.5 124t166.5 50q94 0 143 -31q76 -46 76 -152v-281q0 -62 20 -75v-9h-123z
M253 74q62 0 98.5 36t36.5 84v79q-31 -20 -104 -35q-66 -13 -94.5 -31t-28.5 -59q0 -74 92 -74zM288 613q-64 0 -106.5 38.5t-45.5 103.5h79q8 -59 72 -59q30 0 49 16t23 43h77q-2 -63 -42.5 -102.5t-105.5 -39.5z" />
    <glyph glyph-name="Aogonek" unicode="&#x104;" horiz-adv-x="718" 
d="M637 -187q-57 0 -87 23t-30 63q0 64 79 101h-44l-60 177h-281l-60 -177h-140l270 744h148l270 -741q-35 -17 -54.5 -40t-19.5 -43q0 -31 37 -31q20 0 35 5h3v-72q-23 -9 -66 -9zM307 451l-58 -172h213l-57 172q-13 39 -24.5 84t-16.5 70l-6 25h-2q-25 -108 -49 -179z" />
    <glyph glyph-name="aogonek" unicode="&#x105;" horiz-adv-x="572" 
d="M467 -187q-57 0 -86.5 23t-29.5 63q0 61 76 103h-22q-14 17 -18 67h-1q-61 -82 -168 -82q-81 0 -131.5 41t-50.5 117q0 44 15.5 74.5t47.5 48t67.5 27t88.5 15.5q71 9 101.5 24t30.5 49q0 35 -24.5 56t-71.5 21q-104 0 -110 -86h-119q3 74 61.5 124t166.5 50
q94 0 143 -31q76 -46 76 -152v-281q0 -62 20 -75v-9q-31 -12 -51 -34.5t-20 -45.5q0 -31 38 -31q19 0 34 5h3v-72q-23 -9 -66 -9zM254 74q63 0 99.5 36t36.5 84v79q-32 -20 -105 -35q-65 -13 -93.5 -31t-28.5 -59q0 -74 91 -74z" />
    <glyph glyph-name="Cacute" unicode="&#x106;" horiz-adv-x="752" 
d="M398 -16q-160 0 -259 108.5t-99 277.5t98 278.5t261 109.5q126 0 206 -61q91 -71 105 -192h-138q-10 61 -56 98.5t-118 37.5q-103 0 -160 -75.5t-57 -195.5t59.5 -194.5t158.5 -74.5q80 0 127 46.5t53 117.5h139q-2 -55 -26.5 -108t-63.5 -91q-82 -82 -230 -82zM330 785
l48 128h154l-100 -128h-102z" />
    <glyph glyph-name="cacute" unicode="&#x107;" horiz-adv-x="569" 
d="M241 618l53 154h150l-105 -154h-98zM302 -16q-121 0 -196 80.5t-75 201.5q0 122 74 202t195 80q100 0 163 -52t78 -140h-124q-9 44 -39 69.5t-77 25.5q-68 0 -104.5 -50.5t-36.5 -134.5q0 -82 36.5 -132.5t104.5 -50.5q52 0 83 29t36 82h124q-6 -94 -71 -152t-171 -58z
" />
    <glyph glyph-name="Ccircumflex" unicode="&#x108;" horiz-adv-x="752" 
d="M398 -16q-160 0 -259 108.5t-99 277.5t98 278.5t261 109.5q126 0 206 -61q91 -71 105 -192h-138q-10 61 -56 98.5t-118 37.5q-103 0 -160 -75.5t-57 -195.5t59.5 -194.5t158.5 -74.5q80 0 127 46.5t53 117.5h139q-2 -55 -26.5 -108t-63.5 -91q-82 -82 -230 -82zM216 785
l105 123h129l104 -123h-117l-50 59h-2l-52 -59h-117z" />
    <glyph glyph-name="ccircumflex" unicode="&#x109;" horiz-adv-x="569" 
d="M125 621l103 136h129l102 -136h-116l-49 77h-2l-51 -77h-116zM302 -16q-121 0 -196 80.5t-75 201.5q0 122 74 202t195 80q100 0 163 -52t78 -140h-124q-9 44 -39 69.5t-77 25.5q-68 0 -104.5 -50.5t-36.5 -134.5q0 -82 36.5 -132.5t104.5 -50.5q52 0 83 29t36 82h124
q-6 -94 -71 -152t-171 -58z" />
    <glyph glyph-name="Cdotaccent" unicode="&#x10a;" horiz-adv-x="752" 
d="M322 785v122h130v-122h-130zM398 -16q-160 0 -259 108.5t-99 277.5t98 278.5t261 109.5q126 0 206 -61q91 -71 105 -192h-138q-10 61 -56 98.5t-118 37.5q-103 0 -160 -75.5t-57 -195.5t59.5 -194.5t158.5 -74.5q80 0 127 46.5t53 117.5h139q-2 -55 -26.5 -108t-63.5 -91
q-82 -82 -230 -82z" />
    <glyph glyph-name="cdotaccent" unicode="&#x10b;" horiz-adv-x="569" 
d="M302 -16q-121 0 -196 80.5t-75 201.5q0 122 74 202t195 80q100 0 163 -52t78 -140h-124q-9 44 -39 69.5t-77 25.5q-68 0 -104.5 -50.5t-36.5 -134.5q0 -82 36.5 -132.5t104.5 -50.5q52 0 83 29t36 82h124q-6 -94 -71 -152t-171 -58zM229 621v123h130v-123h-130z" />
    <glyph glyph-name="Ccaron" unicode="&#x10c;" horiz-adv-x="752" 
d="M398 -16q-160 0 -259 108.5t-99 277.5t98 278.5t261 109.5q126 0 206 -61q91 -71 105 -192h-138q-10 61 -56 98.5t-118 37.5q-103 0 -160 -75.5t-57 -195.5t59.5 -194.5t158.5 -74.5q80 0 127 46.5t53 117.5h139q-2 -55 -26.5 -108t-63.5 -91q-82 -82 -230 -82zM556 908
l-105 -123h-129l-104 123h117l50 -59h2l52 59h117z" />
    <glyph glyph-name="ccaron" unicode="&#x10d;" horiz-adv-x="569" 
d="M461 755l-103 -137h-129l-102 137h116l49 -77h2l51 77h116zM302 -16q-121 0 -196 80.5t-75 201.5q0 122 74 202t195 80q100 0 163 -52t78 -140h-124q-9 44 -39 69.5t-77 25.5q-68 0 -104.5 -50.5t-36.5 -134.5q0 -82 36.5 -132.5t104.5 -50.5q52 0 83 29t36 82h124
q-6 -94 -71 -152t-171 -58z" />
    <glyph glyph-name="Dcaron" unicode="&#x10e;" horiz-adv-x="741" 
d="M512 908l-105 -123h-129l-104 123h117l50 -59h2l52 59h117zM71 0v744h293q159 0 248.5 -102t89.5 -274q0 -170 -90 -269t-256 -99h-285zM210 118h137q108 0 160.5 65t52.5 185q0 121 -51.5 189.5t-157.5 68.5h-141v-508z" />
    <glyph glyph-name="dcaron" unicode="&#x10f;" horiz-adv-x="610" 
d="M263 -17q-106 0 -169 76.5t-63 206.5q0 127 64.5 204.5t167.5 77.5q107 0 164 -91h2q-4 58 -4 111v176h127v-744h-123v78h-2q-51 -95 -164 -95zM289 87q69 0 105 49t36 130q0 83 -36.5 133t-104.5 50q-62 0 -95.5 -50t-33.5 -132q0 -83 33 -131.5t96 -48.5zM714 744v-73
q0 -111 -117 -118v47q52 7 54 51h-53v93h116z" />
    <glyph glyph-name="Dcroat" unicode="&#x110;" horiz-adv-x="747" 
d="M11 320v111h66v313h294q160 0 249 -102t89 -274q0 -170 -90 -269t-257 -99h-285v320h-66zM216 118h138q108 0 160.5 65t52.5 185q0 121 -51.5 189.5t-157.5 68.5h-142v-195h189v-111h-189v-202z" />
    <glyph glyph-name="dcroat" unicode="&#x111;" horiz-adv-x="610" 
d="M617 673v-71h-65v-602h-123v78h-2q-51 -95 -164 -95q-106 0 -169 76.5t-63 206.5q0 127 64.5 204.5t167.5 77.5q107 0 164 -91h2q-4 58 -4 111v34h-144v71h144v71h127v-71h65zM289 87q69 0 105 49t36 130q0 83 -36.5 133t-104.5 50q-62 0 -95.5 -50t-33.5 -132
q0 -83 33 -131.5t96 -48.5z" />
    <glyph glyph-name="Emacron" unicode="&#x112;" horiz-adv-x="668" 
d="M70 0v744h544v-118h-406v-184h359v-111h-359v-210h415v-121h-553zM203 792v94h299v-94h-299z" />
    <glyph glyph-name="emacron" unicode="&#x113;" horiz-adv-x="587" 
d="M303 -16q-124 0 -198 80t-74 202q0 121 74 201.5t191 80.5q114 0 184 -75q78 -82 76 -238h-399q7 -71 44.5 -112.5t102.5 -41.5q91 0 118 70h124q-20 -75 -84 -121t-159 -46zM296 456q-60 0 -94 -37.5t-43 -103.5h266q-4 66 -38 103.5t-91 37.5zM149 636v94h294v-94h-294
z" />
    <glyph glyph-name="Ebreve" unicode="&#x114;" horiz-adv-x="668" 
d="M70 0v744h544v-118h-406v-184h359v-111h-359v-210h415v-121h-553zM354 779q-64 0 -106 37.5t-45 98.5h79q12 -52 71 -52q58 0 71 52h77q-2 -59 -42.5 -97.5t-104.5 -38.5z" />
    <glyph glyph-name="ebreve" unicode="&#x115;" horiz-adv-x="587" 
d="M303 -16q-124 0 -198 80t-74 202q0 121 74 201.5t191 80.5q114 0 184 -75q78 -82 76 -238h-399q7 -71 44.5 -112.5t102.5 -41.5q91 0 118 70h124q-20 -75 -84 -121t-159 -46zM296 456q-60 0 -94 -37.5t-43 -103.5h266q-4 66 -38 103.5t-91 37.5zM298 613
q-64 0 -106.5 38.5t-45.5 103.5h79q8 -59 72 -59q30 0 49 16t23 43h77q-2 -63 -42.5 -102.5t-105.5 -39.5z" />
    <glyph glyph-name="Edotaccent" unicode="&#x116;" horiz-adv-x="668" 
d="M70 0v744h544v-118h-406v-184h359v-111h-359v-210h415v-121h-553zM288 785v122h130v-122h-130z" />
    <glyph glyph-name="edotaccent" unicode="&#x117;" horiz-adv-x="587" 
d="M303 -16q-124 0 -198 80t-74 202q0 121 74 201.5t191 80.5q114 0 184 -75q78 -82 76 -238h-399q7 -71 44.5 -112.5t102.5 -41.5q91 0 118 70h124q-20 -75 -84 -121t-159 -46zM296 456q-60 0 -94 -37.5t-43 -103.5h266q-4 66 -38 103.5t-91 37.5zM232 621v123h130v-123
h-130z" />
    <glyph glyph-name="Eogonek" unicode="&#x118;" horiz-adv-x="668" 
d="M70 0v744h544v-118h-406v-184h359v-111h-359v-210h415v-121h-58q-55 -44 -55 -80q0 -31 37 -31q20 0 35 5h2v-72q-23 -9 -65 -9q-57 0 -87 23t-30 63q0 63 74 101h-406z" />
    <glyph glyph-name="eogonek" unicode="&#x119;" horiz-adv-x="587" 
d="M377 -187q-57 0 -86.5 23t-29.5 63q0 51 56 86q-3 -1 -14 -1q-124 0 -198 80t-74 202q0 121 74 201.5t191 80.5q114 0 184 -75q78 -82 76 -238h-399q7 -71 44.5 -112.5t102.5 -41.5q91 0 118 70h124q-17 -66 -84 -122q-33 -26 -46.5 -37t-30.5 -32.5t-17 -39.5
q0 -31 38 -31q19 0 34 5h3v-72q-23 -9 -66 -9zM296 456q-60 0 -94 -38t-43 -103h266q-4 66 -38 103.5t-91 37.5z" />
    <glyph glyph-name="Ecaron" unicode="&#x11a;" horiz-adv-x="668" 
d="M70 0v744h544v-118h-406v-184h359v-111h-359v-210h415v-121h-553zM522 908l-105 -123h-129l-104 123h117l50 -59h2l52 59h117z" />
    <glyph glyph-name="ecaron" unicode="&#x11b;" horiz-adv-x="587" 
d="M303 -16q-124 0 -198 80t-74 202q0 121 74 201.5t191 80.5q114 0 184 -75q78 -82 76 -238h-399q7 -71 44.5 -112.5t102.5 -41.5q91 0 118 70h124q-20 -75 -84 -121t-159 -46zM296 456q-60 0 -94 -37.5t-43 -103.5h266q-4 66 -38 103.5t-91 37.5zM464 755l-103 -137h-129
l-102 137h116l49 -77h2l51 77h116z" />
    <glyph glyph-name="Gcircumflex" unicode="&#x11c;" horiz-adv-x="783" 
d="M636 0l-19 102h-4q-71 -119 -221 -119q-155 0 -253 106t-98 280q0 187 113 295q96 94 248 94q132 0 213 -64t102 -173h-140q-16 55 -59 88t-114 33q-109 0 -165.5 -75.5t-56.5 -197.5q0 -120 61 -195t161 -75q90 0 140.5 52t51.5 128v9h-180v108h313v-396h-93zM222 785
l105 123h129l104 -123h-117l-50 59h-2l-52 -59h-117z" />
    <glyph glyph-name="gcircumflex" unicode="&#x11d;" horiz-adv-x="605" 
d="M295 -186q-107 0 -170.5 41.5t-73.5 117.5h122q13 -66 120 -66q129 0 129 117v13q0 38 2 74h-3q-51 -82 -151 -82t-166.5 70t-66.5 187q0 118 64 190t162 72q111 0 158 -83h2v69h123v-499q0 -108 -67 -167q-64 -54 -184 -54zM293 127q69 0 101.5 44t32.5 119
q0 74 -34.5 116.5t-100.5 42.5q-61 0 -95 -43t-34 -118q0 -74 34 -117.5t96 -43.5zM130 621l103 136h129l102 -136h-116l-49 77h-2l-51 -77h-116z" />
    <glyph glyph-name="Gbreve" unicode="&#x11e;" horiz-adv-x="783" 
d="M636 0l-19 102h-4q-71 -119 -221 -119q-155 0 -253 106t-98 280q0 187 113 295q96 94 248 94q132 0 213 -64t102 -173h-140q-16 55 -59 88t-114 33q-109 0 -165.5 -75.5t-56.5 -197.5q0 -120 61 -195t161 -75q90 0 140.5 52t51.5 128v9h-180v108h313v-396h-93zM395 779
q-64 0 -106 37.5t-45 98.5h79q12 -52 71 -52q58 0 71 52h77q-2 -59 -42.5 -97.5t-104.5 -38.5z" />
    <glyph glyph-name="gbreve" unicode="&#x11f;" horiz-adv-x="605" 
d="M295 -186q-107 0 -170.5 41.5t-73.5 117.5h122q13 -66 120 -66q129 0 129 117v13q0 38 2 74h-3q-51 -82 -151 -82t-166.5 70t-66.5 187q0 118 64 190t162 72q111 0 158 -83h2v69h123v-499q0 -108 -67 -167q-64 -54 -184 -54zM293 127q69 0 101.5 44t32.5 119
q0 74 -34.5 116.5t-100.5 42.5q-61 0 -95 -43t-34 -118q0 -74 34 -117.5t96 -43.5zM300 613q-64 0 -106.5 38.5t-45.5 103.5h79q8 -59 72 -59q30 0 49 16t23 43h77q-2 -63 -42.5 -102.5t-105.5 -39.5z" />
    <glyph glyph-name="Gdotaccent" unicode="&#x120;" horiz-adv-x="783" 
d="M636 0l-19 102h-4q-71 -119 -221 -119q-155 0 -253 106t-98 280q0 187 113 295q96 94 248 94q132 0 213 -64t102 -173h-140q-16 55 -59 88t-114 33q-109 0 -165.5 -75.5t-56.5 -197.5q0 -120 61 -195t161 -75q90 0 140.5 52t51.5 128v9h-180v108h313v-396h-93zM329 785
v122h130v-122h-130z" />
    <glyph glyph-name="gdotaccent" unicode="&#x121;" horiz-adv-x="605" 
d="M295 -186q-107 0 -170.5 41.5t-73.5 117.5h122q13 -66 120 -66q129 0 129 117v13q0 38 2 74h-3q-51 -82 -151 -82t-166.5 70t-66.5 187q0 118 64 190t162 72q111 0 158 -83h2v69h123v-499q0 -108 -67 -167q-64 -54 -184 -54zM293 127q69 0 101.5 44t32.5 119
q0 74 -34.5 116.5t-100.5 42.5q-61 0 -95 -43t-34 -118q0 -74 34 -117.5t96 -43.5zM234 621v123h130v-123h-130z" />
    <glyph glyph-name="Gcommaaccent" unicode="&#x122;" horiz-adv-x="783" 
d="M636 0l-19 102h-4q-71 -119 -221 -119q-155 0 -253 106t-98 280q0 187 113 295q96 94 248 94q132 0 213 -64t102 -173h-140q-16 55 -59 88t-114 33q-109 0 -165.5 -75.5t-56.5 -197.5q0 -120 61 -195t161 -75q90 0 140.5 52t51.5 128v9h-180v108h313v-396h-93zM460 -51
v-80q0 -59 -36 -89.5t-97 -34.5v49q63 11 63 55h-61v100h131z" />
    <glyph glyph-name="gcommaaccent" unicode="&#x123;" horiz-adv-x="605" 
d="M295 -186q-107 0 -170.5 41.5t-73.5 117.5h122q13 -66 120 -66q129 0 129 117v13q0 38 2 74h-3q-51 -82 -151 -82t-166.5 70t-66.5 187q0 118 64 190t162 72q111 0 158 -83h2v69h123v-499q0 -108 -67 -167q-64 -54 -184 -54zM293 127q69 0 101.5 44t32.5 119
q0 74 -34.5 116.5t-100.5 42.5q-61 0 -95 -43t-34 -118q0 -74 34 -117.5t96 -43.5zM232 621v79q0 59 36 90t97 34v-49q-63 -10 -63 -55h61v-99h-131z" />
    <glyph glyph-name="Hcircumflex" unicode="&#x124;" horiz-adv-x="745" 
d="M70 0v744h138v-299h329v299h139v-744h-139v330h-329v-330h-138zM201 785l105 123h129l104 -123h-117l-50 59h-2l-52 -59h-117z" />
    <glyph glyph-name="hcircumflex" unicode="&#x125;" horiz-adv-x="589" 
d="M185 544q0 -25 -2 -87h3q57 91 165 91q86 0 135 -50t49 -136v-362h-127v341q0 48 -27 75t-75 27q-53 0 -87 -36.5t-34 -93.5v-313h-127v744h127v-200zM125 785l105 123h129l104 -123h-117l-50 59h-2l-52 -59h-117z" />
    <glyph glyph-name="Hbar" unicode="&#x126;" horiz-adv-x="745" 
d="M2 539v83h68v122h138v-122h329v122h139v-122h67v-83h-67v-539h-139v330h-329v-330h-138v539h-68zM208 539v-97h329v97h-329z" />
    <glyph glyph-name="hbar" unicode="&#x127;" horiz-adv-x="589" 
d="M-7 602v71h65v71h127v-71h144v-71h-144v-58q0 -25 -2 -87h3q57 91 165 91q86 0 135 -50t49 -136v-362h-127v341q0 48 -27 75t-75 27q-53 0 -87 -36.5t-34 -93.5v-313h-127v602h-65z" />
    <glyph glyph-name="Itilde" unicode="&#x128;" horiz-adv-x="280" 
d="M70 0v744h139v-744h-139zM210 786q-32 0 -74 20t-53 20q-12 0 -21.5 -11t-10.5 -29h-75q1 60 27.5 92.5t69.5 32.5q33 0 71.5 -19.5t53.5 -19.5q26 0 31 37h76q-2 -58 -26 -90.5t-69 -32.5z" />
    <glyph glyph-name="itilde" unicode="&#x129;" horiz-adv-x="242" 
d="M58 0v534h127v-534h-127zM191 621q-32 0 -74 20t-53 20q-13 0 -22.5 -11t-10.5 -29h-74q1 60 27.5 92.5t69.5 32.5q33 0 72 -20t54 -20q26 0 31 38h75q-2 -58 -26 -90.5t-69 -32.5z" />
    <glyph glyph-name="Imacron" unicode="&#x12a;" horiz-adv-x="280" 
d="M70 0v744h139v-744h-139zM6 792v94h268v-94h-268z" />
    <glyph glyph-name="imacron" unicode="&#x12b;" horiz-adv-x="242" 
d="M58 0v534h127v-534h-127zM4 636v94h234v-94h-234z" />
    <glyph glyph-name="Ibreve" unicode="&#x12c;" horiz-adv-x="280" 
d="M70 0v744h139v-744h-139zM142 779q-64 0 -106 37.5t-45 98.5h79q12 -52 71 -52q58 0 71 52h77q-2 -59 -42.5 -97.5t-104.5 -38.5z" />
    <glyph glyph-name="ibreve" unicode="&#x12d;" horiz-adv-x="242" 
d="M58 0v534h127v-534h-127zM123 613q-64 0 -106.5 38.5t-45.5 103.5h79q8 -59 72 -59q30 0 49 16t23 43h77q-2 -63 -42.5 -102.5t-105.5 -39.5z" />
    <glyph glyph-name="Iogonek" unicode="&#x12e;" horiz-adv-x="280" 
d="M70 0v744h139v-743q-29 -15 -47 -38t-18 -43q0 -31 38 -31q19 0 34 5h3v-72q-23 -9 -66 -9q-57 0 -87 23t-30 63q0 62 76 101h-42z" />
    <glyph glyph-name="iogonek" unicode="&#x12f;" horiz-adv-x="242" 
d="M58 0v534h127v-533q-28 -16 -45.5 -39t-17.5 -42q0 -31 37 -31q20 0 35 5h2v-72q-23 -9 -65 -9q-57 0 -86.5 23t-29.5 63q0 62 75 101h-32zM56 621v123h130v-123h-130z" />
    <glyph glyph-name="Idotaccent" unicode="&#x130;" horiz-adv-x="280" 
d="M70 0v744h139v-744h-139zM76 785v122h130v-122h-130z" />
    <glyph glyph-name="dotlessi" unicode="&#x131;" horiz-adv-x="242" 
d="M58 0v534h127v-534h-127z" />
    <glyph glyph-name="IJ" unicode="&#x132;" horiz-adv-x="818" 
d="M70 0v744h139v-744h-139zM525 -14q-117 0 -178.5 61.5t-61.5 179.5v38h130v-34q0 -71 25.5 -101t79.5 -30q98 0 98 110v534h139v-539q0 -94 -50 -148q-61 -71 -182 -71z" />
    <glyph glyph-name="ij" unicode="&#x133;" horiz-adv-x="485" 
d="M284 -176q-39 0 -72 7v93h5h33q26 2 38 13.5t12 39.5v557h127v-562q0 -80 -38 -115q-37 -33 -105 -33zM58 0v534h127v-534h-127zM298 621v123h130v-123h-130zM56 621v123h130v-123h-130z" />
    <glyph glyph-name="Jcircumflex" unicode="&#x134;" horiz-adv-x="560" 
d="M268 -14q-117 0 -178.5 61.5t-61.5 179.5v38h130v-34q0 -71 25.5 -101t79.5 -30q98 0 98 110v534h139v-539q0 -94 -50 -148q-61 -71 -182 -71zM256 785l105 123h129l104 -123h-117l-50 59h-2l-52 -59h-117z" />
    <glyph glyph-name="jcircumflex" unicode="&#x135;" horiz-adv-x="243" 
d="M42 -176q-39 0 -72 7v93h5h33q26 2 38 13.5t12 39.5v557h127v-562q0 -80 -38 -115q-37 -33 -105 -33zM-48 621l103 136h129l102 -136h-116l-49 77h-2l-51 -77h-116z" />
    <glyph glyph-name="Kcommaaccent" unicode="&#x136;" horiz-adv-x="713" 
d="M70 0v744h138v-172q0 -60 -5 -158l316 330h168l-292 -298l313 -446h-162l-250 357l-88 -89v-268h-138zM425 -51v-80q0 -59 -36 -89.5t-97 -34.5v49q63 11 63 55h-61v100h131z" />
    <glyph glyph-name="kcommaaccent" unicode="&#x137;" horiz-adv-x="568" 
d="M407 0l-160 256l-63 -63v-193h-126v744h126v-288q0 -7 -4 -131l201 209h151l-196 -195l219 -339h-148zM350 -51v-80q0 -59 -36 -89.5t-97 -34.5v49q63 11 63 55h-61v100h131z" />
    <glyph glyph-name="kgreenlandic" unicode="&#x138;" horiz-adv-x="568" 
d="M407 0l-160 256l-63 -63v-193h-126v534h126v-78q0 -7 -4 -131l201 209h151l-196 -195l219 -339h-148z" />
    <glyph glyph-name="Lacute" unicode="&#x139;" horiz-adv-x="600" 
d="M81 785l48 128h154l-100 -128h-102zM70 0v744h138v-623h362v-121h-500z" />
    <glyph glyph-name="lacute" unicode="&#x13a;" horiz-adv-x="247" 
d="M67 785l48 128h154l-100 -128h-102zM60 0v744h128v-744h-128z" />
    <glyph glyph-name="Lcommaaccent" unicode="&#x13b;" horiz-adv-x="600" 
d="M388 -51v-80q0 -59 -36 -89.5t-97 -34.5v49q63 11 63 55h-61v100h131zM70 0v744h138v-623h362v-121h-500z" />
    <glyph glyph-name="lcommaaccent" unicode="&#x13c;" horiz-adv-x="247" 
d="M191 -51v-80q0 -59 -36 -89.5t-97 -34.5v49q63 11 63 55h-61v100h131zM60 0v744h128v-744h-128z" />
    <glyph glyph-name="Lcaron" unicode="&#x13d;" horiz-adv-x="600" 
d="M70 0v744h138v-623h362v-121h-500zM466 744v-91q0 -119 -122 -126v47q52 7 54 59h-53v111h121z" />
    <glyph glyph-name="lcaron" unicode="&#x13e;" horiz-adv-x="247" 
d="M350 744v-73q0 -111 -117 -118v47q52 7 54 51h-53v93h116zM60 0v744h128v-744h-128z" />
    <glyph glyph-name="Ldot" unicode="&#x13f;" horiz-adv-x="600" 
d="M70 0v744h138v-623h362v-121h-500zM383 295v129h129v-129h-129z" />
    <glyph glyph-name="ldot" unicode="&#x140;" horiz-adv-x="377" 
d="M60 0v744h128v-744h-128zM248 295v129h129v-129h-129z" />
    <glyph glyph-name="Lslash" unicode="&#x141;" horiz-adv-x="603" 
d="M5 201v101l68 36v406h138v-333l230 122v-101l-230 -122v-189h363v-121h-501v237z" />
    <glyph glyph-name="lslash" unicode="&#x142;" horiz-adv-x="293" 
d="M9 219v101l73 55v369h128v-272l82 62v-101l-82 -62v-371h-128v274z" />
    <glyph glyph-name="Nacute" unicode="&#x143;" horiz-adv-x="747" 
d="M324 785l48 128h154l-100 -128h-102zM70 0v744h142l247 -390q18 -29 41 -72t38 -72l14 -29h3q-8 116 -8 190v373h131v-744h-142l-246 388q-18 29 -41.5 72.5t-38.5 72.5l-14 29h-2q7 -116 7 -190v-372h-131z" />
    <glyph glyph-name="nacute" unicode="&#x144;" horiz-adv-x="589" 
d="M182 534v-78h3q55 92 166 92q86 0 135 -50t49 -136v-362h-127v341q0 48 -27 75t-75 27q-53 0 -87 -36.5t-34 -93.5v-313h-127v534h124zM246 618l53 154h150l-105 -154h-98z" />
    <glyph glyph-name="Ncommaaccent" unicode="&#x145;" horiz-adv-x="747" 
d="M439 -51v-80q0 -59 -36 -89.5t-97 -34.5v49q63 11 63 55h-61v100h131zM70 0v744h142l247 -390q18 -29 41 -72t38 -72l14 -29h3q-8 116 -8 190v373h131v-744h-142l-246 388q-18 29 -41.5 72.5t-38.5 72.5l-14 29h-2q7 -116 7 -190v-372h-131z" />
    <glyph glyph-name="ncommaaccent" unicode="&#x146;" horiz-adv-x="589" 
d="M182 534v-78h3q55 92 166 92q86 0 135 -50t49 -136v-362h-127v341q0 48 -27 75t-75 27q-53 0 -87 -36.5t-34 -93.5v-313h-127v534h124zM365 -51v-80q0 -59 -36 -89.5t-97 -34.5v49q63 11 63 55h-61v100h131z" />
    <glyph glyph-name="Ncaron" unicode="&#x147;" horiz-adv-x="747" 
d="M551 908l-105 -123h-129l-104 123h117l50 -59h2l52 59h117zM70 0v744h142l247 -390q18 -29 41 -72t38 -72l14 -29h3q-8 116 -8 190v373h131v-744h-142l-246 388q-18 29 -41.5 72.5t-38.5 72.5l-14 29h-2q7 -116 7 -190v-372h-131z" />
    <glyph glyph-name="ncaron" unicode="&#x148;" horiz-adv-x="589" 
d="M182 534v-78h3q55 92 166 92q86 0 135 -50t49 -136v-362h-127v341q0 48 -27 75t-75 27q-53 0 -87 -36.5t-34 -93.5v-313h-127v534h124zM466 755l-103 -137h-129l-102 137h116l49 -77h2l51 77h116z" />
    <glyph glyph-name="napostrophe" unicode="&#x149;" horiz-adv-x="589" 
d="M182 534v-78h3q55 92 166 92q86 0 135 -50t49 -136v-362h-127v341q0 48 -27 75t-75 27q-53 0 -87 -36.5t-34 -93.5v-313h-127v534h124zM81 744v-73q0 -111 -117 -118v47q52 7 54 51h-53v93h116z" />
    <glyph glyph-name="Eng" unicode="&#x14a;" horiz-adv-x="747" 
d="M439 -72q87 0 101 68l-250 392q-19 29 -42.5 72.5t-37.5 72.5l-14 29h-2q7 -116 7 -190v-372h-131v744h142l247 -390q18 -29 41 -72t38 -72l14 -29h3q-8 116 -8 190v373h131v-711q0 -93 -44 -148q-56 -71 -178 -71q-35 0 -68 7v111h5q22 -4 46 -4z" />
    <glyph glyph-name="eng" unicode="&#x14b;" horiz-adv-x="589" 
d="M408 -23v364q0 48 -27 75t-75 27q-53 0 -87 -36.5t-34 -93.5v-313h-127v534h124v-78h3q55 92 166 92q86 0 135 -50t49 -136v-390q0 -80 -38 -115q-37 -33 -105 -33q-39 0 -72 7v93h5h11h12.5h9.5q26 2 38 13.5t12 39.5z" />
    <glyph glyph-name="Omacron" unicode="&#x14c;" horiz-adv-x="812" 
d="M256 792v94h299v-94h-299zM406 -17q-166 0 -266 109t-100 278q0 170 100 279t266 109t266 -109t100 -279q0 -169 -100 -278t-266 -109zM407 100q107 0 165 75t58 195q0 121 -58 197.5t-165 76.5t-166.5 -76.5t-59.5 -197.5q0 -120 59 -195t167 -75z" />
    <glyph glyph-name="omacron" unicode="&#x14d;" horiz-adv-x="606" 
d="M155 636v94h294v-94h-294zM304 -16q-122 0 -197.5 80.5t-75.5 201.5t75.5 201.5t197.5 80.5t196.5 -80t74.5 -202q0 -121 -74.5 -201.5t-196.5 -80.5zM303 80q68 0 105.5 51.5t37.5 134.5q0 84 -37.5 136t-105.5 52t-105.5 -52t-37.5 -136q0 -83 37.5 -134.5t105.5 -51.5
z" />
    <glyph glyph-name="Obreve" unicode="&#x14e;" horiz-adv-x="812" 
d="M407 779q-64 0 -106 37.5t-45 98.5h79q12 -52 71 -52q58 0 71 52h77q-2 -59 -42.5 -97.5t-104.5 -38.5zM406 -17q-166 0 -266 109t-100 278q0 170 100 279t266 109t266 -109t100 -279q0 -169 -100 -278t-266 -109zM407 100q107 0 165 75t58 195q0 121 -58 197.5
t-165 76.5t-166.5 -76.5t-59.5 -197.5q0 -120 59 -195t167 -75z" />
    <glyph glyph-name="obreve" unicode="&#x14f;" horiz-adv-x="606" 
d="M304 -16q-122 0 -197.5 80.5t-75.5 201.5t75.5 201.5t197.5 80.5t196.5 -80t74.5 -202q0 -121 -74.5 -201.5t-196.5 -80.5zM303 80q68 0 105.5 51.5t37.5 134.5q0 84 -37.5 136t-105.5 52t-105.5 -52t-37.5 -136q0 -83 37.5 -134.5t105.5 -51.5zM304 613
q-64 0 -106.5 38.5t-45.5 103.5h79q8 -59 72 -59q30 0 49 16t23 43h77q-2 -63 -42.5 -102.5t-105.5 -39.5z" />
    <glyph glyph-name="Ohungarumlaut" unicode="&#x150;" horiz-adv-x="812" 
d="M406 -17q-166 0 -266 109t-100 278q0 170 100 279t266 109t266 -109t100 -279q0 -169 -100 -278t-266 -109zM407 100q107 0 165 75t58 195q0 121 -58 197.5t-165 76.5t-166.5 -76.5t-59.5 -197.5q0 -120 59 -195t167 -75zM445 785l33 128h128l-75 -128h-86zM271 785
l34 128h129l-75 -128h-88z" />
    <glyph glyph-name="ohungarumlaut" unicode="&#x151;" horiz-adv-x="606" 
d="M343 618l41 154h125l-82 -154h-84zM172 618l42 154h126l-83 -154h-85zM304 -16q-122 0 -197.5 80.5t-75.5 201.5t75.5 201.5t197.5 80.5t196.5 -80t74.5 -202q0 -121 -74.5 -201.5t-196.5 -80.5zM303 80q68 0 105.5 51.5t37.5 134.5q0 84 -37.5 136t-105.5 52t-105.5 -52
t-37.5 -136q0 -83 37.5 -134.5t105.5 -51.5z" />
    <glyph glyph-name="OE" unicode="&#x152;" horiz-adv-x="1135" 
d="M388 -17q-153 0 -250.5 109.5t-97.5 277.5t98 278t250 110q120 0 187 -90v76h503v-118h-376v-185h329v-111h-329v-206h388v-124h-515v70q-66 -87 -187 -87zM394 99q78 0 126.5 51t48.5 136v162q0 88 -49 142t-126 54q-99 0 -156 -77t-57 -197q0 -119 56.5 -195t156.5 -76
z" />
    <glyph glyph-name="oe" unicode="&#x153;" horiz-adv-x="972" 
d="M696 -16q-135 0 -201 107q-66 -107 -200 -107q-119 0 -191.5 80.5t-72.5 201.5q0 122 72.5 202t191.5 80q136 0 201 -108q65 108 194 108q111 0 176 -74q76 -82 76 -239h-387q7 -71 44 -112.5t98 -41.5q82 0 111 70h123q-19 -75 -81 -121t-154 -46zM296 80
q66 0 101.5 51.5t35.5 134.5q0 84 -35.5 136t-101.5 52q-67 0 -101.5 -51.5t-34.5 -136.5q0 -84 34.5 -135t101.5 -51zM690 456q-58 0 -91 -37.5t-42 -103.5h253q-4 67 -35 104t-85 37z" />
    <glyph glyph-name="Racute" unicode="&#x154;" horiz-adv-x="708" 
d="M70 0v744h351q106 0 172.5 -56.5t66.5 -152.5q0 -140 -137 -184v-3q58 -18 84 -54.5t32 -106.5q2 -19 4.5 -43.5t4 -38.5t3.5 -31t3.5 -26.5t4 -19t6 -14.5t7.5 -7v-7h-140q-4 3 -7 8t-5.5 14t-4 18t-2.5 25t-2 29t-3 36t-3 40q-6 66 -38.5 96t-99.5 30h-159v-296h-138z
M208 631v-229h180q64 0 98.5 30t34.5 83q0 116 -128 116h-185zM290 785l48 128h154l-100 -128h-102z" />
    <glyph glyph-name="racute" unicode="&#x155;" horiz-adv-x="396" 
d="M181 534v-96h3q51 104 153 104q23 0 34 -5v-114h-4q-16 4 -35 4q-65 1 -106 -41.5t-41 -117.5v-268h-127v534h123zM169 618l53 154h150l-105 -154h-98z" />
    <glyph glyph-name="Rcommaaccent" unicode="&#x156;" horiz-adv-x="708" 
d="M70 0v744h351q106 0 172.5 -56.5t66.5 -152.5q0 -140 -137 -184v-3q58 -18 84 -54.5t32 -106.5q2 -19 4.5 -43.5t4 -38.5t3.5 -31t3.5 -26.5t4 -19t6 -14.5t7.5 -7v-7h-140q-4 3 -7 8t-5.5 14t-4 18t-2.5 25t-2 29t-3 36t-3 40q-6 66 -38.5 96t-99.5 30h-159v-296h-138z
M208 631v-229h180q64 0 98.5 30t34.5 83q0 116 -128 116h-185zM425 -51v-80q0 -59 -36 -89.5t-97 -34.5v49q63 11 63 55h-61v100h131z" />
    <glyph glyph-name="rcommaaccent" unicode="&#x157;" horiz-adv-x="396" 
d="M181 534v-96h3q51 104 153 104q23 0 34 -5v-114h-4q-16 4 -35 4q-65 1 -106 -41.5t-41 -117.5v-268h-127v534h123zM187 -51v-80q0 -59 -36 -89.5t-97 -34.5v49q63 11 63 55h-61v100h131z" />
    <glyph glyph-name="Rcaron" unicode="&#x158;" horiz-adv-x="708" 
d="M70 0v744h351q106 0 172.5 -56.5t66.5 -152.5q0 -140 -137 -184v-3q58 -18 84 -54.5t32 -106.5q2 -19 4.5 -43.5t4 -38.5t3.5 -31t3.5 -26.5t4 -19t6 -14.5t7.5 -7v-7h-140q-4 3 -7 8t-5.5 14t-4 18t-2.5 25t-2 29t-3 36t-3 40q-6 66 -38.5 96t-99.5 30h-159v-296h-138z
M208 631v-229h180q64 0 98.5 30t34.5 83q0 116 -128 116h-185zM517 908l-105 -123h-129l-104 123h117l50 -59h2l52 59h117z" />
    <glyph glyph-name="rcaron" unicode="&#x159;" horiz-adv-x="396" 
d="M181 534v-96h3q51 104 153 104q23 0 34 -5v-114h-4q-16 4 -35 4q-65 1 -106 -41.5t-41 -117.5v-268h-127v534h123zM393 755l-103 -137h-129l-102 137h116l49 -77h2l51 77h116z" />
    <glyph glyph-name="Sacute" unicode="&#x15a;" horiz-adv-x="682" 
d="M353 -17q-150 0 -235 69.5t-90 185.5h139q15 -144 187 -144q64 0 106 28t42 81q0 23 -9.5 41t-23 29.5t-42.5 22t-51 16.5t-66 16q-49 11 -81 20.5t-68 26.5t-57 38.5t-35 55t-14 76.5q0 103 75.5 157.5t199.5 54.5q128 0 202 -58t85 -162h-135q-8 55 -48 84.5t-106 29.5
q-63 0 -100.5 -25t-37.5 -69q0 -47 42.5 -68.5t144.5 -42.5q48 -11 81 -20.5t71 -27.5t60.5 -41t37.5 -59.5t15 -83.5q0 -108 -81 -169.5t-208 -61.5zM276 785l48 128h154l-100 -128h-102z" />
    <glyph glyph-name="sacute" unicode="&#x15b;" horiz-adv-x="531" 
d="M207 618l53 154h150l-105 -154h-98zM272 -17q-112 0 -177 49t-71 132h122q14 -91 127 -91q51 0 77 19.5t26 53.5q0 16 -7 27.5t-16 18.5t-31 13.5t-36.5 10t-47.5 9.5q-47 9 -74 17.5t-59 26t-47 47.5t-15 73q0 75 58 117t153 42q103 0 159.5 -42t66.5 -115h-121
q-14 71 -106 71q-43 0 -66.5 -17.5t-23.5 -46.5q0 -31 29.5 -44t100.5 -26q4 -1 6 -1q37 -7 60.5 -13t53 -19t46.5 -29.5t29 -45t12 -66.5q0 -82 -63 -126.5t-165 -44.5z" />
    <glyph glyph-name="Scircumflex" unicode="&#x15c;" horiz-adv-x="682" 
d="M353 -17q-150 0 -235 69.5t-90 185.5h139q15 -144 187 -144q64 0 106 28t42 81q0 23 -9.5 41t-23 29.5t-42.5 22t-51 16.5t-66 16q-49 11 -81 20.5t-68 26.5t-57 38.5t-35 55t-14 76.5q0 103 75.5 157.5t199.5 54.5q128 0 202 -58t85 -162h-135q-8 55 -48 84.5t-106 29.5
q-63 0 -100.5 -25t-37.5 -69q0 -47 42.5 -68.5t144.5 -42.5q48 -11 81 -20.5t71 -27.5t60.5 -41t37.5 -59.5t15 -83.5q0 -108 -81 -169.5t-208 -61.5zM161 785l105 123h129l104 -123h-117l-50 59h-2l-52 -59h-117z" />
    <glyph glyph-name="scircumflex" unicode="&#x15d;" horiz-adv-x="531" 
d="M92 621l103 136h129l102 -136h-116l-49 77h-2l-51 -77h-116zM272 -17q-112 0 -177 49t-71 132h122q14 -91 127 -91q51 0 77 19.5t26 53.5q0 16 -7 27.5t-16 18.5t-31 13.5t-36.5 10t-47.5 9.5q-47 9 -74 17.5t-59 26t-47 47.5t-15 73q0 75 58 117t153 42q103 0 159.5 -42
t66.5 -115h-121q-14 71 -106 71q-43 0 -66.5 -17.5t-23.5 -46.5q0 -31 29.5 -44t100.5 -26q4 -1 6 -1q37 -7 60.5 -13t53 -19t46.5 -29.5t29 -45t12 -66.5q0 -82 -63 -126.5t-165 -44.5z" />
    <glyph glyph-name="Scedilla" unicode="&#x15e;" horiz-adv-x="682" 
d="M306 -209q-66 0 -112 30l18 36q34 -16 72 -16q55 0 55 34q0 30 -38 30q-19 0 -38 -7l-17 26l58 61q-129 11 -200.5 78.5t-75.5 174.5h139q15 -144 187 -144q64 0 106 28t42 81q0 23 -9.5 41t-23 29.5t-42.5 22t-51 16.5t-66 16q-49 11 -81 20.5t-68 26.5t-57 38.5t-35 55
t-14 76.5q0 103 75.5 157.5t199.5 54.5q128 0 202 -58t85 -162h-135q-8 55 -48 84.5t-106 29.5q-63 0 -100.5 -25t-37.5 -69q0 -47 42.5 -68.5t144.5 -42.5q48 -11 81 -20.5t71 -27.5t60.5 -41t37.5 -59.5t15 -83.5q0 -106 -78 -167.5t-202 -63.5l-43 -38v-2q42 6 75 -12
t33 -59q0 -38 -33.5 -59.5t-87.5 -21.5z" />
    <glyph glyph-name="scedilla" unicode="&#x15f;" horiz-adv-x="531" 
d="M232 -209q-66 0 -112 30l18 36q34 -16 72 -16q55 0 55 34q0 30 -38 30q-19 0 -38 -7l-17 26l57 61q-93 10 -146.5 57.5t-58.5 121.5h122q14 -91 127 -91q51 0 77 19.5t26 53.5q0 16 -7 27.5t-16 18.5t-31 13.5t-36.5 10t-47.5 9.5q-47 9 -74 17.5t-59 26t-47 47.5t-15 73
q0 75 58 117t153 42q103 0 159.5 -42t66.5 -115h-121q-14 71 -106 71q-43 0 -66.5 -17.5t-23.5 -46.5q0 -31 29.5 -44t100.5 -26q4 -1 6 -1q37 -7 60.5 -13t53 -19t46.5 -29.5t29 -45t12 -66.5q0 -78 -58 -122t-153 -48l-44 -39v-2q42 6 75 -12t33 -59q0 -38 -33.5 -59.5
t-87.5 -21.5z" />
    <glyph glyph-name="Scaron" unicode="&#x160;" horiz-adv-x="682" 
d="M353 -17q-150 0 -235 69.5t-90 185.5h139q15 -144 187 -144q64 0 106 28t42 81q0 23 -9.5 41t-23 29.5t-42.5 22t-51 16.5t-66 16q-49 11 -81 20.5t-68 26.5t-57 38.5t-35 55t-14 76.5q0 103 75.5 157.5t199.5 54.5q128 0 202 -58t85 -162h-135q-8 55 -48 84.5t-106 29.5
q-63 0 -100.5 -25t-37.5 -69q0 -47 42.5 -68.5t144.5 -42.5q48 -11 81 -20.5t71 -27.5t60.5 -41t37.5 -59.5t15 -83.5q0 -108 -81 -169.5t-208 -61.5zM497 908l-105 -123h-129l-104 123h117l50 -59h2l52 59h117z" />
    <glyph glyph-name="scaron" unicode="&#x161;" horiz-adv-x="531" 
d="M426 755l-103 -137h-129l-102 137h116l49 -77h2l51 77h116zM272 -17q-112 0 -177 49t-71 132h122q14 -91 127 -91q51 0 77 19.5t26 53.5q0 16 -7 27.5t-16 18.5t-31 13.5t-36.5 10t-47.5 9.5q-47 9 -74 17.5t-59 26t-47 47.5t-15 73q0 75 58 117t153 42q103 0 159.5 -42
t66.5 -115h-121q-14 71 -106 71q-43 0 -66.5 -17.5t-23.5 -46.5q0 -31 29.5 -44t100.5 -26q4 -1 6 -1q37 -7 60.5 -13t53 -19t46.5 -29.5t29 -45t12 -66.5q0 -82 -63 -126.5t-165 -44.5z" />
    <glyph glyph-name="uni0162" unicode="&#x162;" horiz-adv-x="661" 
d="M29 625v119h604v-119h-233v-625h-139v625h-232zM397 -51v-80q0 -59 -36 -89.5t-97 -34.5v49q63 11 63 55h-61v100h131z" />
    <glyph glyph-name="uni0163" unicode="&#x163;" horiz-adv-x="371" 
d="M26 447v87h82v170h125v-170h107v-87h-107v-299q0 -28 14 -39t43 -11q21 0 41 4h6v-99q-42 -8 -84 -8q-145 0 -145 125v327h-82zM279 -51v-80q0 -59 -36 -89.5t-97 -34.5v49q63 11 63 55h-61v100h131z" />
    <glyph glyph-name="Tcaron" unicode="&#x164;" horiz-adv-x="661" 
d="M29 625v119h604v-119h-233v-625h-139v625h-232zM500 908l-105 -123h-129l-104 123h117l50 -59h2l52 59h117z" />
    <glyph glyph-name="tcaron" unicode="&#x165;" horiz-adv-x="371" 
d="M26 447v87h82v170h125v-170h107v-87h-107v-299q0 -28 14 -39t43 -11q21 0 41 4h6v-99q-42 -8 -84 -8q-145 0 -145 125v327h-82zM404 744v-73q0 -111 -117 -118v47q52 7 54 51h-53v93h116z" />
    <glyph glyph-name="Tbar" unicode="&#x166;" horiz-adv-x="661" 
d="M29 625v119h604v-119h-233v-196h156v-91h-156v-338h-139v338h-156v91h156v196h-232z" />
    <glyph glyph-name="tbar" unicode="&#x167;" horiz-adv-x="371" 
d="M26 447v87h82v170h125v-170h107v-87h-107v-88h107v-80h-107v-131q0 -28 14 -39t43 -11q21 0 41 4h6v-99q-42 -8 -84 -8q-145 0 -145 125v159h-82v80h82v88h-82z" />
    <glyph glyph-name="Utilde" unicode="&#x168;" horiz-adv-x="715" 
d="M427 786q-32 0 -74 20t-53 20q-12 0 -21.5 -11t-10.5 -29h-75q1 60 27.5 92.5t69.5 32.5q33 0 71.5 -19.5t53.5 -19.5q26 0 31 37h76q-2 -58 -26 -90.5t-69 -32.5zM358 -13q-142 0 -220 67t-78 197v493h138v-491q0 -151 161 -151q76 0 117 39t41 114v489h139v-493
q0 -129 -79 -196.5t-219 -67.5z" />
    <glyph glyph-name="utilde" unicode="&#x169;" horiz-adv-x="583" 
d="M525 0h-123v76h-2q-61 -90 -161 -90q-87 0 -136 50.5t-49 137.5v360h127v-342q0 -47 26 -73.5t74 -26.5q53 0 85.5 36.5t32.5 92.5v313h126v-534zM358 621q-32 0 -74 20t-53 20q-13 0 -22.5 -11t-10.5 -29h-74q1 60 27.5 92.5t69.5 32.5q33 0 72 -20t54 -20q26 0 31 38
h75q-2 -58 -26 -90.5t-69 -32.5z" />
    <glyph glyph-name="Umacron" unicode="&#x16a;" horiz-adv-x="715" 
d="M208 792v94h299v-94h-299zM358 -13q-142 0 -220 67t-78 197v493h138v-491q0 -151 161 -151q76 0 117 39t41 114v489h139v-493q0 -129 -79 -196.5t-219 -67.5z" />
    <glyph glyph-name="umacron" unicode="&#x16b;" horiz-adv-x="583" 
d="M525 0h-123v76h-2q-61 -90 -161 -90q-87 0 -136 50.5t-49 137.5v360h127v-342q0 -47 26 -73.5t74 -26.5q53 0 85.5 36.5t32.5 92.5v313h126v-534zM141 636v94h294v-94h-294z" />
    <glyph glyph-name="Ubreve" unicode="&#x16c;" horiz-adv-x="715" 
d="M359 779q-64 0 -106 37.5t-45 98.5h79q12 -52 71 -52q58 0 71 52h77q-2 -59 -42.5 -97.5t-104.5 -38.5zM358 -13q-142 0 -220 67t-78 197v493h138v-491q0 -151 161 -151q76 0 117 39t41 114v489h139v-493q0 -129 -79 -196.5t-219 -67.5z" />
    <glyph glyph-name="ubreve" unicode="&#x16d;" horiz-adv-x="583" 
d="M525 0h-123v76h-2q-61 -90 -161 -90q-87 0 -136 50.5t-49 137.5v360h127v-342q0 -47 26 -73.5t74 -26.5q53 0 85.5 36.5t32.5 92.5v313h126v-534zM290 613q-64 0 -106.5 38.5t-45.5 103.5h79q8 -59 72 -59q30 0 49 16t23 43h77q-2 -63 -42.5 -102.5t-105.5 -39.5z" />
    <glyph glyph-name="Uring" unicode="&#x16e;" horiz-adv-x="715" 
d="M358 -13q-142 0 -220 67t-78 197v493h138v-491q0 -151 161 -151q76 0 117 39t41 114v489h139v-493q0 -129 -79 -196.5t-219 -67.5zM358 743q-46 0 -78 30.5t-32 75.5q0 44 32 74.5t78 30.5q44 0 76 -31t32 -74q0 -45 -31.5 -75.5t-76.5 -30.5zM358 793q23 0 38 16t15 40
t-15 40t-38 16q-24 0 -39.5 -16t-15.5 -40t15.5 -40t39.5 -16z" />
    <glyph glyph-name="uring" unicode="&#x16f;" horiz-adv-x="583" 
d="M525 0h-123v76h-2q-61 -90 -161 -90q-87 0 -136 50.5t-49 137.5v360h127v-342q0 -47 26 -73.5t74 -26.5q53 0 85.5 36.5t32.5 92.5v313h126v-534zM290 597q-46 0 -78 30.5t-32 75.5q0 44 32 75t78 31q44 0 76 -31.5t32 -74.5q0 -45 -31.5 -75.5t-76.5 -30.5zM290 647
q23 0 38 16t15 40t-15 40.5t-38 16.5q-24 0 -39.5 -16.5t-15.5 -40.5t15.5 -40t39.5 -16z" />
    <glyph glyph-name="Uhungarumlaut" unicode="&#x170;" horiz-adv-x="715" 
d="M358 -13q-142 0 -220 67t-78 197v493h138v-491q0 -151 161 -151q76 0 117 39t41 114v489h139v-493q0 -129 -79 -196.5t-219 -67.5zM397 785l33 128h128l-75 -128h-86zM223 785l34 128h129l-75 -128h-88z" />
    <glyph glyph-name="uhungarumlaut" unicode="&#x171;" horiz-adv-x="583" 
d="M525 0h-123v76h-2q-61 -90 -161 -90q-87 0 -136 50.5t-49 137.5v360h127v-342q0 -47 26 -73.5t74 -26.5q53 0 85.5 36.5t32.5 92.5v313h126v-534zM158 618l42 154h126l-83 -154h-85zM329 618l41 154h125l-82 -154h-84z" />
    <glyph glyph-name="Uogonek" unicode="&#x172;" horiz-adv-x="715" 
d="M402 -187q-58 0 -87.5 23t-29.5 63q0 53 57 89q-135 4 -208.5 70t-73.5 193v493h138v-491q0 -151 161 -151q76 0 117 39t41 114v489h139v-493q0 -188 -164 -244q-99 -36 -99 -87q0 -31 37 -31q20 0 35 5h2v-72q-23 -9 -65 -9z" />
    <glyph glyph-name="uogonek" unicode="&#x173;" horiz-adv-x="583" 
d="M468 -187q-56 0 -85.5 23t-29.5 63q0 63 75 101h-26v76h-2q-61 -90 -161 -90q-87 0 -136 50.5t-49 137.5v360h127v-342q0 -47 26 -73.5t74 -26.5q53 0 85.5 36.5t32.5 92.5v313h126v-533q-30 -16 -48 -38.5t-18 -42.5q0 -31 38 -31q19 0 34 5h3v-72q-23 -9 -66 -9z" />
    <glyph glyph-name="Wcircumflex" unicode="&#x174;" horiz-adv-x="983" 
d="M211 0l-198 744h142l88 -360q10 -40 19.5 -101t14.5 -101l5 -41h2q24 158 45 247l91 356h136l90 -355q9 -40 20 -102t17 -104l6 -42h2q20 153 43 244l88 359h142l-206 -744h-135l-95 389q-9 35 -18.5 91t-15.5 94l-5 38h-2q-20 -144 -38 -223l-100 -389h-138zM317 785
l105 123h129l104 -123h-117l-50 59h-2l-52 -59h-117z" />
    <glyph glyph-name="wcircumflex" unicode="&#x175;" horiz-adv-x="803" 
d="M232 621l103 136h129l102 -136h-116l-49 77h-2l-51 -77h-116zM175 0l-167 534h132l69 -249q8 -28 16 -68t13 -67l4 -26h2q17 97 35 161l66 249h112l68 -249l34 -162h2q15 97 34 162l71 249h128l-170 -534h-122l-67 254l-33 157h-2q-20 -101 -34 -157l-69 -254h-122z" />
    <glyph glyph-name="Ycircumflex" unicode="&#x176;" horiz-adv-x="692" 
d="M275 0v294l-261 450h153l105 -188q15 -27 33.5 -66.5t29.5 -65.5l11 -27h2q42 98 75 159l106 188h147l-262 -452v-292h-139zM175 785l105 123h129l104 -123h-117l-50 59h-2l-52 -59h-117z" />
    <glyph glyph-name="ycircumflex" unicode="&#x177;" horiz-adv-x="539" 
d="M150 -182q-75 0 -93 6v103h7q8 -5 53 -5q63 0 78 59q0 1 0.5 14t0.5 24t-1.5 26t-5.5 25l-184 464h135l88 -248q10 -29 21.5 -70.5t17.5 -68.5l6 -27h2q24 101 46 166l85 248h128l-207 -564q-32 -87 -71 -119.5t-106 -32.5zM104 621l103 136h129l102 -136h-116l-49 77h-2
l-51 -77h-116z" />
    <glyph glyph-name="Ydieresis" unicode="&#x178;" horiz-adv-x="692" 
d="M275 0v294l-261 450h153l105 -188q15 -27 33.5 -66.5t29.5 -65.5l11 -27h2q42 98 75 159l106 188h147l-262 -452v-292h-139zM171 785v122h125v-122h-125zM396 785v122h125v-122h-125z" />
    <glyph glyph-name="Zacute" unicode="&#x179;" horiz-adv-x="679" 
d="M37 0v118l316 394q17 21 44 50t45 48l19 18v3q-91 -4 -146 -4h-251v117h557v-109l-308 -389q-19 -23 -48.5 -55t-49.5 -53l-20 -20v-3q95 5 153 5h288v-120h-599zM283 785l48 128h154l-100 -128h-102z" />
    <glyph glyph-name="zacute" unicode="&#x17a;" horiz-adv-x="526" 
d="M219 618l53 154h150l-105 -154h-98zM40 0v96l213 261q12 14 31 33.5t32 31.5l14 13v3q-67 -6 -108 -6h-162v102h419v-87l-212 -260q-13 -15 -34.5 -36.5t-36.5 -34.5l-14 -14v-3q72 5 116 5h194v-104h-452z" />
    <glyph glyph-name="Zdotaccent" unicode="&#x17b;" horiz-adv-x="679" 
d="M276 785v122h130v-122h-130zM37 0v118l316 394q17 21 44 50t45 48l19 18v3q-91 -4 -146 -4h-251v117h557v-109l-308 -389q-19 -23 -48.5 -55t-49.5 -53l-20 -20v-3q95 5 153 5h288v-120h-599z" />
    <glyph glyph-name="zdotaccent" unicode="&#x17c;" horiz-adv-x="526" 
d="M40 0v96l213 261q12 14 31 33.5t32 31.5l14 13v3q-67 -6 -108 -6h-162v102h419v-87l-212 -260q-13 -15 -34.5 -36.5t-36.5 -34.5l-14 -14v-3q72 5 116 5h194v-104h-452zM207 621v123h130v-123h-130z" />
    <glyph glyph-name="Zcaron" unicode="&#x17d;" horiz-adv-x="679" 
d="M510 908l-105 -123h-129l-104 123h117l50 -59h2l52 59h117zM37 0v118l316 394q17 21 44 50t45 48l19 18v3q-91 -4 -146 -4h-251v117h557v-109l-308 -389q-19 -23 -48.5 -55t-49.5 -53l-20 -20v-3q95 5 153 5h288v-120h-599z" />
    <glyph glyph-name="zcaron" unicode="&#x17e;" horiz-adv-x="526" 
d="M439 755l-103 -137h-129l-102 137h116l49 -77h2l51 77h116zM40 0v96l213 261q12 14 31 33.5t32 31.5l14 13v3q-67 -6 -108 -6h-162v102h419v-87l-212 -260q-13 -15 -34.5 -36.5t-36.5 -34.5l-14 -14v-3q72 5 116 5h194v-104h-452z" />
    <glyph glyph-name="florin" unicode="&#x192;" horiz-adv-x="433" 
d="M38 341v87h105l23 156q11 71 47 104q56 51 196 34v-95q-58 5 -84 -6.5t-32 -51.5l-20 -141h114v-87h-127l-51 -363q-13 -74 -46 -105q-48 -45 -168 -29v90q41 -3 60 7t25 48l51 352h-93z" />
    <glyph glyph-name="AEacute" unicode="&#x1fc;" horiz-adv-x="1029" 
d="M548 785l48 128h154l-100 -128h-102zM972 744v-118h-372v-185h326v-111h-326v-206h384v-124h-524v179h-244l-61 -179h-138l261 744h694zM368 626l-117 -345h209v345h-92z" />
    <glyph glyph-name="aeacute" unicode="&#x1fd;" horiz-adv-x="926" 
d="M234 -14q-93 0 -145.5 41t-52.5 118q0 44 15.5 74.5t47.5 48t67.5 27t88.5 15.5q71 9 101.5 24t30.5 48q0 36 -24.5 57t-71.5 21q-104 0 -110 -86h-119q3 74 61.5 124t166.5 50q133 0 180 -76q65 76 173 76q110 0 178 -74q76 -80 74 -239h-385q6 -72 42 -113t101 -41
q84 0 110 70h124q-19 -76 -80.5 -121.5t-154.5 -45.5q-143 0 -207 111q-40 -57 -90 -83t-121 -26zM254 74q63 0 99.5 36t36.5 84v78q-32 -20 -105 -34q-65 -13 -93.5 -31t-28.5 -59q0 -74 91 -74zM642 456q-113 0 -131 -141h253q-3 66 -36 103.5t-86 37.5zM423 618l53 154
h150l-105 -154h-98z" />
    <glyph glyph-name="Oslashacute" unicode="&#x1fe;" horiz-adv-x="812" 
d="M77 -42l-51 46l97 107q-83 103 -83 259q0 170 100 279t266 109q139 0 235 -80l88 97l52 -45l-92 -101q83 -106 83 -259q0 -169 -100 -278t-266 -109q-139 0 -235 79zM181 370q0 -94 34 -159l342 375q-56 58 -150 58q-107 0 -166.5 -76.5t-59.5 -197.5zM407 100
q107 0 165 75t58 195q0 92 -33 159l-341 -374q58 -55 151 -55zM346 785l48 128h154l-100 -128h-102z" />
    <glyph glyph-name="oslashacute" unicode="&#x1ff;" horiz-adv-x="606" 
d="M62 -44l-43 38l76 83q-64 78 -64 189q0 121 75.5 201.5t197.5 80.5q99 0 169 -56l70 77l43 -38l-72 -79q61 -77 61 -186q0 -121 -74.5 -201.5t-196.5 -80.5q-96 0 -168 53zM158 266q0 -57 17 -100l226 248q-36 41 -98 41q-69 0 -107 -52.5t-38 -136.5zM303 80
q68 0 106 51.5t38 134.5q0 54 -15 96l-224 -246q36 -36 95 -36zM250 618l53 154h150l-105 -154h-98z" />
    <glyph glyph-name="Scommaaccent" unicode="&#x218;" horiz-adv-x="682" 
d="M401 -51v-80q0 -59 -36 -89.5t-97 -34.5v49q63 11 63 55h-61v100h131zM353 -17q-150 0 -235 69.5t-90 185.5h139q15 -144 187 -144q64 0 106 28t42 81q0 23 -9.5 41t-23 29.5t-42.5 22t-51 16.5t-66 16q-49 11 -81 20.5t-68 26.5t-57 38.5t-35 55t-14 76.5
q0 103 75.5 157.5t199.5 54.5q128 0 202 -58t85 -162h-135q-8 55 -48 84.5t-106 29.5q-63 0 -100.5 -25t-37.5 -69q0 -47 42.5 -68.5t144.5 -42.5q48 -11 81 -20.5t71 -27.5t60.5 -41t37.5 -59.5t15 -83.5q0 -108 -81 -169.5t-208 -61.5z" />
    <glyph glyph-name="scommaaccent" unicode="&#x219;" horiz-adv-x="531" 
d="M327 -51v-80q0 -59 -36 -89.5t-97 -34.5v49q63 11 63 55h-61v100h131zM272 -17q-112 0 -177 49t-71 132h122q14 -91 127 -91q51 0 77 19.5t26 53.5q0 16 -7 27.5t-16 18.5t-31 13.5t-36.5 10t-47.5 9.5q-47 9 -74 17.5t-59 26t-47 47.5t-15 73q0 75 58 117t153 42
q103 0 159.5 -42t66.5 -115h-121q-14 71 -106 71q-43 0 -66.5 -17.5t-23.5 -46.5q0 -31 29.5 -44t100.5 -26q4 -1 6 -1q37 -7 60.5 -13t53 -19t46.5 -29.5t29 -45t12 -66.5q0 -82 -63 -126.5t-165 -44.5z" />
    <glyph glyph-name="uni021A" unicode="&#x21a;" horiz-adv-x="661" 
d="M29 625v119h604v-119h-233v-625h-139v625h-232zM397 -51v-80q0 -59 -36 -89.5t-97 -34.5v49q63 11 63 55h-61v100h131z" />
    <glyph glyph-name="uni021B" unicode="&#x21b;" horiz-adv-x="371" 
d="M26 447v87h82v170h125v-170h107v-87h-107v-299q0 -28 14 -39t43 -11q21 0 41 4h6v-99q-42 -8 -84 -8q-145 0 -145 125v327h-82zM279 -51v-80q0 -59 -36 -89.5t-97 -34.5v49q63 11 63 55h-61v100h131z" />
    <glyph glyph-name="uni0237" unicode="&#x237;" horiz-adv-x="243" 
d="M42 -176q-39 0 -72 7v93h5h33q26 2 38 13.5t12 39.5v557h127v-562q0 -80 -38 -115q-37 -33 -105 -33z" />
    <glyph glyph-name="circumflex" unicode="&#x2c6;" 
d="M83 621l103 136h129l102 -136h-116l-49 77h-2l-51 -77h-116z" />
    <glyph glyph-name="caron" unicode="&#x2c7;" 
d="M417 755l-103 -137h-129l-102 137h116l49 -77h2l51 77h116z" />
    <glyph glyph-name="uni02C9" unicode="&#x2c9;" 
d="M104 636v94h294v-94h-294z" />
    <glyph glyph-name="breve" unicode="&#x2d8;" 
d="M271 613q-64 0 -106.5 38.5t-45.5 103.5h79q8 -59 72 -59q30 0 49 16t23 43h77q-2 -63 -42.5 -102.5t-105.5 -39.5z" />
    <glyph glyph-name="dotaccent" unicode="&#x2d9;" 
d="M185 621v123h130v-123h-130z" />
    <glyph glyph-name="ring" unicode="&#x2da;" 
d="M251 597q-46 0 -78 30.5t-32 75.5q0 44 32 75t78 31q44 0 76 -31.5t32 -74.5q0 -45 -31.5 -75.5t-76.5 -30.5zM251 647q23 0 38 16t15 40t-15 40.5t-38 16.5q-24 0 -39.5 -16.5t-15.5 -40.5t15.5 -40t39.5 -16z" />
    <glyph glyph-name="ogonek" unicode="&#x2db;" 
d="M232 -187q-57 0 -87 23t-30 63q0 63 80 101h84q-56 -44 -56 -80q0 -31 38 -31q19 0 34 5h3v-72q-23 -9 -66 -9z" />
    <glyph glyph-name="tilde" unicode="&#x2dc;" 
d="M321 621q-32 0 -74 20t-53 20q-13 0 -22.5 -11t-10.5 -29h-74q1 60 27.5 92.5t69.5 32.5q33 0 72 -20t54 -20q26 0 31 38h75q-2 -58 -26 -90.5t-69 -32.5z" />
    <glyph glyph-name="hungarumlaut" unicode="&#x2dd;" 
d="M281 618l41 154h125l-82 -154h-84zM110 618l42 154h126l-83 -154h-85z" />
    <glyph glyph-name="uni0394" unicode="&#x394;" horiz-adv-x="716" 
d="M28 0v101l251 643h157l253 -643v-101h-661zM303 463l-135 -354h373l-135 354q-15 39 -27.5 82t-17.5 66l-5 23h-2q-18 -83 -51 -171z" />
    <glyph glyph-name="uni03A9" unicode="&#x3a9;" horiz-adv-x="775" 
d="M43 0v109h125v2q-131 84 -131 280q0 164 97.5 266t253.5 102q155 0 253 -102.5t98 -265.5q0 -195 -133 -280v-2h126v-109h-306v104q86 14 129 91t43 191q0 119 -56 188.5t-154 69.5t-154.5 -69.5t-56.5 -188.5q0 -114 43 -191t129 -91v-104h-306z" />
    <glyph glyph-name="uni03BC" unicode="&#x3bc;" horiz-adv-x="587" 
d="M58 -179v713h127v-342q0 -47 26 -73.5t74 -26.5q53 0 85.5 36.5t32.5 92.5v313h126v-534h-123v76h-2q-54 -86 -149 -86q-49 0 -71 24h-2q3 -46 3 -100v-93h-127z" />
    <glyph glyph-name="pi" unicode="&#x3c0;" horiz-adv-x="675" 
d="M25 447v87h617v-87h-91v-306q0 -25 10.5 -35t34.5 -10q12 0 34 5h4v-98q-34 -9 -74 -9q-135 0 -135 125v328h-190v-447h-127v447h-83z" />
    <glyph glyph-name="Wgrave" unicode="&#x1e80;" horiz-adv-x="983" 
d="M436 785l-100 128h154l47 -128h-101zM211 0l-198 744h142l88 -360q10 -40 19.5 -101t14.5 -101l5 -41h2q24 158 45 247l91 356h136l90 -355q9 -40 20 -102t17 -104l6 -42h2q20 153 43 244l88 359h142l-206 -744h-135l-95 389q-9 35 -18.5 91t-15.5 94l-5 38h-2
q-20 -144 -38 -223l-100 -389h-138z" />
    <glyph glyph-name="wgrave" unicode="&#x1e81;" horiz-adv-x="803" 
d="M175 0l-167 534h132l69 -249q8 -28 16 -68t13 -67l4 -26h2q17 97 35 161l66 249h112l68 -249l34 -162h2q15 97 34 162l71 249h128l-170 -534h-122l-67 254l-33 157h-2q-20 -101 -34 -157l-69 -254h-122zM358 618l-106 154h151l53 -154h-98z" />
    <glyph glyph-name="Wacute" unicode="&#x1e82;" horiz-adv-x="983" 
d="M431 785l48 128h154l-100 -128h-102zM211 0l-198 744h142l88 -360q10 -40 19.5 -101t14.5 -101l5 -41h2q24 158 45 247l91 356h136l90 -355q9 -40 20 -102t17 -104l6 -42h2q20 153 43 244l88 359h142l-206 -744h-135l-95 389q-9 35 -18.5 91t-15.5 94l-5 38h-2
q-20 -144 -38 -223l-100 -389h-138z" />
    <glyph glyph-name="wacute" unicode="&#x1e83;" horiz-adv-x="803" 
d="M348 618l53 154h150l-105 -154h-98zM175 0l-167 534h132l69 -249q8 -28 16 -68t13 -67l4 -26h2q17 97 35 161l66 249h112l68 -249l34 -162h2q15 97 34 162l71 249h128l-170 -534h-122l-67 254l-33 157h-2q-20 -101 -34 -157l-69 -254h-122z" />
    <glyph glyph-name="Wdieresis" unicode="&#x1e84;" horiz-adv-x="983" 
d="M538 785v122h125v-122h-125zM313 785v122h125v-122h-125zM211 0l-198 744h142l88 -360q10 -40 19.5 -101t14.5 -101l5 -41h2q24 158 45 247l91 356h136l90 -355q9 -40 20 -102t17 -104l6 -42h2q20 153 43 244l88 359h142l-206 -744h-135l-95 389q-9 35 -18.5 91t-15.5 94
l-5 38h-2q-20 -144 -38 -223l-100 -389h-138z" />
    <glyph glyph-name="wdieresis" unicode="&#x1e85;" horiz-adv-x="803" 
d="M451 621v123h122v-123h-122zM229 621v123h122v-123h-122zM175 0l-167 534h132l69 -249q8 -28 16 -68t13 -67l4 -26h2q17 97 35 161l66 249h112l68 -249l34 -162h2q15 97 34 162l71 249h128l-170 -534h-122l-67 254l-33 157h-2q-20 -101 -34 -157l-69 -254h-122z" />
    <glyph glyph-name="Ygrave" unicode="&#x1ef2;" horiz-adv-x="692" 
d="M275 0v294l-261 450h153l105 -188q15 -27 33.5 -66.5t29.5 -65.5l11 -27h2q42 98 75 159l106 188h147l-262 -452v-292h-139zM294 785l-100 128h154l47 -128h-101z" />
    <glyph glyph-name="ygrave" unicode="&#x1ef3;" horiz-adv-x="539" 
d="M150 -182q-75 0 -93 6v103h7q8 -5 53 -5q63 0 78 59q0 1 0.5 14t0.5 24t-1.5 26t-5.5 25l-184 464h135l88 -248q10 -29 21.5 -70.5t17.5 -68.5l6 -27h2q24 101 46 166l85 248h128l-207 -564q-32 -87 -71 -119.5t-106 -32.5zM231 618l-106 154h151l53 -154h-98z" />
    <glyph glyph-name="uni2009" unicode="&#x2009;" horiz-adv-x="110" 
 />
    <glyph glyph-name="endash" unicode="&#x2013;" 
d="M0 210v109h500v-109h-500z" />
    <glyph glyph-name="emdash" unicode="&#x2014;" horiz-adv-x="1000" 
d="M200 210v109h600v-109h-600z" />
    <glyph glyph-name="quoteleft" unicode="&#x2018;" horiz-adv-x="216" 
d="M46 468v124q0 73 35.5 110.5t91.5 44.5v-55q-60 -17 -60 -89v-7h58v-128h-125z" />
    <glyph glyph-name="quoteright" unicode="&#x2019;" horiz-adv-x="216" 
d="M171 744v-124q0 -73 -36 -111t-91 -44v54q59 18 59 90v7h-57v128h125z" />
    <glyph glyph-name="quotesinglbase" unicode="&#x201a;" horiz-adv-x="216" 
d="M171 128v-124q0 -72 -36 -110.5t-91 -44.5v54q59 18 59 90v7h-57v128h125z" />
    <glyph glyph-name="quotedblleft" unicode="&#x201c;" horiz-adv-x="408" 
d="M238 468v124q0 73 35.5 110.5t90.5 44.5v-55q-59 -17 -59 -89v-7h57v-128h-124zM46 468v124q0 73 35.5 110.5t91.5 44.5v-55q-60 -17 -60 -89v-7h58v-128h-125z" />
    <glyph glyph-name="quotedblright" unicode="&#x201d;" horiz-adv-x="408" 
d="M171 744v-124q0 -73 -36 -111t-91 -44v54q59 18 59 90v7h-57v128h125zM362 744v-124q0 -73 -36 -111t-91 -44v54q60 19 60 90v7h-57v128h124z" />
    <glyph glyph-name="quotedblbase" unicode="&#x201e;" horiz-adv-x="408" 
d="M171 128v-124q0 -72 -36 -110.5t-91 -44.5v54q59 18 59 90v7h-57v128h125zM362 128v-124q0 -72 -36 -110.5t-91 -44.5v54q60 19 60 90v7h-57v128h124z" />
    <glyph glyph-name="dagger" unicode="&#x2020;" horiz-adv-x="611" 
d="M44 435v107h194v202h133v-202h195v-107h-195v-564h-133v564h-194z" />
    <glyph glyph-name="daggerdbl" unicode="&#x2021;" horiz-adv-x="611" 
d="M44 435v107h194v202h133v-202h195v-107h-195v-255h195v-108h-195v-201h-133v201h-194v108h194v255h-194z" />
    <glyph glyph-name="bullet" unicode="&#x2022;" horiz-adv-x="371" 
d="M186 196q-58 0 -99 40.5t-41 98.5t41 99.5t99 41.5q57 0 98 -41.5t41 -99.5t-41 -98.5t-98 -40.5z" />
    <glyph glyph-name="ellipsis" unicode="&#x2026;" horiz-adv-x="769" 
d="M49 0v139h139v-139h-139zM315 0v139h140v-139h-140zM582 0v139h139v-139h-139z" />
    <glyph glyph-name="perthousand" unicode="&#x2030;" horiz-adv-x="1318" 
d="M213 0l396 712h84l-396 -712h-84zM213 314q-79 0 -129 57t-50 150t50.5 150t128.5 57q79 0 128.5 -56t49.5 -151q0 -94 -49.5 -150.5t-128.5 -56.5zM693 -17q-79 0 -129 57t-50 151q0 93 50.5 150t128.5 57q80 0 129.5 -56.5t49.5 -150.5t-49.5 -151t-129.5 -57zM213 391
q38 0 57.5 35.5t19.5 94.5t-20 95.5t-57 36.5t-56 -36t-19 -96q0 -59 19 -94.5t56 -35.5zM693 61q38 0 57 35.5t19 94.5t-19.5 95.5t-56.5 36.5t-56 -36t-19 -96q0 -59 19 -94.5t56 -35.5zM1106 -17q-80 0 -130 57t-50 151q0 93 51 150t129 57q79 0 129 -56.5t50 -150.5
t-50 -151t-129 -57zM1106 61q38 0 57 35.5t19 94.5q0 58 -20 95t-56 37q-38 0 -57 -36t-19 -96q0 -59 19 -94.5t57 -35.5z" />
    <glyph glyph-name="uni2032" unicode="&#x2032;" horiz-adv-x="220" 
d="M31 483l46 261h112l-45 -261h-113z" />
    <glyph glyph-name="uni2033" unicode="&#x2033;" horiz-adv-x="404" 
d="M215 483l45 261h112l-44 -261h-113zM31 483l46 261h112l-45 -261h-113z" />
    <glyph glyph-name="guilsinglleft" unicode="&#x2039;" horiz-adv-x="311" 
d="M242 51l-174 158v126l174 157v-123l-108 -97v-2l108 -96v-123z" />
    <glyph glyph-name="guilsinglright" unicode="&#x203a;" horiz-adv-x="311" 
d="M68 492l174 -158v-125l-174 -158v123l109 97v2l-109 97v122z" />
    <glyph glyph-name="fraction" unicode="&#x2044;" horiz-adv-x="253" 
d="M-276 -130l637 874h96l-638 -874h-95z" />
    <glyph glyph-name="zero.superior" unicode="&#x2070;" horiz-adv-x="479" 
d="M240 276q-91 0 -148.5 65.5t-57.5 174.5q0 107 58 172.5t148 65.5q91 0 148 -65t57 -173q0 -109 -57 -174.5t-148 -65.5zM240 358q96 0 96 158q0 72 -24 115t-72 43t-72 -42.5t-24 -115.5t24 -115.5t72 -42.5z" />
    <glyph glyph-name="four.superior" unicode="&#x2074;" horiz-adv-x="446" 
d="M253 287v100h-222v92l223 270h104v-286h69v-76h-69v-100h-105zM99 458q46 5 75 5h79v111l7 76h-2q-27 -42 -47 -65l-55 -68q-9 -11 -23.5 -25.5t-24.5 -23.5l-9 -8v-2z" />
    <glyph glyph-name="five.superior" unicode="&#x2075;" horiz-adv-x="420" 
d="M207 276q-77 0 -127.5 37.5t-58.5 99.5h99q7 -25 29 -40.5t56 -15.5q36 0 59 23t23 60q0 39 -23 60t-59 21q-50 0 -77 -32h-92l47 255h279v-82h-209l-19 -104h2q34 37 97 37q68 0 113 -41.5t45 -112.5q0 -74 -51.5 -119.5t-132.5 -45.5z" />
    <glyph glyph-name="six.superior" unicode="&#x2076;" horiz-adv-x="444" 
d="M234 277q-88 0 -140 54q-60 61 -60 185q0 113 52 175q53 64 149 64q69 0 112 -33.5t54 -88.5h-103q-11 47 -64 47q-90 0 -98 -137h2q38 55 113 55q67 0 114.5 -45t47.5 -114q1 -72 -49.5 -117t-129.5 -45zM230 355q36 0 59 23.5t23 59.5t-23 59.5t-59 23.5
q-38 0 -61.5 -23t-23.5 -60q0 -36 24 -59.5t61 -23.5z" />
    <glyph glyph-name="seven.superior" unicode="&#x2077;" horiz-adv-x="388" 
d="M207 287h-113q4 113 53 209.5t124 161.5v3q-36 -5 -110 -5h-137v88h344v-80q-67 -66 -112 -163.5t-49 -213.5z" />
    <glyph glyph-name="eight.superior" unicode="&#x2078;" horiz-adv-x="442" 
d="M222 276q-85 0 -139.5 37.5t-54.5 103.5q0 86 96 116v3q-74 28 -74 93q0 57 47.5 91t123.5 34q78 0 125 -33t47 -89q0 -67 -73 -94v-3q46 -13 70.5 -43.5t24.5 -71.5q0 -69 -53.5 -106.5t-139.5 -37.5zM221 565q35 0 54 16t19 44q0 27 -19 43t-54 16q-34 0 -52.5 -16
t-18.5 -43q0 -28 18.5 -44t52.5 -16zM221 352q41 0 64.5 19t23.5 52q0 34 -23 54.5t-64 20.5q-40 0 -64 -20.5t-24 -54.5q0 -33 23.5 -52t63.5 -19z" />
    <glyph glyph-name="nine.superior" unicode="&#x2079;" horiz-adv-x="443" 
d="M217 276q-71 0 -119 35t-56 90h101q14 -49 71 -49q43 0 64 30q26 32 29 103h-2q-43 -53 -108 -53q-69 0 -117 45t-48 115q0 72 51.5 117t131.5 45q74 0 127 -42q68 -54 68 -197q0 -126 -56 -186q-51 -53 -137 -53zM217 509q38 0 61 23.5t23 60.5q0 36 -23.5 60t-60.5 24
t-61 -24t-24 -60q0 -37 24 -60.5t61 -23.5z" />
    <glyph glyph-name="zero.inferior" unicode="&#x2080;" horiz-adv-x="479" 
d="M240 -171q-91 0 -148.5 65.5t-57.5 174.5q0 107 58 172.5t148 65.5q91 0 148 -65t57 -173q0 -109 -57 -174.5t-148 -65.5zM240 -90q96 0 96 159q0 72 -24 115t-72 43t-72 -42.5t-24 -115.5t24 -116t72 -43z" />
    <glyph glyph-name="one.inferior" unicode="&#x2081;" horiz-adv-x="314" 
d="M143 -160v298h-114v71q118 3 133 92h87v-461h-106z" />
    <glyph glyph-name="two.inferior" unicode="&#x2082;" horiz-adv-x="416" 
d="M28 -160q1 65 33 108.5t88 81.5q15 11 48 31.5t45.5 30.5t25 28t12.5 38q0 30 -18 48t-50 18q-35 0 -55.5 -23.5t-20.5 -62.5h-100q0 78 49 123t131 45q77 0 122.5 -41.5t45.5 -102.5q0 -35 -15 -63.5t-32 -43.5t-49 -37q-13 -9 -45 -28.5t-52 -35t-30 -30.5h223v-84
h-356z" />
    <glyph glyph-name="three.inferior" unicode="&#x2083;" horiz-adv-x="425" 
d="M216 -171q-91 0 -142.5 44.5t-52.5 114.5h100q2 -35 24 -57t65 -22q38 0 59 18t21 51q0 65 -87 65h-28v73h25q79 0 79 58q0 27 -19 42.5t-49 15.5q-36 0 -55.5 -20t-21.5 -51h-99q2 64 50 105t129 41q74 0 120 -34.5t46 -93.5q0 -66 -81 -93v-1q97 -24 97 -113
q0 -69 -51 -106t-129 -37z" />
    <glyph glyph-name="four.inferior" unicode="&#x2084;" horiz-adv-x="446" 
d="M253 -160v100h-222v92l223 270h104v-286h69v-76h-69v-100h-105zM99 11q46 5 75 5h79v111l7 76h-2q-27 -42 -47 -65l-55 -68q-9 -11 -23.5 -25.5t-24.5 -22.5l-9 -9v-2z" />
    <glyph glyph-name="five.inferior" unicode="&#x2085;" horiz-adv-x="420" 
d="M207 -171q-77 0 -127.5 37.5t-58.5 99.5h99q7 -25 29 -40.5t56 -15.5q36 0 59 23t23 60q0 39 -23 60t-59 21q-50 0 -77 -32h-92l47 255h279v-82h-209l-19 -104h2q34 37 97 37q68 0 113 -41.5t45 -112.5q0 -74 -51.5 -119.5t-132.5 -45.5z" />
    <glyph glyph-name="six.inferior" unicode="&#x2086;" horiz-adv-x="444" 
d="M234 -171q-87 0 -140 55q-60 60 -60 185q0 113 52 175q53 64 149 64q69 0 112 -33.5t54 -88.5h-103q-11 47 -64 47q-90 0 -98 -137h2q38 55 113 55q67 0 114.5 -45t47.5 -114q1 -72 -50 -117.5t-129 -45.5zM230 -92q36 0 59 23.5t23 59.5t-23 59.5t-59 23.5
q-38 0 -61.5 -23t-23.5 -60q0 -36 24 -59.5t61 -23.5z" />
    <glyph glyph-name="seven.inferior" unicode="&#x2087;" horiz-adv-x="388" 
d="M207 -160h-113q4 113 53 209.5t124 161.5v3q-36 -5 -110 -5h-137v88h344v-81q-67 -65 -112 -162.5t-49 -213.5z" />
    <glyph glyph-name="eight.inferior" unicode="&#x2088;" horiz-adv-x="442" 
d="M222 -171q-85 0 -139.5 37.5t-54.5 103.5q0 86 96 116v3q-74 28 -74 93q0 57 47.5 91t123.5 34q78 0 125 -33t47 -89q0 -67 -73 -94v-3q46 -13 70.5 -43.5t24.5 -71.5q0 -69 -53.5 -106.5t-139.5 -37.5zM221 118q35 0 54 16t19 44q0 27 -19 43t-54 16q-34 0 -52.5 -16
t-18.5 -43q0 -28 18.5 -44t52.5 -16zM221 -95q41 0 64.5 19.5t23.5 51.5q0 34 -23 54.5t-64 20.5q-40 0 -64 -20.5t-24 -54.5q0 -33 23.5 -52t63.5 -19z" />
    <glyph glyph-name="nine.inferior" unicode="&#x2089;" horiz-adv-x="443" 
d="M217 -171q-71 0 -119 35t-56 90h101q14 -49 71 -49q43 0 64 30q26 32 29 103h-2q-41 -53 -108 -53q-69 0 -117 45t-48 115q0 72 51.5 117t131.5 45q74 0 127 -42q68 -54 68 -197q0 -126 -56 -186q-51 -53 -137 -53zM217 62q38 0 61 23.5t23 60.5q0 36 -23.5 60t-60.5 24
t-61 -24t-24 -60q0 -37 24 -60.5t61 -23.5z" />
    <glyph glyph-name="Euro" unicode="&#x20ac;" horiz-adv-x="673" 
d="M29 391v62h59q23 125 101 200t191 75q110 0 178 -63t79 -165h-129q-23 121 -131 121q-62 0 -100.5 -44t-52.5 -124h183v-62h-190q-1 -12 -1 -36q0 -27 1 -40h190v-62h-182q31 -160 159 -160q60 0 94.5 39.5t41.5 105.5h125q-5 -111 -75 -182.5t-185 -71.5
q-113 0 -192.5 72t-104.5 197h-59v62h51q-1 13 -1 40q0 24 1 36h-51z" />
    <glyph glyph-name="afii61289" unicode="&#x2113;" horiz-adv-x="417" 
d="M76 273v324q0 79 43.5 117t116.5 38t110.5 -40t37.5 -131q0 -127 -48 -207t-138 -131v-71q0 -40 15.5 -56t52.5 -16q30 0 72 16h3v-101q-44 -20 -103 -20q-79 0 -120.5 36.5t-41.5 122.5v37q-35 -12 -59 -18v79q46 15 59 21zM243 388q47 70 47 196q0 80 -45 80
q-47 0 -47 -64v-267q28 26 45 55z" />
    <glyph glyph-name="trademark" unicode="&#x2122;" horiz-adv-x="920" 
d="M437 362v382h129l42 -139l35 -144h2q19 92 35 144l42 139h131v-382h-85v126l3 167h-3q-22 -92 -44 -159l-41 -134h-79l-42 134l-43 159h-2q3 -102 3 -167v-126h-83zM45 666v78h325v-78h-115v-304h-94v304h-116z" />
    <glyph glyph-name="Omega" unicode="&#x2126;" horiz-adv-x="775" 
d="M43 0v109h125v2q-131 84 -131 280q0 164 97.5 266t253.5 102q155 0 253 -102.5t98 -265.5q0 -195 -133 -280v-2h126v-109h-306v104q86 14 129 91t43 191q0 119 -56 188.5t-154 69.5t-154.5 -69.5t-56.5 -188.5q0 -114 43 -191t129 -91v-104h-306z" />
    <glyph glyph-name="estimated" unicode="&#x212e;" horiz-adv-x="720" 
d="M679 335h-477v-242q68 -55 176 -55q184 0 242 169h55q-24 -100 -100 -160t-197 -60q-158 0 -248 98.5t-90 257.5q0 156 93.5 255t239.5 99q121 0 198 -66q110 -91 108 -296zM373 650q-104 0 -171 -57v-212h318v226q-58 43 -147 43z" />
    <glyph glyph-name="onethird" unicode="&#x2153;" horiz-adv-x="937" 
d="M146 287v298h-114v71q118 3 133 93h87v-462h-106zM51 -130l637 874h96l-638 -874h-95zM724 -121q-91 0 -142.5 44.5t-52.5 114.5h100q2 -35 24 -57t65 -22q38 0 59 18t21 51q0 65 -87 65h-28v73h25q79 0 79 58q0 27 -19 42.5t-49 15.5q-36 0 -55.5 -20t-21.5 -51h-99
q2 64 50 105t129 41q74 0 120 -34.5t46 -93.5q0 -66 -81 -93v-1q97 -24 97 -113q0 -69 -51 -106t-129 -37z" />
    <glyph glyph-name="twothirds" unicode="&#x2154;" horiz-adv-x="1019" 
d="M31 287q1 65 33 108.5t88 82.5q15 10 48.5 31t45.5 30.5t24.5 27.5t12.5 38q0 30 -18 48t-50 18q-35 0 -55.5 -23.5t-20.5 -62.5h-100q0 79 48.5 123.5t131.5 44.5q77 0 122.5 -41.5t45.5 -102.5q0 -35 -15 -63.5t-32 -43.5t-49 -37q-13 -9 -45 -28.5t-52 -35t-30 -30.5
h223v-84h-356zM149 -130l637 874h96l-638 -874h-95zM807 -121q-91 0 -142.5 44.5t-52.5 114.5h100q2 -35 24 -57t65 -22q38 0 59 18t21 51q0 65 -87 65h-28v73h25q79 0 79 58q0 27 -19 42.5t-49 15.5q-36 0 -55.5 -20t-21.5 -51h-99q2 64 50 105t129 41q74 0 120 -34.5
t46 -93.5q0 -66 -81 -93v-1q97 -24 97 -113q0 -69 -51 -106t-129 -37z" />
    <glyph glyph-name="oneeighth" unicode="&#x215b;" horiz-adv-x="929" 
d="M146 287v298h-114v71q118 3 133 93h87v-462h-106zM45 -130l637 874h96l-638 -874h-95zM706 -121q-85 0 -139.5 37.5t-54.5 103.5q0 86 96 116v3q-74 28 -74 93q0 57 47.5 91t123.5 34q78 0 125 -33t47 -89q0 -67 -73 -94v-3q46 -13 70.5 -43.5t24.5 -71.5
q0 -69 -53.5 -106.5t-139.5 -37.5zM705 168q35 0 54 16t19 44q0 27 -19 43t-54 16q-34 0 -52.5 -16t-18.5 -43q0 -28 18.5 -44t52.5 -16zM705 -45q41 0 64.5 19t23.5 52q0 34 -23 54.5t-64 20.5q-40 0 -64 -20.5t-24 -54.5q0 -33 23.5 -52t63.5 -19z" />
    <glyph glyph-name="threeeighths" unicode="&#x215c;" horiz-adv-x="999" 
d="M219 276q-91 0 -142.5 44.5t-52.5 114.5h100q2 -35 24 -57t65 -22q38 0 59 18t21 51q0 65 -87 65h-28v73h25q79 0 79 58q0 27 -19 42.5t-49 15.5q-36 0 -55.5 -20t-21.5 -51h-99q2 64 50 105t129 41q74 0 120 -34.5t46 -93.5q0 -66 -81 -93v-1q97 -24 97 -113
q0 -69 -51 -106t-129 -37zM124 -130l637 874h96l-638 -874h-95zM775 -121q-85 0 -139.5 37.5t-54.5 103.5q0 86 96 116v3q-74 28 -74 93q0 57 47.5 91t123.5 34q78 0 125 -33t47 -89q0 -67 -73 -94v-3q46 -13 70.5 -43.5t24.5 -71.5q0 -69 -53.5 -106.5t-139.5 -37.5z
M774 168q35 0 54 16t19 44q0 27 -19 43t-54 16q-34 0 -52.5 -16t-18.5 -43q0 -28 18.5 -44t52.5 -16zM774 -45q41 0 64.5 19t23.5 52q0 34 -23 54.5t-64 20.5q-40 0 -64 -20.5t-24 -54.5q0 -33 23.5 -52t63.5 -19z" />
    <glyph glyph-name="fiveeighths" unicode="&#x215d;" horiz-adv-x="983" 
d="M210 276q-77 0 -127.5 37.5t-58.5 99.5h99q7 -25 29 -40.5t56 -15.5q36 0 59 23t23 60q0 39 -23 60t-59 21q-50 0 -77 -32h-92l47 255h279v-82h-209l-19 -104h2q34 37 97 37q68 0 113 -41.5t45 -112.5q0 -74 -51.5 -119.5t-132.5 -45.5zM110 -130l637 874h96l-638 -874
h-95zM759 -121q-85 0 -139.5 37.5t-54.5 103.5q0 86 96 116v3q-74 28 -74 93q0 57 47.5 91t123.5 34q78 0 125 -33t47 -89q0 -67 -73 -94v-3q46 -13 70.5 -43.5t24.5 -71.5q0 -69 -53.5 -106.5t-139.5 -37.5zM758 168q35 0 54 16t19 44q0 27 -19 43t-54 16q-34 0 -52.5 -16
t-18.5 -43q0 -28 18.5 -44t52.5 -16zM758 -45q41 0 64.5 19t23.5 52q0 34 -23 54.5t-64 20.5q-40 0 -64 -20.5t-24 -54.5q0 -33 23.5 -52t63.5 -19z" />
    <glyph glyph-name="seveneighths" unicode="&#x215e;" horiz-adv-x="945" 
d="M721 -121q-85 0 -139.5 37.5t-54.5 103.5q0 86 96 116v3q-74 28 -74 93q0 57 47.5 91t123.5 34q78 0 125 -33t47 -89q0 -67 -73 -94v-3q46 -13 70.5 -43.5t24.5 -71.5q0 -69 -53.5 -106.5t-139.5 -37.5zM44 -130l637 874h96l-638 -874h-95zM210 287h-113q4 113 53 209.5
t124 161.5v3q-36 -5 -110 -5h-137v88h344v-80q-67 -66 -112 -163.5t-49 -213.5zM720 -45q41 0 64.5 19t23.5 52q0 34 -23 54.5t-64 20.5q-40 0 -64 -20.5t-24 -54.5q0 -33 23.5 -52t63.5 -19zM720 168q35 0 54 16t19 44q0 27 -19 43t-54 16q-34 0 -52.5 -16t-18.5 -43
q0 -28 18.5 -44t52.5 -16z" />
    <glyph glyph-name="partialdiff" unicode="&#x2202;" horiz-adv-x="606" 
d="M429 432q-18 93 -79.5 143t-177.5 68v108q203 -20 296.5 -131.5t93.5 -307.5q0 -142 -72 -235t-210 -93q-111 0 -176.5 64t-65.5 163q0 118 72.5 195.5t186.5 77.5q89 0 132 -52zM282 79q67 0 106.5 55.5t39.5 129.5q0 59 -30 93t-87 34q-66 0 -105.5 -49.5t-39.5 -129.5
q0 -61 30 -97t86 -36z" />
    <glyph glyph-name="Delta" unicode="&#x2206;" horiz-adv-x="716" 
d="M28 0v101l251 643h157l253 -643v-101h-661zM303 463l-135 -354h373l-135 354q-15 39 -27.5 82t-17.5 66l-5 23h-2q-18 -83 -51 -171z" />
    <glyph glyph-name="product" unicode="&#x220f;" horiz-adv-x="757" 
d="M75 744h607v-848h-140v729h-328v-729h-139v848z" />
    <glyph glyph-name="summation" unicode="&#x2211;" horiz-adv-x="671" 
d="M626 -104h-576v122l274 310v2l-274 298v116h566v-112h-406v-2l253 -271v-55l-260 -289v-2h423v-117z" />
    <glyph glyph-name="minus" unicode="&#x2212;" horiz-adv-x="604" 
d="M58 290v101h488v-101h-488z" />
    <glyph glyph-name="uni2215" unicode="&#x2215;" horiz-adv-x="253" 
d="M-276 -130l637 874h96l-638 -874h-95z" />
    <glyph glyph-name="uni2219" unicode="&#x2219;" horiz-adv-x="246" 
d="M53 258v140h140v-140h-140z" />
    <glyph glyph-name="radical" unicode="&#x221a;" horiz-adv-x="664" 
d="M23 224v112h170l63 -163q12 -33 24.5 -71.5t19.5 -60.5l6 -22h2q18 80 41 154l175 571h131l-273 -848h-143l-135 328h-81z" />
    <glyph glyph-name="infinity" unicode="&#x221e;" horiz-adv-x="747" 
d="M194 131q-77 0 -120 53.5t-43 132.5t43.5 132t119.5 53q59 0 101.5 -30.5t81.5 -85.5q37 55 78 85.5t97 30.5q73 0 118 -50.5t45 -134.5t-45 -135t-118 -51q-56 0 -97 31t-78 87q-38 -56 -81 -87t-102 -31zM202 405q-34 0 -51 -24.5t-17 -63.5t17 -64t51 -25q54 0 107 88
q-51 89 -107 89zM544 228q35 0 52.5 25t17.5 64t-17.5 63.5t-52.5 24.5q-29 0 -53 -23.5t-49 -65.5q26 -42 49.5 -65t52.5 -23z" />
    <glyph glyph-name="integral" unicode="&#x222b;" horiz-adv-x="370" 
d="M117 -15v611q0 160 164 160q49 0 85 -10v-99h-3q-20 6 -49 6q-36 0 -53 -15.5t-17 -50.5v-612q0 -160 -163 -160q-46 0 -86 10v100h3q36 -6 51 -6q35 0 51.5 15.5t16.5 50.5z" />
    <glyph glyph-name="approxequal" unicode="&#x2248;" horiz-adv-x="604" 
d="M426 357q-43 0 -129 19t-110 19q-39 0 -44 -45h-88q1 73 35 110.5t90 37.5q44 0 128.5 -19.5t105.5 -19.5q43 0 46 43h89q-2 -145 -123 -145zM426 155q-43 0 -129 19t-110 19q-39 0 -44 -45h-88q1 74 34.5 111t90.5 37q44 0 128.5 -19.5t105.5 -19.5q43 0 46 43h89
q-2 -145 -123 -145z" />
    <glyph glyph-name="notequal" unicode="&#x2260;" horiz-adv-x="602" 
d="M62 377v97h272l58 113h88l-58 -113h120v-97h-169l-54 -106h223v-97h-272l-57 -113h-88l57 113h-120v97h169l54 106h-223z" />
    <glyph glyph-name="lessequal" unicode="&#x2264;" horiz-adv-x="544" 
d="M57 0v98h425v-98h-425zM482 134l-425 155v126l425 155v-109l-200 -67l-142 -42v-2q88 -21 142 -38l200 -67v-111z" />
    <glyph glyph-name="greaterequal" unicode="&#x2265;" horiz-adv-x="544" 
d="M487 98v-98h-425v98h425zM487 289l-425 -155v109l201 68l141 41v2q-87 22 -141 39l-201 67v110l425 -155v-126z" />
    <glyph glyph-name="uni24C5" unicode="&#x24c5;" horiz-adv-x="865" 
d="M433 -18q-161 0 -271.5 110.5t-110.5 276.5t110.5 277t271.5 111t271.5 -111t110.5 -277t-110.5 -276.5t-271.5 -110.5zM433 28q140 0 233 97.5t93 243.5q0 147 -93 244.5t-233 97.5t-234 -97.5t-94 -244.5q0 -146 94 -243.5t234 -97.5zM284 163v420h188q71 0 112 -39
q38 -40 38 -98q0 -61 -37.5 -98t-102.5 -37h-103v-148h-95zM379 505v-120h82q32 0 49.5 15.5t17.5 43.5q0 29 -17 45t-49 16h-83z" />
    <glyph glyph-name="lozenge" unicode="&#x25ca;" horiz-adv-x="610" 
d="M374 744l210 -373l-209 -371h-139l-210 372l209 372h139zM161 374l91 -171q16 -31 29.5 -59.5t18.5 -41.5l5 -13h2q14 44 52 114l88 165l-90 171q-16 32 -29.5 60.5t-18.5 40.5l-5 13h-2q-15 -43 -52 -114z" />
    <glyph glyph-name="uniF8FF" unicode="&#xf8ff;" horiz-adv-x="880" 
d="M68 0v745h745v-745h-745zM190 448v-149h175v-176h150v176h175v149h-175v170h-150v-170h-175z" />
    <glyph glyph-name="dotlessj" horiz-adv-x="243" 
d="M42 -176q-39 0 -72 7v93h5h33q26 2 38 13.5t12 39.5v557h127v-562q0 -80 -38 -115q-37 -33 -105 -33z" />
    <glyph glyph-name="commaaccent" 
d="M317 -51v-80q0 -59 -36 -89.5t-97 -34.5v49q63 11 63 55h-61v100h131z" />
    <glyph glyph-name="f_i" horiz-adv-x="605" 
d="M25 446v88h82v59q0 85 50 119q41 34 131 34q27 0 57 -3v-95q-65 3 -88 -9t-23 -54v-51h110v-88h-110v-446h-127v446h-82zM421 0v534h126v-534h-126zM419 621v123h130v-123h-130z" />
    <glyph glyph-name="f_l" horiz-adv-x="608" 
d="M25 446v88h82v59q0 85 50 119q43 36 131 34q27 0 57 -3v-95q-65 3 -88 -9t-23 -54v-51h110v-88h-110v-446h-127v446h-82zM421 0v744h127v-744h-127z" />
    <glyph glyph-name="zero.denominator" horiz-adv-x="479" 
d="M240 -121q-91 0 -148.5 65.5t-57.5 174.5q0 107 58 172.5t148 65.5q91 0 148 -65t57 -173q0 -109 -57 -174.5t-148 -65.5zM240 -40q96 0 96 159q0 72 -24 115t-72 43t-72 -42.5t-24 -115.5t24 -116t72 -43z" />
    <glyph glyph-name="one.denominator" horiz-adv-x="314" 
d="M143 -110v298h-114v71q118 3 133 92h87v-461h-106z" />
    <glyph glyph-name="two.denominator" horiz-adv-x="416" 
d="M28 -110q1 65 33 108.5t88 81.5q15 11 48 31.5t45.5 30.5t25 28t12.5 38q0 30 -18 48t-50 18q-35 0 -55.5 -23.5t-20.5 -62.5h-100q0 78 49 123t131 45q77 0 122.5 -41.5t45.5 -102.5q0 -35 -15 -63.5t-32 -43.5t-49 -37q-13 -9 -45 -28.5t-52 -35t-30 -30.5h223v-84
h-356z" />
    <glyph glyph-name="three.denominator" horiz-adv-x="425" 
d="M216 -121q-91 0 -142.5 44.5t-52.5 114.5h100q2 -35 24 -57t65 -22q38 0 59 18t21 51q0 65 -87 65h-28v73h25q79 0 79 58q0 27 -19 42.5t-49 15.5q-36 0 -55.5 -20t-21.5 -51h-99q2 64 50 105t129 41q74 0 120 -34.5t46 -93.5q0 -66 -81 -93v-1q97 -24 97 -113
q0 -69 -51 -106t-129 -37z" />
    <glyph glyph-name="four.denominator" horiz-adv-x="446" 
d="M253 -110v100h-222v92l223 270h104v-286h69v-76h-69v-100h-105zM99 61q46 5 75 5h79v111l7 76h-2q-27 -42 -47 -65l-55 -68q-9 -11 -23.5 -25.5t-24.5 -22.5l-9 -9v-2z" />
    <glyph glyph-name="five.denominator" horiz-adv-x="420" 
d="M207 -121q-77 0 -127.5 37.5t-58.5 99.5h99q7 -25 29 -40.5t56 -15.5q36 0 59 23t23 60q0 39 -23 60t-59 21q-50 0 -77 -32h-92l47 255h279v-82h-209l-19 -104h2q34 37 97 37q68 0 113 -41.5t45 -112.5q0 -74 -51.5 -119.5t-132.5 -45.5z" />
    <glyph glyph-name="six.denominator" horiz-adv-x="444" 
d="M234 -121q-87 0 -140 55q-60 60 -60 185q0 113 52 175q53 64 149 64q69 0 112 -33.5t54 -88.5h-103q-11 47 -64 47q-90 0 -98 -137h2q38 55 113 55q67 0 114.5 -45t47.5 -114q1 -72 -50 -117.5t-129 -45.5zM230 -42q36 0 59 23.5t23 59.5t-23 59.5t-59 23.5
q-38 0 -61.5 -23t-23.5 -60q0 -36 24 -59.5t61 -23.5z" />
    <glyph glyph-name="seven.denominator" horiz-adv-x="388" 
d="M207 -110h-113q4 113 53 209.5t124 161.5v3q-36 -5 -110 -5h-137v88h344v-81q-67 -65 -112 -162.5t-49 -213.5z" />
    <glyph glyph-name="eight.denominator" horiz-adv-x="442" 
d="M222 -121q-85 0 -139.5 37.5t-54.5 103.5q0 86 96 116v3q-74 28 -74 93q0 57 47.5 91t123.5 34q78 0 125 -33t47 -89q0 -67 -73 -94v-3q46 -13 70.5 -43.5t24.5 -71.5q0 -69 -53.5 -106.5t-139.5 -37.5zM221 168q35 0 54 16t19 44q0 27 -19 43t-54 16q-34 0 -52.5 -16
t-18.5 -43q0 -28 18.5 -44t52.5 -16zM221 -45q41 0 64.5 19t23.5 52q0 34 -23 54.5t-64 20.5q-40 0 -64 -20.5t-24 -54.5q0 -33 23.5 -52t63.5 -19z" />
    <glyph glyph-name="nine.denominator" horiz-adv-x="443" 
d="M217 -121q-71 0 -119 35t-56 90h101q14 -49 71 -49q43 0 64 30q26 32 29 103h-2q-41 -53 -108 -53q-69 0 -117 45t-48 115q0 72 51.5 117t131.5 45q74 0 127 -42q68 -54 68 -197q0 -126 -56 -186q-51 -53 -137 -53zM217 112q38 0 61 23.5t23 60.5q0 36 -23.5 60t-60.5 24
t-61 -24t-24 -60q0 -37 24 -60.5t61 -23.5z" />
    <glyph glyph-name="zero.numerator" horiz-adv-x="479" 
d="M240 276q-91 0 -148.5 65.5t-57.5 174.5q0 107 58 172.5t148 65.5q91 0 148 -65t57 -173q0 -109 -57 -174.5t-148 -65.5zM240 358q96 0 96 158q0 72 -24 115t-72 43t-72 -42.5t-24 -115.5t24 -115.5t72 -42.5z" />
    <glyph glyph-name="one.numerator" horiz-adv-x="314" 
d="M143 287v298h-114v71q118 3 133 93h87v-462h-106z" />
    <glyph glyph-name="two.numerator" horiz-adv-x="416" 
d="M28 287q1 65 33 108.5t88 82.5q15 10 48.5 31t45.5 30.5t24.5 27.5t12.5 38q0 30 -18 48t-50 18q-35 0 -55.5 -23.5t-20.5 -62.5h-100q0 79 48.5 123.5t131.5 44.5q77 0 122.5 -41.5t45.5 -102.5q0 -35 -15 -63.5t-32 -43.5t-49 -37q-13 -9 -45 -28.5t-52 -35t-30 -30.5
h223v-84h-356z" />
    <glyph glyph-name="three.numerator" horiz-adv-x="425" 
d="M216 276q-91 0 -142.5 44.5t-52.5 114.5h100q2 -35 24 -57t65 -22q38 0 59 18t21 51q0 65 -87 65h-28v73h25q79 0 79 58q0 27 -19 42.5t-49 15.5q-36 0 -55.5 -20t-21.5 -51h-99q2 64 50 105t129 41q74 0 120 -34.5t46 -93.5q0 -66 -81 -93v-1q97 -24 97 -113
q0 -69 -51 -106t-129 -37z" />
    <glyph glyph-name="four.numerator" horiz-adv-x="446" 
d="M253 287v100h-222v92l223 270h104v-286h69v-76h-69v-100h-105zM99 458q46 5 75 5h79v111l7 76h-2q-27 -42 -47 -65l-55 -68q-9 -11 -23.5 -25.5t-24.5 -23.5l-9 -8v-2z" />
    <glyph glyph-name="five.numerator" horiz-adv-x="420" 
d="M207 276q-77 0 -127.5 37.5t-58.5 99.5h99q7 -25 29 -40.5t56 -15.5q36 0 59 23t23 60q0 39 -23 60t-59 21q-50 0 -77 -32h-92l47 255h279v-82h-209l-19 -104h2q34 37 97 37q68 0 113 -41.5t45 -112.5q0 -74 -51.5 -119.5t-132.5 -45.5z" />
    <glyph glyph-name="six.numerator" horiz-adv-x="444" 
d="M234 277q-88 0 -140 54q-60 61 -60 185q0 113 52 175q53 64 149 64q69 0 112 -33.5t54 -88.5h-103q-11 47 -64 47q-90 0 -98 -137h2q38 55 113 55q67 0 114.5 -45t47.5 -114q1 -72 -49.5 -117t-129.5 -45zM230 355q36 0 59 23.5t23 59.5t-23 59.5t-59 23.5
q-38 0 -61.5 -23t-23.5 -60q0 -36 24 -59.5t61 -23.5z" />
    <glyph glyph-name="seven.numerator" horiz-adv-x="388" 
d="M207 287h-113q4 113 53 209.5t124 161.5v3q-36 -5 -110 -5h-137v88h344v-80q-67 -66 -112 -163.5t-49 -213.5z" />
    <glyph glyph-name="eight.numerator" horiz-adv-x="442" 
d="M222 276q-85 0 -139.5 37.5t-54.5 103.5q0 86 96 116v3q-74 28 -74 93q0 57 47.5 91t123.5 34q78 0 125 -33t47 -89q0 -67 -73 -94v-3q46 -13 70.5 -43.5t24.5 -71.5q0 -69 -53.5 -106.5t-139.5 -37.5zM221 565q35 0 54 16t19 44q0 27 -19 43t-54 16q-34 0 -52.5 -16
t-18.5 -43q0 -28 18.5 -44t52.5 -16zM221 352q41 0 64.5 19t23.5 52q0 34 -23 54.5t-64 20.5q-40 0 -64 -20.5t-24 -54.5q0 -33 23.5 -52t63.5 -19z" />
    <glyph glyph-name="nine.numerator" horiz-adv-x="443" 
d="M217 276q-71 0 -119 35t-56 90h101q14 -49 71 -49q43 0 64 30q26 32 29 103h-2q-43 -53 -108 -53q-69 0 -117 45t-48 115q0 72 51.5 117t131.5 45q74 0 127 -42q68 -54 68 -197q0 -126 -56 -186q-51 -53 -137 -53zM217 509q38 0 61 23.5t23 60.5q0 36 -23.5 60t-60.5 24
t-61 -24t-24 -60q0 -37 24 -60.5t61 -23.5z" />
    <glyph glyph-name="acute.cap" 
d="M188 785l48 128h154l-100 -128h-102z" />
    <glyph glyph-name="breve.cap" 
d="M271 779q-64 0 -106 37.5t-45 98.5h79q12 -52 71 -52q58 0 71 52h77q-2 -59 -42.5 -97.5t-104.5 -38.5z" />
    <glyph glyph-name="caron.alt" 
d="M304 744v-73q0 -111 -117 -118v47q52 7 54 51h-53v93h116z" />
    <glyph glyph-name="caron.cap" 
d="M419 908l-105 -123h-129l-104 123h117l50 -59h2l52 59h117z" />
    <glyph glyph-name="circumflex.cap" 
d="M81 785l105 123h129l104 -123h-117l-50 59h-2l-52 -59h-117z" />
    <glyph glyph-name="commaaccent.alt" 
d="M317 -51v-80q0 -59 -36 -89.5t-97 -34.5v49q63 11 63 55h-61v100h131z" />
    <glyph glyph-name="dieresis.cap" 
d="M300 785v122h125v-122h-125zM75 785v122h125v-122h-125z" />
    <glyph glyph-name="dotaccent.cap" 
d="M185 785v122h130v-122h-130z" />
    <glyph glyph-name="grave.cap" 
d="M210 785l-100 128h154l47 -128h-101z" />
    <glyph glyph-name="hungarumlaut.cap" 
d="M281 785l33 128h128l-75 -128h-86zM107 785l34 128h129l-75 -128h-88z" />
    <glyph glyph-name="macron.cap" 
d="M102 792v94h299v-94h-299z" />
    <glyph glyph-name="ring.cap" 
d="M251 767q-46 0 -78 30.5t-32 75.5q0 44 32 74.5t78 30.5q44 0 76 -31t32 -74q0 -45 -31.5 -75.5t-76.5 -30.5zM251 817q23 0 38 16t15 40t-15 40t-38 16q-24 0 -39.5 -16t-15.5 -40t15.5 -40t39.5 -16z" />
    <glyph glyph-name="tilde.cap" 
d="M321 786q-32 0 -74 20t-53 20q-12 0 -21.5 -11t-10.5 -29h-75q1 60 27.5 92.5t69.5 32.5q33 0 71.5 -19.5t53.5 -19.5q26 0 31 37h76q-2 -58 -26 -90.5t-69 -32.5z" />
    <glyph glyph-name="Tcommaaccent" horiz-adv-x="661" 
d="M29 625v119h604v-119h-233v-625h-139v625h-232zM397 -51v-80q0 -59 -36 -89.5t-97 -34.5v49q63 11 63 55h-61v100h131z" />
    <glyph glyph-name="idotaccent" horiz-adv-x="242" 
d="M56 621v123h130v-123h-130zM58 0v534h127v-534h-127z" />
    <glyph glyph-name="space_uni0326" 
d="M316 -51v-80q0 -59 -36 -89.5t-97 -34.5v49q63 11 63 55h-61v100h131z" />
    <glyph glyph-name="space_uni0326.alt" 
d="M194 621v79q0 59 36 90t97 34v-49q-63 -10 -63 -55h61v-99h-131z" />
    <glyph glyph-name="R.alt" horiz-adv-x="704" 
d="M530 0l-160 287h-160v-287h-140v744h336q126 0 190 -70q62 -67 62 -160q0 -76 -39.5 -131.5t-109.5 -79.5l177 -303h-156zM210 625v-227h180q130 0 130 114q0 56 -33 84.5t-94 28.5h-183z" />
    <glyph glyph-name="Racute.alt" horiz-adv-x="704" 
d="M530 0l-160 287h-160v-287h-140v744h336q126 0 190 -70q62 -67 62 -160q0 -76 -39.5 -131.5t-109.5 -79.5l177 -303h-156zM210 625v-227h180q130 0 130 114q0 56 -33 84.5t-94 28.5h-183zM292 785l48 128h154l-100 -128h-102z" />
    <glyph glyph-name="Rcaron.alt" horiz-adv-x="704" 
d="M530 0l-160 287h-160v-287h-140v744h336q126 0 190 -70q62 -67 62 -160q0 -76 -39.5 -131.5t-109.5 -79.5l177 -303h-156zM210 625v-227h180q130 0 130 114q0 56 -33 84.5t-94 28.5h-183zM519 908l-105 -123h-129l-104 123h117l50 -59h2l52 59h117z" />
    <glyph glyph-name="Rcommaaccent.alt" horiz-adv-x="704" 
d="M530 0l-160 287h-160v-287h-140v744h336q126 0 190 -70q62 -67 62 -160q0 -76 -39.5 -131.5t-109.5 -79.5l177 -303h-156zM210 625v-227h180q130 0 130 114q0 56 -33 84.5t-94 28.5h-183zM416 -51v-80q0 -59 -36 -89.5t-97 -34.5v49q63 11 63 55h-61v100h131z" />
    <glyph glyph-name="Ccedilla.alt" horiz-adv-x="752" 
d="M382 -84h-61v76q-128 25 -204.5 128t-76.5 250q0 169 98 278.5t261 109.5q126 0 206 -61q91 -71 105 -192h-138q-10 61 -56 98.5t-118 37.5q-103 0 -160 -75.5t-57 -195.5t59.5 -194.5t158.5 -74.5q80 0 127 46.5t53 117.5h139q-2 -55 -26.5 -108t-63.5 -91
q-66 -66 -176 -79v-57q0 -58 -33.5 -84.5t-100.5 -28.5v49q64 6 64 50z" />
    <glyph glyph-name="Scedilla.alt" horiz-adv-x="682" 
d="M642 214q0 -96 -64 -155.5t-169 -71.5v-57q0 -58 -33.5 -84.5t-100.5 -28.5v49q64 6 64 50h-61v72q-116 16 -181 82.5t-69 167.5h139q15 -144 187 -144q64 0 106 28t42 81q0 23 -9.5 41t-23 29.5t-42.5 22t-51 16.5t-66 16q-49 11 -81 20.5t-68 26.5t-57 38.5t-35 55
t-14 76.5q0 103 75.5 157.5t199.5 54.5q128 0 202 -58t85 -162h-135q-8 55 -48 84.5t-106 29.5q-63 0 -100.5 -25t-37.5 -69q0 -47 42.5 -68.5t144.5 -42.5q48 -11 81 -20.5t71 -27.5t60.5 -41t37.5 -59.5t15 -83.5z" />
    <glyph glyph-name="ccedilla.alt" horiz-adv-x="569" 
d="M544 194q-5 -80 -54 -135t-130 -70v-59q0 -58 -33.5 -84.5t-100.5 -28.5v49q64 6 64 50h-61v77q-91 23 -144.5 97.5t-53.5 175.5q0 122 74 202t195 80q100 0 163 -52t78 -140h-124q-9 44 -39 69.5t-77 25.5q-68 0 -104.5 -50.5t-36.5 -134.5q0 -82 36.5 -132.5
t104.5 -50.5q52 0 83 29t36 82h124z" />
    <glyph glyph-name="scedilla.alt" horiz-adv-x="531" 
d="M500 154q0 -68 -44.5 -111t-120.5 -55v-58q0 -58 -33.5 -84.5t-100.5 -28.5v49q64 6 64 50h-61v73q-82 13 -128.5 59.5t-51.5 115.5h122q14 -91 127 -91q51 0 77 19.5t26 53.5q0 16 -7 27.5t-16 18.5t-31 13.5t-36.5 10t-47.5 9.5q-47 9 -74 17.5t-59 26t-47 47.5t-15 73
q0 75 58 117t153 42q103 0 159.5 -42t66.5 -115h-121q-14 71 -106 71q-43 0 -66.5 -17.5t-23.5 -46.5q0 -31 29.5 -44t100.5 -26q4 -1 6 -1q37 -7 60.5 -13t53 -19t46.5 -29.5t29 -45t12 -66.5z" />
    <glyph glyph-name="hyphen.cap" horiz-adv-x="384" 
d="M41 267v125h303v-125h-303z" />
    <glyph glyph-name="endash.cap" 
d="M0 275v109h500v-109h-500z" />
    <glyph glyph-name="emdash.cap" horiz-adv-x="1000" 
d="M200 276v109h600v-109h-600z" />
    <glyph glyph-name="questiondown.cap" horiz-adv-x="565" 
d="M369 744v-139h-140v139h140zM355 505q0 -66 -19.5 -105.5t-70.5 -83.5q-8 -7 -27 -22t-28 -23.5t-21 -22.5t-17 -29t-5 -32q0 -41 31 -66.5t82 -25.5q61 0 97 36.5t38 95.5h126q-3 -102 -72 -171t-193 -69q-110 0 -176 55t-66 142q0 94 83 160q14 11 33 25.5t29 22.5
t20.5 17.5t17.5 17.5q23 28 23 78h115z" />
    <glyph glyph-name="exclamdown.cap" horiz-adv-x="277" 
d="M172 505l34 -297v-208h-134v208l33 297h67zM209 744v-139h-140v139h140z" />
    <glyph glyph-name="parenleft.cap" horiz-adv-x="353" 
d="M230 -99q-160 210 -160 461q0 134 44.5 252.5t115.5 204.5h104q-128 -206 -128 -457q0 -244 128 -461h-104z" />
    <glyph glyph-name="parenright.cap" horiz-adv-x="353" 
d="M19 -99q130 218 130 461q0 253 -130 457h105q71 -86 115.5 -204.5t44.5 -252.5q0 -251 -160 -461h-105z" />
    <glyph glyph-name="bracketleft.cap" horiz-adv-x="394" 
d="M78 -99v918h273v-100h-149v-717h149v-101h-273z" />
    <glyph glyph-name="bracketright.cap" horiz-adv-x="394" 
d="M42 -99v101h148v717h-148v100h273v-918h-273z" />
    <glyph glyph-name="braceleft.cap" horiz-adv-x="384" 
d="M322 -99q-104 0 -152.5 41.5t-48.5 143.5v154q0 37 -20.5 55t-69.5 19v98q49 1 69.5 18.5t20.5 54.5v151q0 103 48.5 143t152.5 40h29v-100h-25q-45 0 -63 -17t-18 -66v-164q0 -86 -73 -108v-3q38 -11 55.5 -36.5t17.5 -70.5v-168q0 -49 18.5 -66.5t62.5 -17.5h25v-101
h-29z" />
    <glyph glyph-name="braceright.cap" horiz-adv-x="384" 
d="M42 -99v101h19q45 0 63 17t18 66v167q0 46 17.5 71t56.5 36v3q-39 12 -56.5 37.5t-17.5 70.5v165q0 49 -18.5 66.5t-62.5 17.5h-19v100h23q105 0 153 -41t48 -143v-151q0 -37 19.5 -55t66.5 -19v-98q-46 -1 -66 -18.5t-20 -54.5v-154q0 -103 -48 -143.5t-153 -40.5h-23z
" />
    <glyph glyph-name="guillemotleft.cap" horiz-adv-x="512" 
d="M444 118l-159 151v123l159 151v-127l-88 -85v-2l88 -86v-125zM227 118l-159 151v123l159 151v-127l-88 -85v-2l88 -86v-125z" />
    <glyph glyph-name="guillemotright.cap" horiz-adv-x="512" 
d="M227 269l-159 -151v125l89 86v2l-89 85v127l159 -151v-123zM444 269l-159 -151v125l89 86v2l-89 85v127l159 -151v-123z" />
    <glyph glyph-name="guilsinglleft.cap" horiz-adv-x="311" 
d="M242 110l-174 157v126l174 158v-132l-98 -88v-2l98 -88v-131z" />
    <glyph glyph-name="guilsinglright.cap" horiz-adv-x="311" 
d="M68 551l174 -158v-126l-174 -157v131l99 87v2l-99 89v132z" />
    <glyph glyph-name="registered.alt" horiz-adv-x="865" 
d="M433 -18q-161 0 -271.5 110.5t-110.5 276.5t110.5 277t271.5 111t271.5 -111t110.5 -277t-110.5 -276.5t-271.5 -110.5zM433 28q140 0 233 97.5t93 243.5q0 147 -93 244.5t-233 97.5t-234 -97.5t-94 -244.5q0 -146 94 -243.5t234 -97.5zM269 163v420h201q63 0 103.5 -32
t40.5 -88q0 -78 -77 -103v-2q58 -16 65 -82q2 -15 3.5 -32.5t2.5 -29t2.5 -22t4 -16t5.5 -7.5v-6h-94q-4 3 -6.5 15.5t-5 39t-4.5 42.5q-3 33 -20 48t-52 15h-74v-160h-95zM364 508v-115h87q33 0 50 15.5t17 41.5q0 58 -64 58h-90z" />
    <glyph glyph-name="dollar.cap" horiz-adv-x="681" 
d="M312 -123v117q-134 9 -205 75t-76 168h137q14 -123 144 -137v229l-2 1q-50 12 -81.5 21.5t-67.5 26.5t-55.5 38t-33 54t-13.5 76q0 94 70 149t183 60v80h65v-81q111 -9 173.5 -62t72.5 -144h-131q-14 88 -115 103v-213q51 -11 84.5 -21t70.5 -27.5t58 -39.5t35 -56
t14 -78q0 -99 -73.5 -158.5t-188.5 -64.5v-116h-65zM503 209q0 44 -29 65.5t-97 39.5v-215q54 6 90 35t36 75zM193 553q0 -39 27.5 -61t91.5 -38v199q-55 -5 -87 -31.5t-32 -68.5z" />
    <glyph glyph-name="Euro.cap" horiz-adv-x="703" 
d="M30 409v64h62q24 131 105.5 209.5t199.5 78.5q116 0 186.5 -65.5t82.5 -172.5h-135q-23 127 -137 127q-130 0 -161 -177h192v-64h-199q-1 -13 -1 -38q0 -29 1 -42h199v-64h-191q32 -169 167 -169q63 0 99.5 42t43.5 110h129q-5 -116 -77.5 -190.5t-193.5 -74.5
q-119 0 -202 75.5t-108 206.5h-62v64h54q-1 13 -1 42q0 25 1 38h-54z" />
    <glyph glyph-name="sterling.cap" horiz-adv-x="639" 
d="M46 321v85h56q-34 74 -34 132q0 98 71.5 160t196.5 62q116 0 185 -59q79 -67 82 -195h-133q-1 73 -37.5 109t-96.5 36q-61 0 -93 -31t-32 -85q0 -11 1.5 -23t3.5 -20.5t6.5 -22.5t6.5 -20t8 -22t8 -21h152v-85h-127q4 -28 4 -42q0 -47 -23.5 -85t-74.5 -77l2 -3
q53 28 102 28q40 0 88.5 -17.5t76.5 -17.5q55 0 107 48l64 -103q-78 -67 -171 -67q-54 0 -119.5 28t-106.5 28q-44 0 -111 -47l-70 102q52 35 80.5 73.5t28.5 90.5q0 28 -10 61h-91z" />
    <glyph glyph-name="yen.cap" horiz-adv-x="674" 
d="M83 287v63h165l-231 395h152l84 -155q16 -30 37.5 -76.5t35.5 -77.5l13 -32h2q50 118 87 186l82 155h149l-232 -395h168v-63h-189v-80h189v-64h-189v-143h-134v143h-189v64h189v80h-189z" />
    <glyph glyph-name="zero.cap" horiz-adv-x="710" 
d="M355 -18q-141 0 -225.5 106t-84.5 284t85.5 283.5t225.5 105.5q141 0 225 -105t84 -284q0 -178 -83.5 -284t-226.5 -106zM356 94q85 0 126.5 73t41.5 205q0 130 -42 204.5t-126 74.5q-85 0 -127 -74t-42 -205q0 -130 42 -204t127 -74z" />
    <glyph glyph-name="one.cap" horiz-adv-x="436" 
d="M211 0v510h-172v91q82 2 136.5 38t65.5 111h107v-750h-137z" />
    <glyph glyph-name="two.cap" horiz-adv-x="631" 
d="M37 0q3 120 79 206q22 25 54.5 51.5t50.5 39.5t65 43.5t54 35.5q58 37 84 68.5t26 78.5q0 57 -34 91t-93 34q-66 0 -100 -40q-38 -41 -38 -120h-134q0 111 60 183q70 89 219 89q120 0 190 -65.5t70 -167.5q0 -76 -36 -122.5t-109 -95.5q-21 -16 -80 -54.5t-96 -70
t-55 -65.5h369v-119h-546z" />
    <glyph glyph-name="three.cap" horiz-adv-x="653" 
d="M333 -18q-134 0 -217 66q-87 71 -89 195h131q4 -70 47.5 -111t122.5 -41q68 0 107.5 34t39.5 96q0 59 -42 90t-119 31h-46v99h43q69 0 106.5 28.5t37.5 79.5q0 49 -36 78.5t-93 29.5q-68 0 -106 -38.5t-40 -98.5h-130q2 106 76.5 173.5t202.5 67.5q114 0 187.5 -56
t73.5 -151q0 -111 -125 -153v-2q149 -41 149 -188q0 -109 -79.5 -169t-201.5 -60z" />
    <glyph glyph-name="four.cap" horiz-adv-x="668" 
d="M404 0v174h-354v123l362 455h125v-475h116v-103h-116v-174h-133zM148 272q66 5 109 5h147v215l6 112h-2q-39 -62 -70 -100l-107 -136q-13 -17 -33.5 -40.5t-35.5 -38.5l-14 -15v-2z" />
    <glyph glyph-name="five.cap" horiz-adv-x="638" 
d="M316 -17q-122 0 -201 62t-87 161h135q11 -51 49 -80.5t100 -29.5q67 0 108 42t41 110t-41 108.5t-103 40.5q-92 0 -138 -59h-130l79 406h427v-114h-328l-41 -191h2q59 64 162 64t176.5 -70.5t73.5 -186.5q0 -119 -79.5 -191t-204.5 -72z" />
    <glyph glyph-name="six.cap" horiz-adv-x="668" 
d="M354 -18q-133 0 -213 88q-94 97 -94 302q-2 184 81 289q81 100 225 100q108 0 173.5 -55.5t79.5 -136.5h-132q-7 36 -37.5 62t-80.5 26q-170 0 -179 -262h2q67 105 192 105q106 0 181 -74t76 -183q0 -112 -78.5 -186.5t-195.5 -74.5zM350 88q64 0 106.5 43t42.5 110
t-43 110.5t-107 43.5q-70 0 -113.5 -42.5t-43.5 -110.5t45 -111t113 -43z" />
    <glyph glyph-name="seven.cap" horiz-adv-x="591" 
d="M135 0q10 190 96 360.5t203 269.5v2q-78 -5 -160 -5h-243v117h536v-107q-117 -110 -198.5 -276.5t-89.5 -360.5h-144z" />
    <glyph glyph-name="eight.cap" horiz-adv-x="666" 
d="M336 -18q-128 0 -213.5 60t-85.5 170q0 71 41 120.5t114 70.5v3q-121 39 -121 154q0 90 73 145.5t190 55.5t189 -54t72 -145q0 -114 -119 -154v-3q73 -19 113.5 -69.5t40.5 -120.5q0 -113 -83.5 -173t-210.5 -60zM333 448q62 0 97 28.5t35 76.5q0 50 -35 79t-97 29
q-61 0 -96 -29t-35 -79q0 -48 35 -76.5t96 -28.5zM336 89q71 0 113.5 35t42.5 95q0 62 -42 98.5t-116 36.5q-73 0 -115.5 -36.5t-42.5 -98.5q0 -61 42.5 -95.5t117.5 -34.5z" />
    <glyph glyph-name="nine.cap" horiz-adv-x="669" 
d="M327 -18q-112 0 -185 57t-83 142h133q8 -40 42 -67t90 -27q78 0 119 55q46 61 52 198h-2q-75 -96 -191 -96q-109 0 -184.5 73.5t-76.5 183.5q0 112 80 186t201 74q116 0 193 -66q108 -89 108 -322q0 -221 -94 -314q-75 -77 -202 -77zM323 348q71 0 114.5 43t43.5 111
t-45 111t-112 43q-68 0 -110.5 -43t-42.5 -110t43 -111t109 -44z" />
    <glyph glyph-name="percent.cap" horiz-adv-x="956" 
d="M226 0l415 744h88l-415 -744h-88zM222 328q-82 0 -134.5 59.5t-52.5 157.5q0 97 53 156.5t134 59.5q83 0 134.5 -58.5t51.5 -157.5q0 -98 -51.5 -157.5t-134.5 -59.5zM733 -18q-83 0 -135 60t-52 158q0 97 53 156.5t134 59.5q83 0 134.5 -59t51.5 -157t-51.5 -158
t-134.5 -60zM222 408q40 0 60.5 37.5t20.5 99.5q0 61 -21 99.5t-60 38.5q-38 0 -58.5 -38t-20.5 -100t20.5 -99.5t58.5 -37.5zM733 63q39 0 59.5 37.5t20.5 99.5q0 61 -21 99.5t-59 38.5q-39 0 -59 -38t-20 -100t20 -99.5t59 -37.5z" />
    <glyph glyph-name="perthousand.cap" horiz-adv-x="1377" 
d="M222 0l414 744h88l-415 -744h-87zM222 328q-82 0 -134.5 59.5t-52.5 157.5q0 97 53 156.5t134 59.5q83 0 134.5 -58.5t51.5 -157.5q0 -98 -51.5 -157.5t-134.5 -59.5zM724 -18q-83 0 -135 60t-52 158q0 97 53 156.5t134 59.5q83 0 135 -59t52 -157t-52 -158t-135 -60z
M222 408q40 0 60.5 37.5t20.5 99.5q0 61 -21 99.5t-60 38.5q-38 0 -58.5 -38t-20.5 -100t20.5 -99.5t58.5 -37.5zM724 63q40 0 60 37t20 100q0 61 -21 99.5t-59 38.5t-58.5 -38t-20.5 -100t20.5 -99.5t58.5 -37.5zM1155 -18q-83 0 -135.5 60t-52.5 158q0 97 53 156.5
t135 59.5q83 0 134.5 -59t51.5 -157t-51.5 -158t-134.5 -60zM1155 63q39 0 59.5 37.5t20.5 99.5q0 61 -21 99.5t-59 38.5q-39 0 -59 -38t-20 -100t20 -99.5t59 -37.5z" />
    <glyph glyph-name="dollar.tab" horiz-adv-x="650" 
d="M298 -117v110q-125 9 -192 72.5t-72 161.5h132q14 -117 132 -131v218q-49 12 -80.5 22t-64 26.5t-51 37t-30 51.5t-11.5 72q0 89 65.5 141.5t171.5 57.5v77h62v-78q103 -8 162.5 -59t67.5 -138h-126q-12 83 -104 98v-202q127 -29 186.5 -73t59.5 -140q0 -94 -69 -151
t-177 -63v-110h-62zM475 200q0 42 -26.5 63t-88.5 37v-205q50 6 82.5 33.5t32.5 71.5zM190 529q0 -39 25 -59.5t83 -35.5v190q-50 -5 -79 -30t-29 -65z" />
    <glyph glyph-name="Euro.tab" horiz-adv-x="650" 
d="M24 391v62h59q23 125 100 200t186 75q108 0 174.5 -63t77.5 -165h-129q-21 121 -125 121q-61 0 -98.5 -44t-51.5 -124h174v-62h-180q-1 -12 -1 -36q0 -27 1 -40h180v-62h-173q31 -160 156 -160q58 0 90.5 39.5t39.5 105.5h125q-5 -111 -73.5 -182.5t-181.5 -71.5
q-111 0 -189 72t-102 197h-59v62h51q-1 13 -1 40q0 24 1 36h-51z" />
    <glyph glyph-name="sterling.tab" horiz-adv-x="650" 
d="M63 307v81h54q-33 74 -33 127q0 93 68.5 152.5t187.5 59.5q110 0 176 -56q76 -63 79 -187h-129q-1 70 -35 104t-92 34q-57 0 -87 -29.5t-30 -80.5q0 -39 33 -124h143v-81h-120q3 -19 3 -39q0 -45 -22 -81.5t-71 -74.5l2 -3q53 27 99 27q38 0 83 -16.5t72 -16.5
q52 0 102 46l61 -99q-73 -64 -163 -64q-52 0 -114 26.5t-100 26.5q-43 0 -106 -45l-68 98q50 35 77 71t27 85q0 27 -10 59h-87z" />
    <glyph glyph-name="yen.tab" horiz-adv-x="650" 
d="M82 274v61h168l-214 378h142l75 -144q15 -29 33.5 -72t29.5 -71l11 -28h2q42 105 75 171l74 144h139l-214 -378h170v-61h-182v-76h182v-61h-182v-137h-128v137h-181v61h181v76h-181z" />
    <glyph glyph-name="cent.tab" horiz-adv-x="650" 
d="M309 -124v110q-109 12 -174 90t-65 190q0 113 65 191.5t174 89.5v88h61v-88q89 -7 145 -59.5t69 -134.5h-123q-16 82 -91 96v-365q83 15 94 111h121q-6 -89 -63.5 -146t-151.5 -64v-109h-61zM198 266q0 -72 28.5 -120.5t82.5 -60.5v363q-54 -12 -82.5 -60.5t-28.5 -121.5
z" />
    <glyph glyph-name="florin.tab" horiz-adv-x="650" 
d="M133 341v87h118l23 156q11 71 48 104q56 51 195 34v-95q-58 5 -84 -6.5t-32 -51.5l-20 -141h127v-87h-140l-51 -363q-11 -73 -46 -105q-47 -45 -168 -29v90q41 -3 60 7t25 48l51 352h-106z" />
    <glyph glyph-name="currency.tab" horiz-adv-x="650" 
d="M325 227q49 0 77.5 36t28.5 94t-28.5 94.5t-77.5 36.5t-78 -36.5t-29 -94.5t29 -94t78 -36zM146 107l-64 62l69 69q-33 51 -33 119q0 67 33 118l-69 70l64 61l68 -70q48 32 111 32t111 -32l69 70l63 -61l-69 -70q32 -52 32 -118q0 -65 -32 -118l69 -70l-63 -62l-69 70
q-46 -30 -111 -30t-110 30z" />
    <glyph glyph-name="zero.tab" horiz-adv-x="650" 
d="M324 -17q-126 0 -202 101t-76 272t77 271.5t202 100.5q127 0 202.5 -99.5t75.5 -272.5q0 -172 -75 -272.5t-204 -100.5zM325 91q142 0 142 265q0 125 -35 195.5t-107 70.5t-107.5 -70.5t-35.5 -195.5q0 -124 35.5 -194.5t107.5 -70.5z" />
    <glyph glyph-name="one.tab" horiz-adv-x="650" 
d="M314 0v478h-188v88q194 4 217 152h103v-718h-132z" />
    <glyph glyph-name="two.tab" horiz-adv-x="650" 
d="M58 0q3 115 75 197q17 19 37 37t47 37.5t41.5 29.5t49 32.5t41.5 26.5q55 35 79.5 65t24.5 76q0 54 -32.5 86.5t-88.5 32.5q-62 0 -95 -38q-36 -39 -36 -116h-129q0 106 56 176q69 85 210 85q115 0 182.5 -62.5t67.5 -160.5q0 -72 -34 -116.5t-104 -90.5
q-22 -17 -75.5 -52t-89.5 -64.5t-55 -61.5q0 -4 -1 -5h352v-114h-523z" />
    <glyph glyph-name="three.tab" horiz-adv-x="650" 
d="M333 -17q-128 0 -206 63q-83 67 -85 187h126q3 -67 43.5 -106t116.5 -39q65 0 101 32t36 92q0 115 -151 115h-44v95h41q66 0 101 27t35 76q0 47 -33.5 75t-88.5 28q-64 0 -99.5 -36.5t-37.5 -93.5h-124q2 102 72 166t192 64q109 0 178.5 -53.5t69.5 -144.5
q0 -106 -120 -146v-2q143 -40 143 -180q0 -105 -75 -162t-191 -57z" />
    <glyph glyph-name="four.tab" horiz-adv-x="650" 
d="M391 0v167h-339v117l347 436h120v-454h94v-99h-94v-167h-128zM147 261q63 5 103 5h141v204l5 107h-2q-37 -59 -66 -96l-102 -129l-79 -89v-2z" />
    <glyph glyph-name="five.tab" horiz-adv-x="650" 
d="M322 -16q-117 0 -192.5 59t-83.5 154h130q10 -48 46 -76t96 -28q64 0 103.5 39.5t39.5 104.5t-39.5 103.5t-98.5 38.5q-87 0 -132 -56h-124l75 389h408v-109h-314l-38 -183h2q56 61 155 61q98 0 168.5 -67t70.5 -178q0 -114 -76 -183t-196 -69z" />
    <glyph glyph-name="six.tab" horiz-adv-x="650" 
d="M343 -17q-126 0 -202 84q-89 93 -89 289q-2 177 77 276q76 96 213 96q104 0 166.5 -52.5t76.5 -131.5h-128q-7 35 -35.5 60t-77.5 25q-82 0 -122.5 -63t-45.5 -187h2q67 100 182 100q101 0 171 -70.5t71 -175.5q1 -107 -73.5 -178.5t-185.5 -71.5zM339 84q60 0 99.5 41
t39.5 105q0 65 -39.5 106t-100.5 41q-66 0 -106.5 -40.5t-40.5 -105.5q0 -64 42 -105.5t106 -41.5z" />
    <glyph glyph-name="seven.tab" horiz-adv-x="650" 
d="M171 0q9 181 91 344.5t192 257.5v2q-75 -5 -153 -5h-228v113h509v-103q-111 -105 -187.5 -264t-84.5 -345h-139z" />
    <glyph glyph-name="eight.tab" horiz-adv-x="650" 
d="M327 -17q-119 0 -199 57.5t-80 162.5q0 68 38 115t107 67v3q-115 38 -115 148q0 86 70 139t178 53q109 0 177.5 -51.5t68.5 -138.5q0 -52 -29 -90.5t-85 -57.5v-3q68 -18 105.5 -66t37.5 -115q0 -108 -77.5 -165.5t-196.5 -57.5zM325 429q57 0 89 27t32 74t-32 74.5
t-89 27.5q-56 0 -89 -27.5t-33 -74.5t33 -74t89 -27zM327 85q66 0 104 33.5t38 90.5q0 60 -38 94.5t-105 34.5t-105.5 -34.5t-38.5 -94.5q0 -58 38.5 -91t106.5 -33z" />
    <glyph glyph-name="nine.tab" horiz-adv-x="650" 
d="M320 -17q-107 0 -177.5 54.5t-79.5 135.5h129q7 -37 39.5 -63.5t85.5 -26.5q73 0 112 52q41 53 47 190h-2q-69 -92 -179 -92q-104 0 -175 70.5t-71 176.5q-1 107 75 177.5t191 70.5q110 0 184 -63q101 -83 101 -308q0 -213 -88 -300q-71 -74 -192 -74zM316 334
q67 0 107 40.5t40 106.5q0 64 -41.5 105t-104.5 41q-64 0 -104 -41t-40 -105t40 -105.5t103 -41.5z" />
    <glyph glyph-name="percent.tab" horiz-adv-x="900" 
d="M216 318q-78 0 -128 56.5t-50 149.5q0 91 50.5 147.5t127.5 56.5q78 0 127 -55.5t49 -148.5t-49 -149.5t-127 -56.5zM209 0l397 712h85l-397 -712h-85zM685 -17q-78 0 -127.5 56.5t-49.5 148.5t50 148.5t127 56.5q78 0 127.5 -56t49.5 -149q0 -92 -49.5 -148.5
t-127.5 -56.5zM216 395q37 0 56.5 35t19.5 94q0 57 -20 93t-56 36q-37 0 -56.5 -35.5t-19.5 -93.5t19.5 -93.5t56.5 -35.5zM685 60q38 0 57 34.5t19 93.5q0 58 -20 94t-56 36t-55.5 -35.5t-19.5 -94.5q0 -58 19.5 -93t55.5 -35z" />
    <glyph glyph-name="perthousand.tab" horiz-adv-x="1200" 
d="M173 0l396 712h84l-396 -712h-84zM1000 -17q-74 0 -120.5 55.5t-46.5 146.5t47 146t120 55q75 0 121 -54t46 -147q0 -91 -46.5 -146.5t-120.5 -55.5zM1000 60q67 0 67 125q0 57 -17 92t-50 35q-64 0 -64 -127q0 -125 64 -125zM626 -17q-74 0 -120.5 55.5t-46.5 146.5
t47 146t120 55q75 0 121 -54t46 -147q0 -91 -46.5 -146.5t-120.5 -55.5zM626 60q67 0 67 125q0 57 -17 92t-50 35q-64 0 -64 -127q0 -125 64 -125zM200 325q-74 0 -120.5 55.5t-46.5 146.5t47 146t120 55q74 0 120.5 -54.5t46.5 -146.5q0 -91 -46.5 -146.5t-120.5 -55.5z
M200 401q66 0 66 126q0 57 -17 92t-49 35t-48.5 -34.5t-16.5 -92.5q0 -57 16.5 -91.5t48.5 -34.5z" />
    <glyph glyph-name="minus.tab" horiz-adv-x="650" 
d="M81 290v101h488v-101h-488z" />
    <glyph glyph-name="multiply.tab" horiz-adv-x="650" 
d="M161 104l-70 69l165 166l-164 165l70 70l163 -165l164 165l71 -70l-165 -165l165 -165l-71 -70l-164 165z" />
    <glyph glyph-name="divide.tab" horiz-adv-x="650" 
d="M256 472v130h139v-130h-139zM85 290v102h481v-102h-481zM256 80v129h139v-129h-139z" />
    <glyph glyph-name="plusminus.tab" horiz-adv-x="650" 
d="M81 342v100h191v170h107v-170h190v-100h-190v-171h-107v171h-191zM81 0v98h488v-98h-488z" />
    <glyph glyph-name="notequal.tab" horiz-adv-x="650" 
d="M87 377v97h271l58 113h88l-58 -113h121v-97h-170l-54 -106h224v-97h-273l-57 -113h-88l57 113h-119v97h168l54 106h-222z" />
    <glyph glyph-name="approxequal.tab" horiz-adv-x="650" 
d="M450 357q-43 0 -129.5 19t-110.5 19q-40 0 -44 -45h-88q1 73 35 110.5t91 37.5q44 0 128 -19.5t106 -19.5q42 0 45 43h89q-2 -145 -122 -145zM450 155q-43 0 -129.5 19t-110.5 19q-40 0 -44 -45h-88q1 74 35 111t91 37q44 0 128 -19.5t106 -19.5q42 0 45 43h89
q-2 -145 -122 -145z" />
    <glyph glyph-name="lessequal.tab" horiz-adv-x="650" 
d="M100 0v98h446v-98h-446zM546 134l-446 152v132l446 152v-109l-211 -68l-158 -41v-2q93 -18 158 -38l211 -67v-111z" />
    <glyph glyph-name="greaterequal.tab" horiz-adv-x="650" 
d="M550 98v-98h-446v98h446zM550 286l-446 -152v111l211 67q29 9 68.5 18.5t64.5 14.5l25 5v2q-93 21 -158 41l-211 68v109l446 -152v-132z" />
    <glyph glyph-name="less.tab" horiz-adv-x="650" 
d="M546 83l-446 179v121l446 179v-113l-217 -79l-145 -47v-2q90 -26 145 -45l217 -77v-116z" />
    <glyph glyph-name="equal.tab" horiz-adv-x="650" 
d="M87 375v99h480v-99h-480zM87 174v99h480v-99h-480z" />
    <glyph glyph-name="greater.tab" horiz-adv-x="650" 
d="M104 562l446 -179v-121l-446 -179v113l218 79l144 47v2q-90 26 -144 45l-218 77v116z" />
    <glyph glyph-name="space.tab" horiz-adv-x="325" 
 />
    <glyph glyph-name="comma.tab" horiz-adv-x="325" 
d="M95 -169v62q63 18 63 101v6h-64v139h138v-138q0 -79 -36.5 -121t-100.5 -49z" />
    <glyph glyph-name="period.tab" horiz-adv-x="325" 
d="M94 0v139h138v-139h-138z" />
    <glyph glyph-name="colon.tab" horiz-adv-x="325" 
d="M93 319v138h139v-138h-139zM93 0v139h139v-139h-139z" />
    <glyph glyph-name="semicolon.tab" horiz-adv-x="325" 
d="M93 319v138h139v-138h-139zM94 -169v62q64 19 64 101v6h-65v139h139v-138q0 -79 -37 -121t-101 -49z" />
    </font>
</defs>
</svg>
